<svg xmlns="http://www.w3.org/2000/svg" viewBox="-8 23.7 455.6 87">
  <path d="M30.10 51.30L30.10 51.30Q36.50 51.30 41.65 54.05Q46.80 56.80 49.80 62.35Q52.80 67.90 52.80 76.20L52.80 76.20Q52.80 84.60 49.65 90.20Q46.50 95.80 40.85 98.60Q35.20 101.40 27.70 101.40L27.70 101.40Q22 101.40 17.75 100.05Q13.50 98.70 10.60 96.90L10.60 96.90Q8.50 95.40 7.55 93.85Q6.60 92.30 6.60 90L6.60 90L6.60 57.70L18.90 57.70L18.90 89.20Q20.20 90.10 22.45 90.85Q24.70 91.60 27.60 91.60L27.60 91.60Q33.30 91.60 36.75 87.80Q40.20 84 40.20 76.20L40.20 76.20Q40.20 68.30 36.80 64.70Q33.40 61.10 27.90 61.10L27.90 61.10Q24.40 61.10 21.70 62.40Q19 63.70 17.10 65.40L17.10 65.40L16.30 55.40Q18.60 54 22.05 52.65Q25.50 51.30 30.10 51.30ZM18.90 39.90L18.90 60.50L6.60 60.50L6.60 35Q7.40 34.80 8.90 34.50Q10.40 34.20 12.20 34.20L12.20 34.20Q15.70 34.20 17.30 35.45Q18.90 36.70 18.90 39.90L18.90 39.90Z" fill="#33241D"/>
  <path d="M61.80 81.90L61.80 81.90L61.80 74L74.10 74L74.10 81.70Q74.10 87 76.85 89.30Q79.60 91.60 84.50 91.60L84.50 91.60Q87.70 91.60 89.90 91Q92.10 90.40 93.20 89.70L93.20 89.70L93.20 74L105.50 74L105.50 90.70Q105.50 93 104.75 94.55Q104 96.10 101.90 97.40L101.90 97.40Q99 99.10 94.55 100.25Q90.10 101.40 84.40 101.40L84.40 101.40Q77.50 101.40 72.40 99.40Q67.30 97.40 64.55 93.05Q61.80 88.70 61.80 81.90ZM105.50 57.80L105.50 78.80L93.20 78.80L93.20 52.80Q94 52.60 95.55 52.35Q97.10 52.10 98.80 52.10L98.80 52.10Q102.30 52.10 103.90 53.30Q105.50 54.50 105.50 57.80L105.50 57.80ZM74.10 57.80L74.10 78.80L61.80 78.80L61.80 52.80Q62.60 52.60 64.10 52.35Q65.60 52.10 67.40 52.10L67.40 52.10Q70.90 52.10 72.50 53.30Q74.10 54.50 74.10 57.80L74.10 57.80Z" fill="#33241D"/>
  <path d="M148.10 89.60L148.10 89.60L148.10 58.20L160.40 58.20L160.40 90.90Q160.40 93.10 159.45 94.55Q158.50 96 156.40 97.30L156.40 97.30Q154 98.90 149.85 100.15Q145.70 101.40 140.40 101.40L140.40 101.40Q132.50 101.40 126.65 98.75Q120.80 96.10 117.60 90.55Q114.40 85 114.40 76.50L114.40 76.50Q114.40 67.80 117.65 62.20Q120.90 56.60 126.40 53.95Q131.90 51.30 138.60 51.30L138.60 51.30Q142.30 51.30 145.35 52.20Q148.40 53.10 150.30 54.30L150.30 54.30L150.30 64.80Q148.70 63.30 146.10 62.20Q143.50 61.10 140.10 61.10L140.10 61.10Q136.40 61.10 133.40 62.65Q130.40 64.20 128.70 67.65Q127 71.10 127 76.60L127 76.60Q127 84.40 130.60 88Q134.20 91.60 140.30 91.60L140.30 91.60Q143 91.60 144.90 91Q146.80 90.40 148.10 89.60ZM160.40 39.90L160.40 60.70L148.10 60.80L148.10 35Q148.80 34.80 150.35 34.50Q151.90 34.20 153.60 34.20L153.60 34.20Q157.20 34.20 158.80 35.45Q160.40 36.70 160.40 39.90L160.40 39.90Z" fill="#B3492E"/>
  <path d="M196.20 89.60L196.20 89.60L196.20 58.20L208.50 58.20L208.50 90.90Q208.50 93.10 207.55 94.55Q206.60 96 204.50 97.30L204.50 97.30Q202.10 98.90 197.95 100.15Q193.80 101.40 188.50 101.40L188.50 101.40Q180.60 101.40 174.75 98.75Q168.90 96.10 165.70 90.55Q162.50 85 162.50 76.50L162.50 76.50Q162.50 67.80 165.75 62.20Q169 56.60 174.50 53.95Q180 51.30 186.70 51.30L186.70 51.30Q190.40 51.30 193.45 52.20Q196.50 53.10 198.40 54.30L198.40 54.30L198.40 64.80Q196.80 63.30 194.20 62.20Q191.60 61.10 188.20 61.10L188.20 61.10Q184.50 61.10 181.50 62.65Q178.50 64.20 176.80 67.65Q175.10 71.10 175.10 76.60L175.10 76.60Q175.10 84.40 178.70 88Q182.30 91.60 188.40 91.60L188.40 91.60Q191.10 91.60 193 91Q194.90 90.40 196.20 89.60ZM208.50 39.90L208.50 60.70L196.20 60.80L196.20 35Q196.90 34.80 198.45 34.50Q200 34.20 201.70 34.20L201.70 34.20Q205.30 34.20 206.90 35.45Q208.50 36.70 208.50 39.90L208.50 39.90Z" fill="#B3492E"/>
  <path d="M219.40 38.60L219.40 38.60Q219.40 35.70 221.45 33.70Q223.50 31.70 226.60 31.70L226.60 31.70Q229.80 31.70 231.75 33.70Q233.70 35.70 233.70 38.60L233.70 38.60Q233.70 41.40 231.75 43.45Q229.80 45.50 226.60 45.50L226.60 45.50Q223.50 45.50 221.45 43.45Q219.40 41.40 219.40 38.60ZM220.40 94.90L220.40 73.60L232.80 73.60L232.80 99.80Q232 100.10 230.50 100.35Q229 100.60 227.20 100.60L227.20 100.60Q223.80 100.60 222.10 99.35Q220.40 98.10 220.40 94.90L220.40 94.90ZM232.80 58.10L232.80 79.90L220.40 79.90L220.40 53.10Q221.20 52.80 222.75 52.55Q224.30 52.30 226.10 52.30L226.10 52.30Q229.60 52.30 231.20 53.55Q232.80 54.80 232.80 58.10L232.80 58.10Z" fill="#33241D"/>
  <path d="M281.20 86.60L281.20 86.60Q281.20 93.60 276 97.55Q270.80 101.50 260.90 101.50L260.90 101.50Q252.90 101.50 247.80 99.10Q242.70 96.70 242.70 92.70L242.70 92.70Q242.70 91 243.50 89.55Q244.30 88.10 245.60 87.30L245.60 87.30Q248.40 89.10 252.10 90.50Q255.80 91.90 260.50 91.90L260.50 91.90Q269 91.90 269 86.70L269 86.70Q269 84.50 267.50 83.15Q266 81.80 262.90 81.20L262.90 81.20L257.20 79.70Q249.90 78.10 246.35 74.70Q242.80 71.30 242.80 65.60L242.80 65.60Q242.80 59.30 248 55.25Q253.20 51.20 262.40 51.20L262.40 51.20Q267.20 51.20 271 52.15Q274.80 53.10 276.95 54.90Q279.10 56.70 279.10 59.20L279.10 59.20Q279.10 60.90 278.35 62.25Q277.60 63.60 276.40 64.30L276.40 64.30Q275.20 63.60 273.15 62.75Q271.10 61.90 268.50 61.35Q265.90 60.80 263.30 60.80L263.30 60.80Q259.40 60.80 257.15 62.05Q254.90 63.30 254.90 65.60L254.90 65.60Q254.90 67.30 256.20 68.50Q257.50 69.70 260.60 70.40L260.60 70.40L265.70 71.60Q273.80 73.50 277.50 77.15Q281.20 80.80 281.20 86.60Z" fill="#33241D"/>
  <path d="M323.30 75.75L322.94 74.46Q322.80 74.10 322.44 74.17L322.44 74.17Q321.79 74.38 321.11 74.53Q320.42 74.67 319.70 74.89L319.70 74.89Q319.34 75.03 319.34 75.32L319.34 75.32L319.34 99.51Q319.34 100.74 318.44 101.67Q317.54 102.61 316.25 102.61L316.25 102.61Q314.95 102.61 314.05 101.67Q313.15 100.74 313.15 99.51L313.15 99.51L313.15 76.54Q313.15 76.04 312.72 76.18L312.72 76.18Q310.92 76.40 309.16 76.54Q307.39 76.69 305.95 76.83L305.95 76.83Q304.51 76.98 303.65 76.00Q302.78 75.03 302.78 73.66L302.78 73.66Q302.78 72.87 303.14 72.08Q303.50 71.29 304.30 70.71L304.30 70.71Q305.81 69.70 307.21 68.34Q308.62 66.97 309.98 65.38L309.98 65.38Q310.20 65.10 309.98 64.81L309.98 64.81Q309.12 63.22 307.97 61.64Q306.82 60.06 305.52 58.62L305.52 58.62Q304.30 57.18 304.30 55.30L304.30 55.30Q304.30 53.50 305.45 51.92L305.45 51.92Q308.62 47.74 310.42 41.41L310.42 41.41Q310.70 40.40 311.53 39.79Q312.36 39.18 313.30 39.18L313.30 39.18Q314.66 39.18 315.49 40.00Q316.32 40.83 316.32 41.98L316.32 41.98Q316.32 42.20 316.28 42.38Q316.25 42.56 316.18 42.78L316.18 42.78Q315.24 46.52 313.84 49.54Q312.43 52.57 310.70 54.94L310.70 54.94Q310.49 55.23 310.70 55.52L310.70 55.52Q311.50 56.46 312.18 57.32Q312.86 58.18 313.58 59.19L313.58 59.19Q313.87 59.62 314.16 59.12L314.16 59.12Q317.62 53.00 319.34 45.80L319.34 45.80Q319.56 44.79 320.39 44.14Q321.22 43.50 322.22 43.50L322.22 43.50Q323.66 43.50 324.46 44.36Q325.25 45.22 325.25 46.45L325.25 46.45Q325.25 46.59 325.25 46.81Q325.25 47.02 325.18 47.17L325.18 47.17Q323.59 53.79 320.82 59.37Q318.05 64.95 314.30 69.42L314.30 69.42Q314.16 69.56 314.12 69.67Q314.09 69.78 314.09 69.78L314.09 69.78L314.16 69.85Q316.03 69.49 317.62 69.20Q319.20 68.91 320.50 68.55L320.50 68.55Q320.93 68.41 320.71 67.98L320.71 67.98Q320.57 67.62 320.39 67.18Q320.21 66.75 320.06 66.46L320.06 66.46Q319.78 65.89 319.78 65.17L319.78 65.17Q319.78 63.15 321.65 62.36L321.65 62.36Q322.22 62.14 322.87 62.14L322.87 62.14Q323.81 62.14 324.64 62.65Q325.46 63.15 325.90 64.09L325.90 64.09Q326.76 66.18 327.66 68.88Q328.56 71.58 329.21 74.38L329.21 74.38Q329.28 74.60 329.28 75.03L329.28 75.03Q329.28 76.18 328.42 77.16Q327.55 78.13 326.18 78.13L326.18 78.13Q325.25 78.13 324.38 77.44Q323.52 76.76 323.30 75.75L323.30 75.75ZM363.12 67.76L363.12 67.76Q364.13 68.12 364.67 68.95Q365.21 69.78 365.21 70.78L365.21 70.78Q365.21 72.15 364.31 73.02Q363.41 73.88 362.18 73.88L362.18 73.88Q361.97 73.88 361.75 73.84Q361.54 73.81 361.32 73.74L361.32 73.74Q353.47 71.29 346.13 65.82L346.13 65.82Q345.84 65.60 345.55 65.82L345.55 65.82Q341.95 68.48 338.64 70.42Q335.33 72.37 332.81 73.52L332.81 73.52Q332.30 73.74 331.66 73.74L331.66 73.74Q330.50 73.74 329.64 72.87Q328.78 72.01 328.78 70.64L328.78 70.64Q328.78 68.19 331.01 67.40L331.01 67.40Q333.67 66.32 336.05 64.88Q338.42 63.44 340.66 61.93L340.66 61.93Q341.02 61.57 340.66 61.28L340.66 61.28Q338.93 59.70 337.45 57.97Q335.98 56.24 334.75 54.58L334.75 54.58Q334.25 53.79 334.25 53.07L334.25 53.07Q334.25 51.42 335.83 50.62L335.83 50.62Q336.70 50.26 337.34 50.26L337.34 50.26Q339.14 50.26 340.30 51.78L340.30 51.78Q341.52 53.29 342.82 54.69Q344.11 56.10 345.55 57.39L345.55 57.39Q345.84 57.68 346.13 57.39L346.13 57.39Q348.43 55.30 350.20 53.40Q351.96 51.49 352.97 50.12L352.97 50.12Q353.33 49.62 352.68 49.62L352.68 49.62L332.59 49.62Q331.37 49.62 330.43 48.72Q329.50 47.82 329.50 46.59L329.50 46.59Q329.50 45.30 330.43 44.40Q331.37 43.50 332.59 43.50L332.59 43.50L359.09 43.50Q360.38 43.50 361.25 44.40Q362.11 45.30 362.11 46.45L362.11 46.45Q362.11 47.17 361.82 47.74L361.82 47.74Q359.88 51.49 357.07 54.87Q354.26 58.26 351.02 61.21L351.02 61.21Q350.74 61.50 351.02 61.86L351.02 61.86Q353.76 63.66 356.78 65.17Q359.81 66.68 363.12 67.76ZM348.94 85.26L348.94 95.12Q348.94 95.55 349.37 95.55L349.37 95.55L361.32 95.55Q362.54 95.55 363.48 96.45Q364.42 97.35 364.42 98.65L364.42 98.65Q364.42 99.94 363.48 100.84Q362.54 101.74 361.32 101.74L361.32 101.74L330.58 101.74Q329.35 101.74 328.45 100.84Q327.55 99.94 327.55 98.65L327.55 98.65Q327.55 97.35 328.45 96.45Q329.35 95.55 330.58 95.55L330.58 95.55L342.24 95.55Q342.67 95.55 342.67 95.12L342.67 95.12L342.67 85.26Q342.67 84.82 342.24 84.82L342.24 84.82L333.31 84.82Q332.02 84.82 331.12 83.89Q330.22 82.95 330.22 81.73L330.22 81.73Q330.22 80.43 331.15 79.53Q332.09 78.63 333.31 78.63L333.31 78.63L342.24 78.63Q342.67 78.63 342.67 78.20L342.67 78.20L342.67 71.22Q342.67 69.92 343.57 68.98Q344.47 68.05 345.77 68.05L345.77 68.05Q347.14 68.05 348.04 68.98Q348.94 69.92 348.94 71.22L348.94 71.22L348.94 78.20Q348.94 78.63 349.37 78.63L349.37 78.63L358.87 78.63Q360.17 78.63 361.07 79.57Q361.97 80.50 361.97 81.73L361.97 81.73Q361.97 82.95 361.07 83.89Q360.17 84.82 358.87 84.82L358.87 84.82L349.37 84.82Q348.94 84.82 348.94 85.26L348.94 85.26ZM309.48 77.84L309.48 77.84Q310.92 77.84 311.86 78.85Q312.79 79.86 312.65 81.22L312.65 81.22Q312.22 84.97 311.28 89.58Q310.34 94.18 309.05 98L309.05 98Q308.26 100.23 305.81 100.23L305.81 100.23Q304.44 100.23 303.65 99.40Q302.86 98.58 302.86 97.50L302.86 97.50Q302.86 96.85 303.07 96.34L303.07 96.34Q304.37 92.82 305.23 88.93Q306.10 85.04 306.60 80.43L306.60 80.43Q306.74 79.28 307.57 78.56Q308.40 77.84 309.48 77.84ZM328.92 90.08L328.92 90.08Q328.99 90.30 328.99 90.73L328.99 90.73Q328.99 91.81 328.16 92.67Q327.34 93.54 325.97 93.54L325.97 93.54Q325.03 93.54 324.24 92.89Q323.45 92.24 323.23 91.23L323.23 91.23Q322.22 86.77 320.14 83.10L320.14 83.10Q319.78 82.38 319.78 81.73L319.78 81.73Q319.78 79.93 321.43 79.28L321.43 79.28Q322.08 79.06 322.66 79.06L322.66 79.06Q323.66 79.06 324.53 79.57Q325.39 80.07 325.82 81.01L325.82 81.01Q326.69 82.95 327.52 85.26Q328.34 87.56 328.92 90.08Z" fill="#A85638"/>
  <path d="M414.46 55.30L414.46 56.24Q414.46 56.67 414.90 56.67L414.90 56.67L430.74 56.67Q432.54 56.67 433.69 57.97Q434.84 59.26 434.62 60.99L434.62 60.99Q434.34 62.94 433.90 64.66L433.90 64.66Q432.54 69.63 425.98 69.70L425.98 69.70Q425.55 69.70 425.55 69.99L425.55 69.99Q425.55 70.28 425.59 70.46Q425.62 70.64 425.62 70.93L425.62 70.93L425.62 89.94Q425.62 91.74 424.33 93.03Q423.03 94.33 421.23 94.33L421.23 94.33L420.22 94.33Q420.01 94.33 419.94 94.54Q419.86 94.76 420.08 94.83L420.08 94.83Q422.38 95.34 424.90 95.77Q427.42 96.20 430.23 96.49L430.23 96.49Q431.46 96.56 432.21 97.42Q432.97 98.29 432.97 99.37L432.97 99.37Q432.97 100.81 431.82 101.82Q430.66 102.82 429.22 102.68L429.22 102.68Q425.77 102.32 422.17 101.60Q418.57 100.88 415.54 99.94L415.54 99.94Q414.54 99.58 413.89 98.72Q413.24 97.86 413.24 96.85L413.24 96.85Q413.24 96.56 413.28 96.34Q413.31 96.13 413.38 95.91L413.38 95.91Q413.60 95.34 413.96 94.83L413.96 94.83Q414.32 94.33 413.74 94.33L413.74 94.33L395.74 94.33Q395.17 94.33 395.53 94.83L395.53 94.83Q395.96 95.41 396.03 95.84L396.03 95.84Q396.18 96.42 396.18 96.78L396.18 96.78Q396.18 97.78 395.64 98.61Q395.10 99.44 394.09 99.80L394.09 99.80Q391.14 100.74 387.36 101.53Q383.58 102.32 380.12 102.68L380.12 102.68Q378.75 102.75 377.64 101.82Q376.52 100.88 376.52 99.37L376.52 99.37Q376.52 98.29 377.28 97.46Q378.03 96.63 379.18 96.49L379.18 96.49Q381.99 96.20 384.51 95.77Q387.03 95.34 389.26 94.83L389.26 94.83Q389.48 94.76 389.44 94.54Q389.41 94.33 389.19 94.33L389.19 94.33L387.97 94.33Q386.17 94.33 384.87 93.03Q383.58 91.74 383.58 89.94L383.58 89.94L383.58 71.65Q383.58 71.07 383.07 71.36L383.07 71.36Q380.55 72.30 377.31 73.09L377.31 73.09Q377.17 73.16 376.95 73.16Q376.74 73.16 376.59 73.16L376.59 73.16Q375.44 73.16 374.58 72.37Q373.71 71.58 373.71 70.28L373.71 70.28Q373.71 69.20 374.40 68.34Q375.08 67.47 376.23 67.26L376.23 67.26Q379.54 66.46 382.53 65.24Q385.52 64.02 387.97 62.29L387.97 62.29Q388.26 62.14 388.15 61.96Q388.04 61.78 387.75 61.78L387.75 61.78L381.20 61.78Q380.05 61.78 379.22 60.88Q378.39 59.98 378.39 58.83L378.39 58.83Q378.39 58.54 378.43 58.33Q378.46 58.11 378.54 57.82L378.54 57.82Q378.90 56.82 379.15 55.88Q379.40 54.94 379.62 53.94L379.62 53.94Q380.05 52.14 381.38 50.98Q382.71 49.83 384.44 49.83L384.44 49.83L394.16 49.83Q394.59 49.83 394.59 49.40L394.59 49.40L394.59 48.32Q394.59 47.89 394.16 47.89L394.16 47.89L380.62 47.89Q379.62 47.89 378.86 47.17Q378.10 46.45 378.10 45.37L378.10 45.37Q378.10 44.36 378.82 43.60Q379.54 42.85 380.62 42.85L380.62 42.85L394.16 42.85Q394.59 42.85 394.59 42.42L394.59 42.42L394.59 42.27Q394.59 41.05 395.49 40.18Q396.39 39.32 397.54 39.32L397.54 39.32Q398.77 39.32 399.63 40.18Q400.50 41.05 400.50 42.27L400.50 42.27L400.50 42.42Q400.50 42.85 400.93 42.85L400.93 42.85L407.91 42.85Q408.34 42.85 408.34 42.42L408.34 42.42L408.34 42.34Q408.34 41.12 409.24 40.22Q410.14 39.32 411.44 39.32L411.44 39.32Q412.66 39.32 413.56 40.22Q414.46 41.12 414.46 42.34L414.46 42.34L414.46 42.42Q414.46 42.85 414.90 42.85L414.90 42.85L425.26 42.85Q427.06 42.85 428.29 44.11Q429.51 45.37 429.51 47.10L429.51 47.10L429.51 50.62Q429.51 52.42 428.25 53.65Q426.99 54.87 425.26 54.87L425.26 54.87L414.90 54.87Q414.46 54.87 414.46 55.30L414.46 55.30ZM408.34 49.40L408.34 48.32Q408.34 47.89 407.91 47.89L407.91 47.89L400.93 47.89Q400.50 47.89 400.50 48.32L400.50 48.32L400.50 49.40Q400.50 49.83 400.93 49.83L400.93 49.83L407.91 49.83Q408.34 49.83 408.34 49.40L408.34 49.40ZM414.90 49.83L423.18 49.83Q423.61 49.83 423.61 49.40L423.61 49.40L423.61 48.32Q423.61 47.89 423.18 47.89L423.18 47.89L414.90 47.89Q414.46 47.89 414.46 48.32L414.46 48.32L414.46 49.40Q414.46 49.83 414.90 49.83L414.90 49.83ZM393.80 55.38L393.80 55.38Q394.09 54.87 393.51 54.87L393.51 54.87L385.74 54.87Q385.38 54.87 385.23 55.30L385.23 55.30Q385.16 55.52 385.12 55.74Q385.09 55.95 385.02 56.17L385.02 56.17Q384.87 56.67 385.38 56.67L385.38 56.67L392.86 56.67Q393.30 56.67 393.37 56.31L393.37 56.31Q393.51 56.10 393.62 55.84Q393.73 55.59 393.80 55.38ZM399.78 56.17L399.78 56.17Q399.63 56.67 400.14 56.67L400.14 56.67L407.91 56.67Q408.34 56.67 408.34 56.24L408.34 56.24L408.34 55.30Q408.34 54.87 407.91 54.87L407.91 54.87L400.50 54.87Q400.21 54.87 400.06 55.23L400.06 55.23Q399.99 55.45 399.92 55.70Q399.85 55.95 399.78 56.17ZM428.29 63.01L428.29 63.01L428.43 62.22Q428.58 61.78 428 61.78L428 61.78L414.90 61.78Q414.46 61.78 414.46 62.22L414.46 62.22L414.46 63.08Q414.46 64.30 413.56 65.24Q412.66 66.18 411.44 66.18L411.44 66.18Q410.14 66.18 409.24 65.24Q408.34 64.30 408.34 63.08L408.34 63.08L408.34 62.22Q408.34 61.78 407.91 61.78L407.91 61.78L397.33 61.78Q396.97 61.78 396.75 62.07L396.75 62.07Q395.38 63.94 392.86 66.03L392.86 66.03Q392.58 66.18 392.65 66.36Q392.72 66.54 393.01 66.54L393.01 66.54L421.59 66.54Q422.02 66.54 422.02 66.46L422.02 66.46Q422.10 65.24 423.03 64.52Q423.97 63.80 425.19 63.94L425.19 63.94Q425.48 64.02 425.70 64.02Q425.91 64.02 426.20 64.02L426.20 64.02Q428.07 64.02 428.29 63.01ZM389.77 72.51L389.77 73.66Q389.77 74.10 390.20 74.10L390.20 74.10L419 74.10Q419.43 74.10 419.43 73.66L419.43 73.66L419.43 72.51Q419.43 72.08 419 72.08L419 72.08L390.20 72.08Q389.77 72.08 389.77 72.51L389.77 72.51ZM419.43 81.08L419.43 79.78Q419.43 79.35 419 79.35L419 79.35L390.20 79.35Q389.77 79.35 389.77 79.78L389.77 79.78L389.77 81.08Q389.77 81.51 390.20 81.51L390.20 81.51L419 81.51Q419.43 81.51 419.43 81.08L419.43 81.08ZM419 86.77L390.20 86.77Q389.77 86.77 389.77 87.20L389.77 87.20L389.77 88.28Q389.77 88.71 390.20 88.71L390.20 88.71L419 88.71Q419.43 88.71 419.43 88.28L419.43 88.28L419.43 87.20Q419.43 86.77 419 86.77L419 86.77Z" fill="#A85638"/>
</svg>
