<svg xmlns="http://www.w3.org/2000/svg" viewBox="-3.4 -11.09 294.6 154.59">
  <path d="M88.58 36.95L88.58 36.95Q87.78 36.95 87.15 36.40Q86.53 35.85 86.38 35L86.38 35Q85.83 31.70 84.40 29Q82.97 26.30 81.13 24.05Q79.28 21.80 77.45 19.88Q75.63 17.95 74.23 16.15L74.23 16.15Q73.78 15.60 73.78 14.90L73.78 14.90Q73.78 13.70 74.83 13.05L74.83 13.05Q75.33 12.70 76.08 12.70L76.08 12.70Q76.63 12.70 77.15 12.93Q77.68 13.15 78.03 13.65L78.03 13.65Q79.33 15.35 81.22 17.35Q83.13 19.35 85.08 21.78Q87.03 24.20 88.60 27.28Q90.18 30.35 90.88 34.20L90.88 34.20Q91.03 35.20 90.33 36.08Q89.63 36.95 88.58 36.95ZM54.53 36.20L54.53 36.20Q53.88 36.70 53.08 36.70L53.08 36.70Q52.03 36.70 51.33 35.85L51.33 35.85Q50.88 35.25 50.88 34.45L50.88 34.45Q50.88 33.90 51.08 33.43Q51.28 32.95 51.73 32.60L51.73 32.60Q55.18 29.70 57.23 26.80Q59.28 23.90 60.45 21.13Q61.63 18.35 62.38 15.85L62.38 15.85Q62.63 15.10 63.23 14.65Q63.83 14.20 64.58 14.20L64.58 14.20Q65.58 14.20 66.23 14.90Q66.88 15.60 66.88 16.55L66.88 16.55Q66.88 16.80 66.78 17.20L66.78 17.20Q65.73 20.65 64.23 23.85Q62.73 27.05 60.40 30.10Q58.08 33.15 54.53 36.20Z" fill="#33241D"/>
  <path d="M108.43 12.45L108.43 12.45Q107.53 12.50 106.88 11.88Q106.23 11.25 106.23 10.35L106.23 10.35Q106.23 9.40 106.85 8.75Q107.48 8.10 108.43 8.05L108.43 8.05Q110.63 7.95 113.93 7.90Q117.23 7.85 120.63 7.85L120.63 7.85Q123.48 7.85 126.08 7.90Q128.68 7.95 130.47 8.05L130.47 8.05Q131.32 8.10 131.95 8.77Q132.57 9.45 132.57 10.35L132.57 10.35Q132.57 11.30 131.93 11.93Q131.28 12.55 130.32 12.50L130.32 12.50Q128.43 12.40 125.50 12.35Q122.58 12.30 119.48 12.30L119.48 12.30Q116.33 12.30 113.40 12.33Q110.48 12.35 108.43 12.45ZM135.98 18.40L135.98 18.40Q136.88 18.40 137.50 19.05Q138.13 19.70 138.13 20.55L138.13 20.55Q138.13 21.50 137.48 22.15Q136.82 22.80 135.93 22.80L135.93 22.80L123.68 22.80Q123.23 22.80 123.23 23.25L123.23 23.25Q123.23 28.25 122.08 31.75Q120.93 35.25 118.83 37.80Q116.73 40.35 113.93 42.50L113.93 42.50Q113.48 42.90 112.73 42.90L112.73 42.90Q111.53 42.90 110.93 41.85L110.93 41.85Q110.63 41.25 110.63 40.60L110.63 40.60Q110.63 39.40 111.58 38.65L111.58 38.65Q114.68 36.20 116.18 33.80Q117.68 31.40 118.15 28.83Q118.63 26.25 118.68 23.30L118.68 23.30Q118.68 22.85 118.23 22.85L118.23 22.85Q114.03 22.90 110.15 23.05Q106.28 23.20 103.63 23.45L103.63 23.45Q102.73 23.50 102.05 22.90Q101.38 22.30 101.38 21.40L101.38 21.40Q101.38 20.45 102.03 19.75Q102.67 19.05 103.58 19L103.58 19Q105.83 18.85 108.83 18.70Q111.83 18.55 115.23 18.48Q118.63 18.40 122.10 18.35Q125.58 18.30 128.72 18.30L128.72 18.30Q130.82 18.30 132.68 18.33Q134.53 18.35 135.98 18.40Z" fill="#33241D"/>
  <path d="M178.63 11.50L178.63 11.50Q179.82 12.20 179.82 13.60L179.82 13.60Q179.82 14.05 179.57 14.65L179.57 14.65Q178.52 16.65 177.22 18.60Q175.92 20.55 174.32 22.45L174.32 22.45Q174.07 22.65 174.17 23.05L174.17 23.05Q174.63 24.55 174.85 26.60Q175.07 28.65 175.07 31.60L175.07 31.60Q175.07 33.45 174.97 35.80Q174.88 38.15 174.67 41.05L174.67 41.05Q174.63 41.90 174 42.48Q173.38 43.05 172.52 43.05L172.52 43.05Q171.57 43.05 170.97 42.38Q170.38 41.70 170.42 40.75L170.42 40.75Q170.67 38 170.80 35.60Q170.92 33.20 170.92 31.20L170.92 31.20Q170.92 30.05 170.88 29Q170.82 27.95 170.72 27.05L170.72 27.05Q170.63 26.40 170.13 26.85L170.13 26.85Q167.97 28.85 165.57 30.58Q163.17 32.30 160.82 33.45L160.82 33.45Q160.42 33.65 159.92 33.65L159.92 33.65Q158.52 33.65 157.97 32.35L157.97 32.35Q157.82 31.95 157.82 31.50L157.82 31.50Q157.82 30.90 158.13 30.35Q158.42 29.80 159.02 29.50L159.02 29.50Q163.17 27.40 166.45 24.50Q169.72 21.60 172.07 18.43Q174.42 15.25 175.82 12.35L175.82 12.35Q176.38 11.20 177.57 11.20L177.57 11.20Q178.13 11.20 178.63 11.50Z" fill="#33241D"/>
  <path d="M236.47 38.90L236.47 38.90Q236.92 39.50 236.92 40.25L236.92 40.25Q236.92 41.45 235.97 42.25L235.97 42.25Q235.38 42.70 234.67 42.70L234.67 42.70Q233.57 42.70 232.88 41.80L232.88 41.80Q231.32 39.50 229.17 37.40Q227.02 35.30 224.65 33.65Q222.27 32 219.88 31.05L219.88 31.05Q219.52 30.90 219.27 31.15L219.27 31.15Q216.07 34.15 211.95 37Q207.82 39.85 202.63 42.20L202.63 42.20Q202.22 42.40 201.72 42.40L201.72 42.40Q200.92 42.40 200.27 41.80Q199.63 41.20 199.63 40.25L199.63 40.25Q199.63 39.50 200.05 38.85Q200.47 38.20 201.17 37.90L201.17 37.90Q206.02 35.75 209.90 33.03Q213.77 30.30 216.65 27.43Q219.52 24.55 221.42 21.93Q223.32 19.30 224.22 17.45L224.22 17.45Q225.22 15.30 225.22 14.15L225.22 14.15Q225.22 12.60 223.22 12.60L223.22 12.60Q222.92 12.60 222.60 12.60Q222.27 12.60 221.88 12.70L221.88 12.70Q220.17 12.95 217.32 13.20Q214.47 13.45 211.10 13.60Q207.72 13.75 204.47 13.75L204.47 13.75Q203.63 13.75 203 13.13Q202.38 12.50 202.38 11.60L202.38 11.60Q202.38 10.65 203.02 10Q203.67 9.35 204.63 9.35L204.63 9.35L206.88 9.35Q211.27 9.35 215.17 9.05Q219.07 8.75 221.22 8.35L221.22 8.35Q221.77 8.25 222.27 8.20Q222.77 8.15 223.27 8.15L223.27 8.15Q226.27 8.15 227.95 9.78Q229.63 11.40 229.63 14.10L229.63 14.10Q229.63 16.60 228.22 19.45L228.22 19.45Q227.42 21.10 226.17 23.00Q224.92 24.90 223.22 26.95L223.22 26.95Q223.13 27.05 223.13 27.25L223.13 27.25Q223.13 27.45 223.38 27.60L223.38 27.60Q225.88 28.85 228.32 30.73Q230.77 32.60 232.88 34.73Q234.97 36.85 236.47 38.90Z" fill="#33241D"/>
  <rect x="80.54" y="4.73" width="3.33" height="9.79" rx="1.66" fill="#B3492E" transform="rotate(35 82.2 9.63)"/>
  <rect x="84.39" y="3.13" width="3.26" height="8.83" rx="1.63" fill="#E58A64" transform="rotate(32 86.03 7.55)"/>
  <rect x="133.07" y="2.89" width="3.32" height="9.76" rx="1.66" fill="#B3492E" transform="rotate(35 134.73 7.78)"/>
  <rect x="136.92" y="1.3" width="3.26" height="8.81" rx="1.63" fill="#E58A64" transform="rotate(32 138.55 5.7)"/>
  <path d="M30.10 83.30L30.10 83.30Q36.50 83.30 41.65 86.05Q46.80 88.80 49.80 94.35Q52.80 99.90 52.80 108.20L52.80 108.20Q52.80 116.60 49.65 122.20Q46.50 127.80 40.85 130.60Q35.20 133.40 27.70 133.40L27.70 133.40Q22 133.40 17.75 132.05Q13.50 130.70 10.60 128.90L10.60 128.90Q8.50 127.40 7.55 125.85Q6.60 124.30 6.60 122L6.60 122L6.60 89.70L18.90 89.70L18.90 121.20Q20.20 122.10 22.45 122.85Q24.70 123.60 27.60 123.60L27.60 123.60Q33.30 123.60 36.75 119.80Q40.20 116 40.20 108.20L40.20 108.20Q40.20 100.30 36.80 96.70Q33.40 93.10 27.90 93.10L27.90 93.10Q24.40 93.10 21.70 94.40Q19 95.70 17.10 97.40L17.10 97.40L16.30 87.40Q18.60 86 22.05 84.65Q25.50 83.30 30.10 83.30ZM18.90 71.90L18.90 92.50L6.60 92.50L6.60 67Q7.40 66.80 8.90 66.50Q10.40 66.20 12.20 66.20L12.20 66.20Q15.70 66.20 17.30 67.45Q18.90 68.70 18.90 71.90L18.90 71.90Z" fill="#33241D"/>
  <path d="M61.80 113.90L61.80 113.90L61.80 106L74.10 106L74.10 113.70Q74.10 119 76.85 121.30Q79.60 123.60 84.50 123.60L84.50 123.60Q87.70 123.60 89.90 123Q92.10 122.40 93.20 121.70L93.20 121.70L93.20 106L105.50 106L105.50 122.70Q105.50 125 104.75 126.55Q104 128.10 101.90 129.40L101.90 129.40Q99 131.10 94.55 132.25Q90.10 133.40 84.40 133.40L84.40 133.40Q77.50 133.40 72.40 131.40Q67.30 129.40 64.55 125.05Q61.80 120.70 61.80 113.90ZM105.50 89.80L105.50 110.80L93.20 110.80L93.20 84.80Q94 84.60 95.55 84.35Q97.10 84.10 98.80 84.10L98.80 84.10Q102.30 84.10 103.90 85.30Q105.50 86.50 105.50 89.80L105.50 89.80ZM74.10 89.80L74.10 110.80L61.80 110.80L61.80 84.80Q62.60 84.60 64.10 84.35Q65.60 84.10 67.40 84.10L67.40 84.10Q70.90 84.10 72.50 85.30Q74.10 86.50 74.10 89.80L74.10 89.80Z" fill="#33241D"/>
  <path d="M148.10 121.60L148.10 121.60L148.10 90.20L160.40 90.20L160.40 122.90Q160.40 125.10 159.45 126.55Q158.50 128 156.40 129.30L156.40 129.30Q154 130.90 149.85 132.15Q145.70 133.40 140.40 133.40L140.40 133.40Q132.50 133.40 126.65 130.75Q120.80 128.10 117.60 122.55Q114.40 117 114.40 108.50L114.40 108.50Q114.40 99.80 117.65 94.20Q120.90 88.60 126.40 85.95Q131.90 83.30 138.60 83.30L138.60 83.30Q142.30 83.30 145.35 84.20Q148.40 85.10 150.30 86.30L150.30 86.30L150.30 96.80Q148.70 95.30 146.10 94.20Q143.50 93.10 140.10 93.10L140.10 93.10Q136.40 93.10 133.40 94.65Q130.40 96.20 128.70 99.65Q127 103.10 127 108.60L127 108.60Q127 116.40 130.60 120Q134.20 123.60 140.30 123.60L140.30 123.60Q143 123.60 144.90 123Q146.80 122.40 148.10 121.60ZM160.40 71.90L160.40 92.70L148.10 92.80L148.10 67Q148.80 66.80 150.35 66.50Q151.90 66.20 153.60 66.20L153.60 66.20Q157.20 66.20 158.80 67.45Q160.40 68.70 160.40 71.90L160.40 71.90Z" fill="#B3492E"/>
  <path d="M196.20 121.60L196.20 121.60L196.20 90.20L208.50 90.20L208.50 122.90Q208.50 125.10 207.55 126.55Q206.60 128 204.50 129.30L204.50 129.30Q202.10 130.90 197.95 132.15Q193.80 133.40 188.50 133.40L188.50 133.40Q180.60 133.40 174.75 130.75Q168.90 128.10 165.70 122.55Q162.50 117 162.50 108.50L162.50 108.50Q162.50 99.80 165.75 94.20Q169 88.60 174.50 85.95Q180 83.30 186.70 83.30L186.70 83.30Q190.40 83.30 193.45 84.20Q196.50 85.10 198.40 86.30L198.40 86.30L198.40 96.80Q196.80 95.30 194.20 94.20Q191.60 93.10 188.20 93.10L188.20 93.10Q184.50 93.10 181.50 94.65Q178.50 96.20 176.80 99.65Q175.10 103.10 175.10 108.60L175.10 108.60Q175.10 116.40 178.70 120Q182.30 123.60 188.40 123.60L188.40 123.60Q191.10 123.60 193 123Q194.90 122.40 196.20 121.60ZM208.50 71.90L208.50 92.70L196.20 92.80L196.20 67Q196.90 66.80 198.45 66.50Q200 66.20 201.70 66.20L201.70 66.20Q205.30 66.20 206.90 67.45Q208.50 68.70 208.50 71.90L208.50 71.90Z" fill="#B3492E"/>
  <path d="M219.40 70.60L219.40 70.60Q219.40 67.70 221.45 65.70Q223.50 63.70 226.60 63.70L226.60 63.70Q229.80 63.70 231.75 65.70Q233.70 67.70 233.70 70.60L233.70 70.60Q233.70 73.40 231.75 75.45Q229.80 77.50 226.60 77.50L226.60 77.50Q223.50 77.50 221.45 75.45Q219.40 73.40 219.40 70.60ZM220.40 126.90L220.40 105.60L232.80 105.60L232.80 131.80Q232 132.10 230.50 132.35Q229 132.60 227.20 132.60L227.20 132.60Q223.80 132.60 222.10 131.35Q220.40 130.10 220.40 126.90L220.40 126.90ZM232.80 90.10L232.80 111.90L220.40 111.90L220.40 85.10Q221.20 84.80 222.75 84.55Q224.30 84.30 226.10 84.30L226.10 84.30Q229.60 84.30 231.20 85.55Q232.80 86.80 232.80 90.10L232.80 90.10Z" fill="#33241D"/>
  <path d="M281.20 118.60L281.20 118.60Q281.20 125.60 276 129.55Q270.80 133.50 260.90 133.50L260.90 133.50Q252.90 133.50 247.80 131.10Q242.70 128.70 242.70 124.70L242.70 124.70Q242.70 123 243.50 121.55Q244.30 120.10 245.60 119.30L245.60 119.30Q248.40 121.10 252.10 122.50Q255.80 123.90 260.50 123.90L260.50 123.90Q269 123.90 269 118.70L269 118.70Q269 116.50 267.50 115.15Q266 113.80 262.90 113.20L262.90 113.20L257.20 111.70Q249.90 110.10 246.35 106.70Q242.80 103.30 242.80 97.60L242.80 97.60Q242.80 91.30 248 87.25Q253.20 83.20 262.40 83.20L262.40 83.20Q267.20 83.20 271 84.15Q274.80 85.10 276.95 86.90Q279.10 88.70 279.10 91.20L279.10 91.20Q279.10 92.90 278.35 94.25Q277.60 95.60 276.40 96.30L276.40 96.30Q275.20 95.60 273.15 94.75Q271.10 93.90 268.50 93.35Q265.90 92.80 263.30 92.80L263.30 92.80Q259.40 92.80 257.15 94.05Q254.90 95.30 254.90 97.60L254.90 97.60Q254.90 99.30 256.20 100.50Q257.50 101.70 260.60 102.40L260.60 102.40L265.70 103.60Q273.80 105.50 277.50 109.15Q281.20 112.80 281.20 118.60Z" fill="#33241D"/>
</svg>
