<svg xmlns="http://www.w3.org/2000/svg" viewBox="-8 16.49 299.6 123.01">
  <path d="M115.13 45.23L115.13 45.23Q114.72 45.23 114.39 44.94Q114.07 44.66 113.99 44.22L113.99 44.22Q113.70 42.50 112.96 41.10Q112.22 39.69 111.26 38.52Q110.30 37.35 109.35 36.35Q108.40 35.35 107.67 34.41L107.67 34.41Q107.44 34.13 107.44 33.76L107.44 33.76Q107.44 33.14 107.98 32.80L107.98 32.80Q108.24 32.62 108.63 32.62L108.63 32.62Q108.92 32.62 109.19 32.74Q109.46 32.85 109.65 33.11L109.65 33.11Q110.32 34.00 111.31 35.04Q112.30 36.08 113.31 37.34Q114.33 38.60 115.14 40.20Q115.96 41.80 116.33 43.80L116.33 43.80Q116.41 44.32 116.04 44.78Q115.68 45.23 115.13 45.23ZM97.43 44.84L97.43 44.84Q97.09 45.10 96.67 45.10L96.67 45.10Q96.13 45.10 95.76 44.66L95.76 44.66Q95.53 44.35 95.53 43.93L95.53 43.93Q95.53 43.64 95.63 43.40Q95.74 43.15 95.97 42.97L95.97 42.97Q97.76 41.46 98.83 39.95Q99.90 38.44 100.51 37.00Q101.12 35.56 101.51 34.26L101.51 34.26Q101.64 33.87 101.95 33.63Q102.26 33.40 102.65 33.40L102.65 33.40Q103.17 33.40 103.51 33.76Q103.85 34.13 103.85 34.62L103.85 34.62Q103.85 34.75 103.80 34.96L103.80 34.96Q103.25 36.75 102.47 38.42Q101.69 40.08 100.48 41.67Q99.27 43.25 97.43 44.84Z" fill="#33241D"/>
  <path d="M125.45 32.49L125.45 32.49Q124.99 32.52 124.65 32.19Q124.31 31.87 124.31 31.40L124.31 31.40Q124.31 30.90 124.63 30.57Q124.96 30.23 125.45 30.20L125.45 30.20Q126.60 30.15 128.31 30.12Q130.03 30.10 131.80 30.10L131.80 30.10Q133.28 30.10 134.63 30.12Q135.98 30.15 136.92 30.20L136.92 30.20Q137.36 30.23 137.69 30.58Q138.01 30.93 138.01 31.40L138.01 31.40Q138.01 31.89 137.67 32.22Q137.34 32.54 136.84 32.52L136.84 32.52Q135.85 32.46 134.33 32.44Q132.81 32.41 131.20 32.41L131.20 32.41Q129.56 32.41 128.04 32.42Q126.52 32.44 125.45 32.49ZM139.78 35.58L139.78 35.58Q140.25 35.58 140.57 35.92Q140.90 36.26 140.90 36.70L140.90 36.70Q140.90 37.20 140.56 37.53Q140.22 37.87 139.75 37.87L139.75 37.87L133.38 37.87Q133.15 37.87 133.15 38.11L133.15 38.11Q133.15 40.71 132.55 42.53Q131.95 44.35 130.86 45.67Q129.77 47.00 128.31 48.12L128.31 48.12Q128.08 48.32 127.69 48.32L127.69 48.32Q127.07 48.32 126.75 47.78L126.75 47.78Q126.60 47.47 126.60 47.13L126.60 47.13Q126.60 46.50 127.09 46.11L127.09 46.11Q128.70 44.84 129.48 43.59Q130.26 42.34 130.51 41.01Q130.76 39.67 130.78 38.13L130.78 38.13Q130.78 37.90 130.55 37.90L130.55 37.90Q128.37 37.92 126.35 38.00Q124.34 38.08 122.96 38.21L122.96 38.21Q122.49 38.24 122.14 37.92Q121.79 37.61 121.79 37.14L121.79 37.14Q121.79 36.65 122.13 36.29Q122.46 35.92 122.93 35.90L122.93 35.90Q124.10 35.82 125.66 35.74Q127.22 35.66 128.99 35.62Q130.76 35.58 132.56 35.56Q134.37 35.53 136.01 35.53L136.01 35.53Q137.10 35.53 138.06 35.55Q139.03 35.56 139.78 35.58Z" fill="#33241D"/>
  <path d="M161.96 32.00L161.96 32.00Q162.58 32.36 162.58 33.09L162.58 33.09Q162.58 33.32 162.45 33.63L162.45 33.63Q161.91 34.67 161.23 35.69Q160.55 36.70 159.72 37.69L159.72 37.69Q159.59 37.79 159.64 38.00L159.64 38.00Q159.88 38.78 159.99 39.85Q160.11 40.91 160.11 42.45L160.11 42.45Q160.11 43.41 160.06 44.63Q160.01 45.85 159.90 47.36L159.90 47.36Q159.88 47.80 159.55 48.10Q159.23 48.40 158.79 48.40L158.79 48.40Q158.29 48.40 157.98 48.05Q157.67 47.70 157.69 47.21L157.69 47.21Q157.82 45.78 157.89 44.53Q157.95 43.28 157.95 42.24L157.95 42.24Q157.95 41.64 157.93 41.10Q157.90 40.55 157.85 40.08L157.85 40.08Q157.80 39.74 157.54 39.98L157.54 39.98Q156.42 41.02 155.17 41.92Q153.92 42.81 152.70 43.41L152.70 43.41Q152.49 43.51 152.23 43.51L152.23 43.51Q151.51 43.51 151.22 42.84L151.22 42.84Q151.14 42.63 151.14 42.40L151.14 42.40Q151.14 42.08 151.30 41.80Q151.45 41.51 151.77 41.36L151.77 41.36Q153.92 40.26 155.63 38.76Q157.33 37.25 158.55 35.60Q159.77 33.95 160.50 32.44L160.50 32.44Q160.79 31.84 161.41 31.84L161.41 31.84Q161.70 31.84 161.96 32.00Z" fill="#33241D"/>
  <path d="M192.04 46.24L192.04 46.24Q192.27 46.56 192.27 46.95L192.27 46.95Q192.27 47.57 191.78 47.99L191.78 47.99Q191.47 48.22 191.10 48.22L191.10 48.22Q190.53 48.22 190.17 47.75L190.17 47.75Q189.36 46.56 188.24 45.46Q187.13 44.37 185.89 43.51Q184.66 42.66 183.41 42.16L183.41 42.16Q183.23 42.08 183.09 42.21L183.09 42.21Q181.43 43.77 179.29 45.26Q177.14 46.74 174.44 47.96L174.44 47.96Q174.23 48.06 173.97 48.06L173.97 48.06Q173.55 48.06 173.22 47.75Q172.88 47.44 172.88 46.95L172.88 46.95Q172.88 46.56 173.10 46.22Q173.32 45.88 173.68 45.72L173.68 45.72Q176.21 44.61 178.22 43.19Q180.24 41.77 181.73 40.28Q183.23 38.78 184.21 37.42Q185.20 36.05 185.67 35.09L185.67 35.09Q186.19 33.97 186.19 33.37L186.19 33.37Q186.19 32.57 185.15 32.57L185.15 32.57Q184.99 32.57 184.82 32.57Q184.66 32.57 184.45 32.62L184.45 32.62Q183.56 32.75 182.08 32.88Q180.60 33.01 178.84 33.09Q177.09 33.17 175.40 33.17L175.40 33.17Q174.96 33.17 174.63 32.84Q174.31 32.52 174.31 32.05L174.31 32.05Q174.31 31.55 174.65 31.22Q174.98 30.88 175.48 30.88L175.48 30.88L176.65 30.88Q178.94 30.88 180.96 30.72Q182.99 30.57 184.11 30.36L184.11 30.36Q184.40 30.31 184.66 30.28Q184.92 30.25 185.18 30.25L185.18 30.25Q186.74 30.25 187.61 31.10Q188.48 31.94 188.48 33.35L188.48 33.35Q188.48 34.65 187.75 36.13L187.75 36.13Q187.33 36.99 186.68 37.98Q186.03 38.96 185.15 40.03L185.15 40.03Q185.10 40.08 185.10 40.19L185.10 40.19Q185.10 40.29 185.23 40.37L185.23 40.37Q186.53 41.02 187.80 41.99Q189.08 42.97 190.17 44.07Q191.26 45.18 192.04 46.24Z" fill="#33241D"/>
  <rect x="110.95" y="28.48" width="1.73" height="5.09" rx="0.87" fill="#B3492E" transform="rotate(35 111.82 31.02)"/>
  <rect x="112.96" y="27.64" width="1.7" height="4.59" rx="0.85" fill="#E58A64" transform="rotate(32 113.81 29.94)"/>
  <rect x="138.27" y="27.52" width="1.73" height="5.08" rx="0.86" fill="#B3492E" transform="rotate(35 139.13 30.06)"/>
  <rect x="140.27" y="26.69" width="1.69" height="4.58" rx="0.85" fill="#E58A64" transform="rotate(32 141.12 28.98)"/>
  <path d="M30.10 81.30L30.10 81.30Q36.50 81.30 41.65 84.05Q46.80 86.80 49.80 92.35Q52.80 97.90 52.80 106.20L52.80 106.20Q52.80 114.60 49.65 120.20Q46.50 125.80 40.85 128.60Q35.20 131.40 27.70 131.40L27.70 131.40Q22 131.40 17.75 130.05Q13.50 128.70 10.60 126.90L10.60 126.90Q8.50 125.40 7.55 123.85Q6.60 122.30 6.60 120L6.60 120L6.60 87.70L18.90 87.70L18.90 119.20Q20.20 120.10 22.45 120.85Q24.70 121.60 27.60 121.60L27.60 121.60Q33.30 121.60 36.75 117.80Q40.20 114 40.20 106.20L40.20 106.20Q40.20 98.30 36.80 94.70Q33.40 91.10 27.90 91.10L27.90 91.10Q24.40 91.10 21.70 92.40Q19 93.70 17.10 95.40L17.10 95.40L16.30 85.40Q18.60 84 22.05 82.65Q25.50 81.30 30.10 81.30ZM18.90 69.90L18.90 90.50L6.60 90.50L6.60 65Q7.40 64.80 8.90 64.50Q10.40 64.20 12.20 64.20L12.20 64.20Q15.70 64.20 17.30 65.45Q18.90 66.70 18.90 69.90L18.90 69.90Z" fill="#33241D"/>
  <path d="M61.80 111.90L61.80 111.90L61.80 104L74.10 104L74.10 111.70Q74.10 117 76.85 119.30Q79.60 121.60 84.50 121.60L84.50 121.60Q87.70 121.60 89.90 121Q92.10 120.40 93.20 119.70L93.20 119.70L93.20 104L105.50 104L105.50 120.70Q105.50 123 104.75 124.55Q104 126.10 101.90 127.40L101.90 127.40Q99 129.10 94.55 130.25Q90.10 131.40 84.40 131.40L84.40 131.40Q77.50 131.40 72.40 129.40Q67.30 127.40 64.55 123.05Q61.80 118.70 61.80 111.90ZM105.50 87.80L105.50 108.80L93.20 108.80L93.20 82.80Q94 82.60 95.55 82.35Q97.10 82.10 98.80 82.10L98.80 82.10Q102.30 82.10 103.90 83.30Q105.50 84.50 105.50 87.80L105.50 87.80ZM74.10 87.80L74.10 108.80L61.80 108.80L61.80 82.80Q62.60 82.60 64.10 82.35Q65.60 82.10 67.40 82.10L67.40 82.10Q70.90 82.10 72.50 83.30Q74.10 84.50 74.10 87.80L74.10 87.80Z" fill="#33241D"/>
  <path d="M148.10 119.60L148.10 119.60L148.10 88.20L160.40 88.20L160.40 120.90Q160.40 123.10 159.45 124.55Q158.50 126 156.40 127.30L156.40 127.30Q154 128.90 149.85 130.15Q145.70 131.40 140.40 131.40L140.40 131.40Q132.50 131.40 126.65 128.75Q120.80 126.10 117.60 120.55Q114.40 115 114.40 106.50L114.40 106.50Q114.40 97.80 117.65 92.20Q120.90 86.60 126.40 83.95Q131.90 81.30 138.60 81.30L138.60 81.30Q142.30 81.30 145.35 82.20Q148.40 83.10 150.30 84.30L150.30 84.30L150.30 94.80Q148.70 93.30 146.10 92.20Q143.50 91.10 140.10 91.10L140.10 91.10Q136.40 91.10 133.40 92.65Q130.40 94.20 128.70 97.65Q127 101.10 127 106.60L127 106.60Q127 114.40 130.60 118Q134.20 121.60 140.30 121.60L140.30 121.60Q143 121.60 144.90 121Q146.80 120.40 148.10 119.60ZM160.40 69.90L160.40 90.70L148.10 90.80L148.10 65Q148.80 64.80 150.35 64.50Q151.90 64.20 153.60 64.20L153.60 64.20Q157.20 64.20 158.80 65.45Q160.40 66.70 160.40 69.90L160.40 69.90Z" fill="#B3492E"/>
  <path d="M196.20 119.60L196.20 119.60L196.20 88.20L208.50 88.20L208.50 120.90Q208.50 123.10 207.55 124.55Q206.60 126 204.50 127.30L204.50 127.30Q202.10 128.90 197.95 130.15Q193.80 131.40 188.50 131.40L188.50 131.40Q180.60 131.40 174.75 128.75Q168.90 126.10 165.70 120.55Q162.50 115 162.50 106.50L162.50 106.50Q162.50 97.80 165.75 92.20Q169 86.60 174.50 83.95Q180 81.30 186.70 81.30L186.70 81.30Q190.40 81.30 193.45 82.20Q196.50 83.10 198.40 84.30L198.40 84.30L198.40 94.80Q196.80 93.30 194.20 92.20Q191.60 91.10 188.20 91.10L188.20 91.10Q184.50 91.10 181.50 92.65Q178.50 94.20 176.80 97.65Q175.10 101.10 175.10 106.60L175.10 106.60Q175.10 114.40 178.70 118Q182.30 121.60 188.40 121.60L188.40 121.60Q191.10 121.60 193 121Q194.90 120.40 196.20 119.60ZM208.50 69.90L208.50 90.70L196.20 90.80L196.20 65Q196.90 64.80 198.45 64.50Q200 64.20 201.70 64.20L201.70 64.20Q205.30 64.20 206.90 65.45Q208.50 66.70 208.50 69.90L208.50 69.90Z" fill="#B3492E"/>
  <path d="M219.40 68.60L219.40 68.60Q219.40 65.70 221.45 63.70Q223.50 61.70 226.60 61.70L226.60 61.70Q229.80 61.70 231.75 63.70Q233.70 65.70 233.70 68.60L233.70 68.60Q233.70 71.40 231.75 73.45Q229.80 75.50 226.60 75.50L226.60 75.50Q223.50 75.50 221.45 73.45Q219.40 71.40 219.40 68.60ZM220.40 124.90L220.40 103.60L232.80 103.60L232.80 129.80Q232 130.10 230.50 130.35Q229 130.60 227.20 130.60L227.20 130.60Q223.80 130.60 222.10 129.35Q220.40 128.10 220.40 124.90L220.40 124.90ZM232.80 88.10L232.80 109.90L220.40 109.90L220.40 83.10Q221.20 82.80 222.75 82.55Q224.30 82.30 226.10 82.30L226.10 82.30Q229.60 82.30 231.20 83.55Q232.80 84.80 232.80 88.10L232.80 88.10Z" fill="#33241D"/>
  <path d="M281.20 116.60L281.20 116.60Q281.20 123.60 276 127.55Q270.80 131.50 260.90 131.50L260.90 131.50Q252.90 131.50 247.80 129.10Q242.70 126.70 242.70 122.70L242.70 122.70Q242.70 121 243.50 119.55Q244.30 118.10 245.60 117.30L245.60 117.30Q248.40 119.10 252.10 120.50Q255.80 121.90 260.50 121.90L260.50 121.90Q269 121.90 269 116.70L269 116.70Q269 114.50 267.50 113.15Q266 111.80 262.90 111.20L262.90 111.20L257.20 109.70Q249.90 108.10 246.35 104.70Q242.80 101.30 242.80 95.60L242.80 95.60Q242.80 89.30 248 85.25Q253.20 81.20 262.40 81.20L262.40 81.20Q267.20 81.20 271 82.15Q274.80 83.10 276.95 84.90Q279.10 86.70 279.10 89.20L279.10 89.20Q279.10 90.90 278.35 92.25Q277.60 93.60 276.40 94.30L276.40 94.30Q275.20 93.60 273.15 92.75Q271.10 91.90 268.50 91.35Q265.90 90.80 263.30 90.80L263.30 90.80Q259.40 90.80 257.15 92.05Q254.90 93.30 254.90 95.60L254.90 95.60Q254.90 97.30 256.20 98.50Q257.50 99.70 260.60 100.40L260.60 100.40L265.70 101.60Q273.80 103.50 277.50 107.15Q281.20 110.80 281.20 116.60Z" fill="#33241D"/>
</svg>
