<svg xmlns="http://www.w3.org/2000/svg" viewBox="-12 14 279.24 211.35">
  <g transform="translate(84.88,30) scale(1.47) translate(-21,-22)">
    <rect x="32" y="24" width="13" height="36" rx="6.5" fill="#B3492E" transform="rotate(35 38.5 42)"/>
    <rect x="56.5" y="44" width="13" height="32" rx="6.5" fill="#E58A64" transform="rotate(32 63 60)"/>
  </g>
  <path d="M27.09 166.17L27.09 166.17Q32.85 166.17 37.48 168.65Q42.12 171.12 44.82 176.12Q47.52 181.11 47.52 188.58L47.52 188.58Q47.52 196.14 44.68 201.18Q41.85 206.22 36.77 208.74Q31.68 211.26 24.93 211.26L24.93 211.26Q19.80 211.26 15.97 210.04Q12.15 208.83 9.54 207.21L9.54 207.21Q7.65 205.86 6.79 204.47Q5.94 203.07 5.94 201L5.94 201L5.94 171.93L17.01 171.93L17.01 200.28Q18.18 201.09 20.20 201.76Q22.23 202.44 24.84 202.44L24.84 202.44Q29.97 202.44 33.07 199.02Q36.18 195.60 36.18 188.58L36.18 188.58Q36.18 181.47 33.12 178.23Q30.06 174.99 25.11 174.99L25.11 174.99Q21.96 174.99 19.53 176.16Q17.10 177.33 15.39 178.86L15.39 178.86L14.67 169.86Q16.74 168.60 19.84 167.38Q22.95 166.17 27.09 166.17ZM17.01 155.91L17.01 174.45L5.94 174.45L5.94 151.50Q6.66 151.32 8.01 151.05Q9.36 150.78 10.98 150.78L10.98 150.78Q14.13 150.78 15.57 151.91Q17.01 153.03 17.01 155.91L17.01 155.91Z" fill="#33241D"/>
  <path d="M55.62 193.71L55.62 193.71L55.62 186.60L66.69 186.60L66.69 193.53Q66.69 198.30 69.16 200.37Q71.64 202.44 76.05 202.44L76.05 202.44Q78.93 202.44 80.91 201.90Q82.89 201.36 83.88 200.73L83.88 200.73L83.88 186.60L94.95 186.60L94.95 201.63Q94.95 203.70 94.28 205.09Q93.60 206.49 91.71 207.66L91.71 207.66Q89.10 209.19 85.09 210.22Q81.09 211.26 75.96 211.26L75.96 211.26Q69.75 211.26 65.16 209.46Q60.57 207.66 58.09 203.75Q55.62 199.83 55.62 193.71ZM94.95 172.02L94.95 190.92L83.88 190.92L83.88 167.52Q84.60 167.34 86.00 167.12Q87.39 166.89 88.92 166.89L88.92 166.89Q92.07 166.89 93.51 167.97Q94.95 169.05 94.95 172.02L94.95 172.02ZM66.69 172.02L66.69 190.92L55.62 190.92L55.62 167.52Q56.34 167.34 57.69 167.12Q59.04 166.89 60.66 166.89L60.66 166.89Q63.81 166.89 65.25 167.97Q66.69 169.05 66.69 172.02L66.69 172.02Z" fill="#33241D"/>
  <path d="M133.29 200.64L133.29 200.64L133.29 172.38L144.36 172.38L144.36 201.81Q144.36 203.79 143.50 205.09Q142.65 206.40 140.76 207.57L140.76 207.57Q138.60 209.01 134.87 210.13Q131.13 211.26 126.36 211.26L126.36 211.26Q119.25 211.26 113.98 208.88Q108.72 206.49 105.84 201.50Q102.96 196.50 102.96 188.85L102.96 188.85Q102.96 181.02 105.89 175.98Q108.81 170.94 113.76 168.56Q118.71 166.17 124.74 166.17L124.74 166.17Q128.07 166.17 130.81 166.98Q133.56 167.79 135.27 168.87L135.27 168.87L135.27 178.32Q133.83 176.97 131.49 175.98Q129.15 174.99 126.09 174.99L126.09 174.99Q122.76 174.99 120.06 176.38Q117.36 177.78 115.83 180.88Q114.30 183.99 114.30 188.94L114.30 188.94Q114.30 195.96 117.54 199.20Q120.78 202.44 126.27 202.44L126.27 202.44Q128.70 202.44 130.41 201.90Q132.12 201.36 133.29 200.64ZM144.36 155.91L144.36 174.63L133.29 174.72L133.29 151.50Q133.92 151.32 135.31 151.05Q136.71 150.78 138.24 150.78L138.24 150.78Q141.48 150.78 142.92 151.91Q144.36 153.03 144.36 155.91L144.36 155.91Z" fill="#B3492E"/>
  <path d="M176.58 200.64L176.58 200.64L176.58 172.38L187.65 172.38L187.65 201.81Q187.65 203.79 186.79 205.09Q185.94 206.40 184.05 207.57L184.05 207.57Q181.89 209.01 178.15 210.13Q174.42 211.26 169.65 211.26L169.65 211.26Q162.54 211.26 157.27 208.88Q152.01 206.49 149.13 201.50Q146.25 196.50 146.25 188.85L146.25 188.85Q146.25 181.02 149.17 175.98Q152.10 170.94 157.05 168.56Q162.00 166.17 168.03 166.17L168.03 166.17Q171.36 166.17 174.10 166.98Q176.85 167.79 178.56 168.87L178.56 168.87L178.56 178.32Q177.12 176.97 174.78 175.98Q172.44 174.99 169.38 174.99L169.38 174.99Q166.05 174.99 163.35 176.38Q160.65 177.78 159.12 180.88Q157.59 183.99 157.59 188.94L157.59 188.94Q157.59 195.96 160.83 199.20Q164.07 202.44 169.56 202.44L169.56 202.44Q171.99 202.44 173.70 201.90Q175.41 201.36 176.58 200.64ZM187.65 155.91L187.65 174.63L176.58 174.72L176.58 151.50Q177.21 151.32 178.60 151.05Q180.00 150.78 181.53 150.78L181.53 150.78Q184.77 150.78 186.21 151.91Q187.65 153.03 187.65 155.91L187.65 155.91Z" fill="#B3492E"/>
  <path d="M197.46 154.74L197.46 154.74Q197.46 152.13 199.30 150.33Q201.15 148.53 203.94 148.53L203.94 148.53Q206.82 148.53 208.57 150.33Q210.33 152.13 210.33 154.74L210.33 154.74Q210.33 157.26 208.57 159.11Q206.82 160.95 203.94 160.95L203.94 160.95Q201.15 160.95 199.30 159.11Q197.46 157.26 197.46 154.74ZM198.36 205.41L198.36 186.24L209.52 186.24L209.52 209.82Q208.80 210.09 207.45 210.31Q206.10 210.54 204.48 210.54L204.48 210.54Q201.42 210.54 199.89 209.41Q198.36 208.29 198.36 205.41L198.36 205.41ZM209.52 172.29L209.52 191.91L198.36 191.91L198.36 167.79Q199.08 167.52 200.47 167.30Q201.87 167.07 203.49 167.07L203.49 167.07Q206.64 167.07 208.08 168.19Q209.52 169.32 209.52 172.29L209.52 172.29Z" fill="#33241D"/>
  <path d="M253.08 197.94L253.08 197.94Q253.08 204.24 248.40 207.79Q243.72 211.35 234.81 211.35L234.81 211.35Q227.61 211.35 223.02 209.19Q218.43 207.03 218.43 203.43L218.43 203.43Q218.43 201.90 219.15 200.59Q219.87 199.29 221.04 198.57L221.04 198.57Q223.56 200.19 226.89 201.45Q230.22 202.71 234.45 202.71L234.45 202.71Q242.10 202.71 242.10 198.03L242.10 198.03Q242.10 196.05 240.75 194.84Q239.40 193.62 236.61 193.08L236.61 193.08L231.48 191.73Q224.91 190.29 221.71 187.23Q218.52 184.17 218.52 179.04L218.52 179.04Q218.52 173.37 223.20 169.72Q227.88 166.08 236.16 166.08L236.16 166.08Q240.48 166.08 243.90 166.94Q247.32 167.79 249.25 169.41Q251.19 171.03 251.19 173.28L251.19 173.28Q251.19 174.81 250.51 176.03Q249.84 177.24 248.76 177.87L248.76 177.87Q247.68 177.24 245.83 176.47Q243.99 175.71 241.65 175.22Q239.31 174.72 236.97 174.72L236.97 174.72Q233.46 174.72 231.43 175.84Q229.41 176.97 229.41 179.04L229.41 179.04Q229.41 180.57 230.58 181.65Q231.75 182.73 234.54 183.36L234.54 183.36L239.13 184.44Q246.42 186.15 249.75 189.44Q253.08 192.72 253.08 197.94Z" fill="#33241D"/>
</svg>
