<svg xmlns="http://www.w3.org/2000/svg" viewBox="-8 23.7 455.6 86.91">
  <path d="M30.10 51.30L30.10 51.30Q36.50 51.30 41.65 54.05Q46.80 56.80 49.80 62.35Q52.80 67.90 52.80 76.20L52.80 76.20Q52.80 84.60 49.65 90.20Q46.50 95.80 40.85 98.60Q35.20 101.40 27.70 101.40L27.70 101.40Q22 101.40 17.75 100.05Q13.50 98.70 10.60 96.90L10.60 96.90Q8.50 95.40 7.55 93.85Q6.60 92.30 6.60 90L6.60 90L6.60 57.70L18.90 57.70L18.90 89.20Q20.20 90.10 22.45 90.85Q24.70 91.60 27.60 91.60L27.60 91.60Q33.30 91.60 36.75 87.80Q40.20 84 40.20 76.20L40.20 76.20Q40.20 68.30 36.80 64.70Q33.40 61.10 27.90 61.10L27.90 61.10Q24.40 61.10 21.70 62.40Q19 63.70 17.10 65.40L17.10 65.40L16.30 55.40Q18.60 54 22.05 52.65Q25.50 51.30 30.10 51.30ZM18.90 39.90L18.90 60.50L6.60 60.50L6.60 35Q7.40 34.80 8.90 34.50Q10.40 34.20 12.20 34.20L12.20 34.20Q15.70 34.20 17.30 35.45Q18.90 36.70 18.90 39.90L18.90 39.90Z" fill="#33241D"/>
  <path d="M61.80 81.90L61.80 81.90L61.80 74L74.10 74L74.10 81.70Q74.10 87 76.85 89.30Q79.60 91.60 84.50 91.60L84.50 91.60Q87.70 91.60 89.90 91Q92.10 90.40 93.20 89.70L93.20 89.70L93.20 74L105.50 74L105.50 90.70Q105.50 93 104.75 94.55Q104 96.10 101.90 97.40L101.90 97.40Q99 99.10 94.55 100.25Q90.10 101.40 84.40 101.40L84.40 101.40Q77.50 101.40 72.40 99.40Q67.30 97.40 64.55 93.05Q61.80 88.70 61.80 81.90ZM105.50 57.80L105.50 78.80L93.20 78.80L93.20 52.80Q94 52.60 95.55 52.35Q97.10 52.10 98.80 52.10L98.80 52.10Q102.30 52.10 103.90 53.30Q105.50 54.50 105.50 57.80L105.50 57.80ZM74.10 57.80L74.10 78.80L61.80 78.80L61.80 52.80Q62.60 52.60 64.10 52.35Q65.60 52.10 67.40 52.10L67.40 52.10Q70.90 52.10 72.50 53.30Q74.10 54.50 74.10 57.80L74.10 57.80Z" fill="#33241D"/>
  <path d="M148.10 89.60L148.10 89.60L148.10 58.20L160.40 58.20L160.40 90.90Q160.40 93.10 159.45 94.55Q158.50 96 156.40 97.30L156.40 97.30Q154 98.90 149.85 100.15Q145.70 101.40 140.40 101.40L140.40 101.40Q132.50 101.40 126.65 98.75Q120.80 96.10 117.60 90.55Q114.40 85 114.40 76.50L114.40 76.50Q114.40 67.80 117.65 62.20Q120.90 56.60 126.40 53.95Q131.90 51.30 138.60 51.30L138.60 51.30Q142.30 51.30 145.35 52.20Q148.40 53.10 150.30 54.30L150.30 54.30L150.30 64.80Q148.70 63.30 146.10 62.20Q143.50 61.10 140.10 61.10L140.10 61.10Q136.40 61.10 133.40 62.65Q130.40 64.20 128.70 67.65Q127 71.10 127 76.60L127 76.60Q127 84.40 130.60 88Q134.20 91.60 140.30 91.60L140.30 91.60Q143 91.60 144.90 91Q146.80 90.40 148.10 89.60ZM160.40 39.90L160.40 60.70L148.10 60.80L148.10 35Q148.80 34.80 150.35 34.50Q151.90 34.20 153.60 34.20L153.60 34.20Q157.20 34.20 158.80 35.45Q160.40 36.70 160.40 39.90L160.40 39.90Z" fill="#B3492E"/>
  <path d="M196.20 89.60L196.20 89.60L196.20 58.20L208.50 58.20L208.50 90.90Q208.50 93.10 207.55 94.55Q206.60 96 204.50 97.30L204.50 97.30Q202.10 98.90 197.95 100.15Q193.80 101.40 188.50 101.40L188.50 101.40Q180.60 101.40 174.75 98.75Q168.90 96.10 165.70 90.55Q162.50 85 162.50 76.50L162.50 76.50Q162.50 67.80 165.75 62.20Q169 56.60 174.50 53.95Q180 51.30 186.70 51.30L186.70 51.30Q190.40 51.30 193.45 52.20Q196.50 53.10 198.40 54.30L198.40 54.30L198.40 64.80Q196.80 63.30 194.20 62.20Q191.60 61.10 188.20 61.10L188.20 61.10Q184.50 61.10 181.50 62.65Q178.50 64.20 176.80 67.65Q175.10 71.10 175.10 76.60L175.10 76.60Q175.10 84.40 178.70 88Q182.30 91.60 188.40 91.60L188.40 91.60Q191.10 91.60 193 91Q194.90 90.40 196.20 89.60ZM208.50 39.90L208.50 60.70L196.20 60.80L196.20 35Q196.90 34.80 198.45 34.50Q200 34.20 201.70 34.20L201.70 34.20Q205.30 34.20 206.90 35.45Q208.50 36.70 208.50 39.90L208.50 39.90Z" fill="#B3492E"/>
  <path d="M219.40 38.60L219.40 38.60Q219.40 35.70 221.45 33.70Q223.50 31.70 226.60 31.70L226.60 31.70Q229.80 31.70 231.75 33.70Q233.70 35.70 233.70 38.60L233.70 38.60Q233.70 41.40 231.75 43.45Q229.80 45.50 226.60 45.50L226.60 45.50Q223.50 45.50 221.45 43.45Q219.40 41.40 219.40 38.60ZM220.40 94.90L220.40 73.60L232.80 73.60L232.80 99.80Q232 100.10 230.50 100.35Q229 100.60 227.20 100.60L227.20 100.60Q223.80 100.60 222.10 99.35Q220.40 98.10 220.40 94.90L220.40 94.90ZM232.80 58.10L232.80 79.90L220.40 79.90L220.40 53.10Q221.20 52.80 222.75 52.55Q224.30 52.30 226.10 52.30L226.10 52.30Q229.60 52.30 231.20 53.55Q232.80 54.80 232.80 58.10L232.80 58.10Z" fill="#33241D"/>
  <path d="M281.20 86.60L281.20 86.60Q281.20 93.60 276 97.55Q270.80 101.50 260.90 101.50L260.90 101.50Q252.90 101.50 247.80 99.10Q242.70 96.70 242.70 92.70L242.70 92.70Q242.70 91 243.50 89.55Q244.30 88.10 245.60 87.30L245.60 87.30Q248.40 89.10 252.10 90.50Q255.80 91.90 260.50 91.90L260.50 91.90Q269 91.90 269 86.70L269 86.70Q269 84.50 267.50 83.15Q266 81.80 262.90 81.20L262.90 81.20L257.20 79.70Q249.90 78.10 246.35 74.70Q242.80 71.30 242.80 65.60L242.80 65.60Q242.80 59.30 248 55.25Q253.20 51.20 262.40 51.20L262.40 51.20Q267.20 51.20 271 52.15Q274.80 53.10 276.95 54.90Q279.10 56.70 279.10 59.20L279.10 59.20Q279.10 60.90 278.35 62.25Q277.60 63.60 276.40 64.30L276.40 64.30Q275.20 63.60 273.15 62.75Q271.10 61.90 268.50 61.35Q265.90 60.80 263.30 60.80L263.30 60.80Q259.40 60.80 257.15 62.05Q254.90 63.30 254.90 65.60L254.90 65.60Q254.90 67.30 256.20 68.50Q257.50 69.70 260.60 70.40L260.60 70.40L265.70 71.60Q273.80 73.50 277.50 77.15Q281.20 80.80 281.20 86.60Z" fill="#33241D"/>
  <path d="M362.98 96.27L362.98 96.27Q364.92 97.21 364.92 99.37L364.92 99.37Q364.92 100.52 364.09 101.31Q363.26 102.10 362.26 102.10L362.26 102.10Q361.75 102.10 361.18 101.89L361.18 101.89Q353.11 98.14 347.71 91.70Q342.31 85.26 340.58 77.41L340.58 77.41Q340.44 77.05 340.15 77.05L340.15 77.05L335.76 77.05Q335.33 77.05 335.33 77.48L335.33 77.48L335.33 94.33Q335.33 94.83 335.83 94.69L335.83 94.69Q337.99 94.18 339.83 93.46Q341.66 92.74 343.25 91.81L343.25 91.81Q343.97 91.45 344.54 91.45L344.54 91.45Q346.34 91.45 347.06 93.18L347.06 93.18Q347.28 93.82 347.28 94.40L347.28 94.40Q347.28 96.78 345.34 97.71L345.34 97.71Q343.10 98.86 340.12 99.84Q337.13 100.81 333.96 101.38L333.96 101.38Q333.74 101.46 333.24 101.46L333.24 101.46Q331.58 101.46 330.36 100.23Q329.14 99.01 329.14 97.21L329.14 97.21L329.14 77.48Q329.14 77.05 328.70 77.05L328.70 77.05L327.77 77.05Q326.76 77.05 325.97 76.40L325.97 76.40Q325.46 76.04 325.46 76.62L325.46 76.62L325.46 82.09Q325.46 85.83 324.13 87.56Q322.80 89.29 319.70 89.36L319.70 89.36Q318.62 89.36 317.83 88.78L317.83 88.78Q317.33 88.42 317.33 89L317.33 89L317.33 99.66Q317.33 100.81 316.46 101.71Q315.60 102.61 314.38 102.61L314.38 102.61Q313.22 102.61 312.32 101.74Q311.42 100.88 311.42 99.66L311.42 99.66L311.42 58.11Q311.42 57.68 310.99 57.68L310.99 57.68L309.62 57.68Q309.19 57.68 309.19 58.11L309.19 58.11L309.19 87.13Q309.19 88.35 308.33 89.22Q307.46 90.08 306.24 90.08L306.24 90.08Q305.09 90.08 304.19 89.22Q303.29 88.35 303.29 87.13L303.29 87.13L303.29 55.81Q303.29 54.01 304.58 52.71Q305.88 51.42 307.68 51.42L307.68 51.42L310.99 51.42Q311.42 51.42 311.42 50.98L311.42 50.98L311.42 42.70Q311.42 41.48 312.29 40.62Q313.15 39.75 314.38 39.75L314.38 39.75Q315.60 39.75 316.46 40.62Q317.33 41.48 317.33 42.70L317.33 42.70L317.33 50.98Q317.33 51.42 317.76 51.42L317.76 51.42L321.07 51.42Q322.87 51.42 324.17 52.68Q325.46 53.94 325.46 55.81L325.46 55.81L325.46 71.58Q325.46 72.22 325.97 71.72L325.97 71.72Q326.76 71.14 327.77 71.14L327.77 71.14L329.57 71.14Q330 71.14 330 70.71L330 70.71L330 47.10Q330 45.15 331.37 43.75Q332.74 42.34 334.75 42.34L334.75 42.34L358.15 42.34Q359.38 42.34 360.28 43.24Q361.18 44.14 361.18 45.37L361.18 45.37Q361.18 46.52 360.28 47.42Q359.38 48.32 358.15 48.32L358.15 48.32L336.48 48.32Q336.05 48.32 336.05 48.75L336.05 48.75L336.05 51.63Q336.05 52.06 336.48 52.06L336.48 52.06L355.34 52.06Q356.57 52.06 357.43 52.93Q358.30 53.79 358.30 55.02L358.30 55.02Q358.30 56.24 357.43 57.14Q356.57 58.04 355.34 58.04L355.34 58.04L336.48 58.04Q336.05 58.04 336.05 58.47L336.05 58.47L336.05 61.14Q336.05 61.57 336.48 61.57L336.48 61.57L355.34 61.57Q356.57 61.57 357.43 62.47Q358.30 63.37 358.30 64.59L358.30 64.59Q358.30 65.74 357.43 66.64Q356.57 67.54 355.34 67.54L355.34 67.54L336.48 67.54Q336.05 67.54 336.05 67.98L336.05 67.98L336.05 70.71Q336.05 71.14 336.48 71.14L336.48 71.14L361.46 71.14Q362.69 71.14 363.55 72.01Q364.42 72.87 364.42 74.10L364.42 74.10Q364.42 75.25 363.55 76.15Q362.69 77.05 361.46 77.05L361.46 77.05L347.06 77.05Q346.56 77.05 346.70 77.55L346.70 77.55Q347.78 81.15 349.66 84.32L349.66 84.32Q349.87 84.68 350.23 84.46L350.23 84.46Q355.27 82.95 359.81 79.64L359.81 79.64Q360.60 79.06 361.46 79.06L361.46 79.06Q362.83 79.06 363.62 80.29L363.62 80.29Q364.20 81.22 364.20 82.16L364.20 82.16Q364.20 83.60 363.12 84.46L363.12 84.46Q361.32 86.05 358.87 87.27Q356.42 88.50 354.12 89.29L354.12 89.29Q353.62 89.50 353.98 89.86L353.98 89.86Q357.79 93.68 362.98 96.27ZM319.63 83.31L319.63 83.31L319.63 58.11Q319.63 57.68 319.20 57.68L319.20 57.68L317.76 57.68Q317.33 57.68 317.33 58.11L317.33 58.11L317.33 83.67Q317.33 83.89 317.47 84.00Q317.62 84.10 317.83 83.96L317.83 83.96Q318.48 83.60 319.34 83.53L319.34 83.53Q319.63 83.53 319.63 83.31Z" fill="#9A5A40"/>
  <path d="M394.52 50.12L394.52 47.38Q394.52 46.95 394.09 46.95L394.09 46.95L378.10 46.95Q376.95 46.95 376.05 46.09Q375.15 45.22 375.15 44.00L375.15 44.00Q375.15 42.78 376.05 41.95Q376.95 41.12 378.10 41.12L378.10 41.12L431.10 41.12Q432.32 41.12 433.15 41.95Q433.98 42.78 433.98 44.00L433.98 44.00Q433.98 45.15 433.15 46.05Q432.32 46.95 431.10 46.95L431.10 46.95L415.11 46.95Q414.68 46.95 414.68 47.38L414.68 47.38L414.68 50.12Q414.68 50.55 415.11 50.55L415.11 50.55L424.11 50.55Q426.06 50.55 427.46 51.92Q428.86 53.29 428.86 55.30L428.86 55.30L428.86 63.15Q428.86 65.02 427.50 66.46Q426.13 67.90 424.11 67.90L424.11 67.90L385.09 67.90Q383.14 67.90 381.74 66.50Q380.34 65.10 380.34 63.15L380.34 63.15L380.34 55.30Q380.34 53.36 381.74 51.96Q383.14 50.55 385.09 50.55L385.09 50.55L394.09 50.55Q394.52 50.55 394.52 50.12L394.52 50.12ZM400.71 47.38L400.71 50.12Q400.71 50.55 401.14 50.55L401.14 50.55L408.06 50.55Q408.49 50.55 408.49 50.12L408.49 50.12L408.49 47.38Q408.49 46.95 408.06 46.95L408.06 46.95L401.14 46.95Q400.71 46.95 400.71 47.38L400.71 47.38ZM394.52 61.57L394.52 56.82Q394.52 56.38 394.09 56.38L394.09 56.38L387.03 56.38Q386.60 56.38 386.60 56.82L386.60 56.82L386.60 61.57Q386.60 62.00 387.03 62.00L387.03 62.00L394.09 62.00Q394.52 62.00 394.52 61.57L394.52 61.57ZM408.49 61.57L408.49 56.82Q408.49 56.38 408.06 56.38L408.06 56.38L401.14 56.38Q400.71 56.38 400.71 56.82L400.71 56.82L400.71 61.57Q400.71 62.00 401.14 62.00L401.14 62.00L408.06 62.00Q408.49 62.00 408.49 61.57L408.49 61.57ZM415.11 62.00L422.17 62.00Q422.60 62.00 422.60 61.57L422.60 61.57L422.60 56.82Q422.60 56.38 422.17 56.38L422.17 56.38L415.11 56.38Q414.68 56.38 414.68 56.82L414.68 56.82L414.68 61.57Q414.68 62.00 415.11 62.00L415.11 62.00ZM385.23 70.57L385.23 70.57L423.97 70.57Q425.19 70.57 426.09 71.47Q426.99 72.37 426.99 73.66L426.99 73.66Q426.99 74.82 426.13 75.75Q425.26 76.69 423.97 76.69L423.97 76.69L385.23 76.69Q384.01 76.69 383.11 75.79Q382.21 74.89 382.21 73.66L382.21 73.66Q382.21 72.37 383.11 71.47Q384.01 70.57 385.23 70.57ZM431.46 85.76L431.46 85.76L408.20 85.76Q407.77 85.76 407.77 86.19L407.77 86.19L407.77 95.55Q407.77 103.11 395.38 102.32L395.38 102.32Q394.09 102.25 393.26 101.31Q392.43 100.38 392.43 99.22L392.43 99.22Q392.43 97.78 393.40 96.85Q394.38 95.91 395.74 95.98L395.74 95.98Q396.68 96.06 397.47 96.09Q398.26 96.13 398.84 96.13L398.84 96.13Q401.50 96.13 401.50 95.55L401.50 95.55L401.50 86.19Q401.50 85.76 401.07 85.76L401.07 85.76L377.74 85.76Q376.52 85.76 375.62 84.82Q374.72 83.89 374.72 82.74L374.72 82.74Q374.72 81.44 375.62 80.54Q376.52 79.64 377.74 79.64L377.74 79.64L431.46 79.64Q432.68 79.64 433.58 80.54Q434.48 81.44 434.48 82.74L434.48 82.74Q434.48 83.96 433.58 84.86Q432.68 85.76 431.46 85.76ZM394.52 91.30L394.52 91.30Q391.21 94.69 387.07 97.28Q382.93 99.87 378.46 101.38L378.46 101.38Q378.18 101.46 377.96 101.49Q377.74 101.53 377.46 101.53L377.46 101.53Q376.30 101.53 375.33 100.66Q374.36 99.80 374.36 98.36L374.36 98.36Q374.36 96.20 376.52 95.34L376.52 95.34Q380.19 94.11 383.61 92.02Q387.03 89.94 389.48 87.49L389.48 87.49Q390.63 86.34 392.14 86.34L392.14 86.34Q393.22 86.34 394.09 86.98L394.09 86.98Q395.31 87.85 395.31 89.36L395.31 89.36Q395.31 90.37 394.52 91.30ZM432.54 95.34L432.54 95.34Q434.77 96.13 434.77 98.36L434.77 98.36Q434.77 98.65 434.73 98.86Q434.70 99.08 434.62 99.30L434.62 99.30Q434.34 100.30 433.51 100.92Q432.68 101.53 431.67 101.53L431.67 101.53Q431.38 101.53 431.17 101.49Q430.95 101.46 430.66 101.38L430.66 101.38Q426.27 99.87 422.10 97.28Q417.92 94.69 414.61 91.30L414.61 91.30Q413.82 90.51 413.82 89.36L413.82 89.36Q413.82 87.85 415.04 86.98L415.04 86.98Q415.90 86.34 416.98 86.34L416.98 86.34Q418.50 86.34 419.65 87.49L419.65 87.49Q422.17 89.94 425.55 92.02Q428.94 94.11 432.54 95.34Z" fill="#9A5A40"/>
</svg>
