<svg xmlns="http://www.w3.org/2000/svg" viewBox="-8 21.7 371.49 89.8">
  <g transform="translate(0,36.59) scale(1.05) translate(-21,-22)">
    <rect x="32" y="24" width="13" height="36" rx="6.5" fill="#B3492E" transform="rotate(35 38.5 42)"/>
    <rect x="56.5" y="44" width="13" height="32" rx="6.5" fill="#E58A64" transform="rotate(32 63 60)"/>
  </g>
  <path d="M101.99 51.30L101.99 51.30Q108.39 51.30 113.54 54.05Q118.69 56.80 121.69 62.35Q124.69 67.90 124.69 76.20L124.69 76.20Q124.69 84.60 121.54 90.20Q118.39 95.80 112.74 98.60Q107.09 101.40 99.59 101.40L99.59 101.40Q93.89 101.40 89.64 100.05Q85.39 98.70 82.49 96.90L82.49 96.90Q80.39 95.40 79.44 93.85Q78.49 92.30 78.49 90L78.49 90L78.49 57.70L90.79 57.70L90.79 89.20Q92.09 90.10 94.34 90.85Q96.59 91.60 99.49 91.60L99.49 91.60Q105.19 91.60 108.64 87.80Q112.09 84 112.09 76.20L112.09 76.20Q112.09 68.30 108.69 64.70Q105.29 61.10 99.79 61.10L99.79 61.10Q96.29 61.10 93.59 62.40Q90.89 63.70 88.99 65.40L88.99 65.40L88.19 55.40Q90.49 54 93.94 52.65Q97.39 51.30 101.99 51.30ZM90.79 39.90L90.79 60.50L78.49 60.50L78.49 35Q79.29 34.80 80.79 34.50Q82.29 34.20 84.09 34.20L84.09 34.20Q87.59 34.20 89.19 35.45Q90.79 36.70 90.79 39.90L90.79 39.90Z" fill="#33241D"/>
  <path d="M133.69 81.90L133.69 81.90L133.69 74L145.99 74L145.99 81.70Q145.99 87 148.74 89.30Q151.49 91.60 156.39 91.60L156.39 91.60Q159.59 91.60 161.79 91Q163.99 90.40 165.09 89.70L165.09 89.70L165.09 74L177.39 74L177.39 90.70Q177.39 93 176.64 94.55Q175.89 96.10 173.79 97.40L173.79 97.40Q170.89 99.10 166.44 100.25Q161.99 101.40 156.29 101.40L156.29 101.40Q149.39 101.40 144.29 99.40Q139.19 97.40 136.44 93.05Q133.69 88.70 133.69 81.90ZM177.39 57.80L177.39 78.80L165.09 78.80L165.09 52.80Q165.89 52.60 167.44 52.35Q168.99 52.10 170.69 52.10L170.69 52.10Q174.19 52.10 175.79 53.30Q177.39 54.50 177.39 57.80L177.39 57.80ZM145.99 57.80L145.99 78.80L133.69 78.80L133.69 52.80Q134.49 52.60 135.99 52.35Q137.49 52.10 139.29 52.10L139.29 52.10Q142.79 52.10 144.39 53.30Q145.99 54.50 145.99 57.80L145.99 57.80Z" fill="#33241D"/>
  <path d="M219.99 89.60L219.99 89.60L219.99 58.20L232.29 58.20L232.29 90.90Q232.29 93.10 231.34 94.55Q230.39 96 228.29 97.30L228.29 97.30Q225.89 98.90 221.74 100.15Q217.59 101.40 212.29 101.40L212.29 101.40Q204.39 101.40 198.54 98.75Q192.69 96.10 189.49 90.55Q186.29 85 186.29 76.50L186.29 76.50Q186.29 67.80 189.54 62.20Q192.79 56.60 198.29 53.95Q203.79 51.30 210.49 51.30L210.49 51.30Q214.19 51.30 217.24 52.20Q220.29 53.10 222.19 54.30L222.19 54.30L222.19 64.80Q220.59 63.30 217.99 62.20Q215.39 61.10 211.99 61.10L211.99 61.10Q208.29 61.10 205.29 62.65Q202.29 64.20 200.59 67.65Q198.89 71.10 198.89 76.60L198.89 76.60Q198.89 84.40 202.49 88Q206.09 91.60 212.19 91.60L212.19 91.60Q214.89 91.60 216.79 91Q218.69 90.40 219.99 89.60ZM232.29 39.90L232.29 60.70L219.99 60.80L219.99 35Q220.69 34.80 222.24 34.50Q223.79 34.20 225.49 34.20L225.49 34.20Q229.09 34.20 230.69 35.45Q232.29 36.70 232.29 39.90L232.29 39.90Z" fill="#B3492E"/>
  <path d="M268.09 89.60L268.09 89.60L268.09 58.20L280.39 58.20L280.39 90.90Q280.39 93.10 279.44 94.55Q278.49 96 276.39 97.30L276.39 97.30Q273.99 98.90 269.84 100.15Q265.69 101.40 260.39 101.40L260.39 101.40Q252.49 101.40 246.64 98.75Q240.79 96.10 237.59 90.55Q234.39 85 234.39 76.50L234.39 76.50Q234.39 67.80 237.64 62.20Q240.89 56.60 246.39 53.95Q251.89 51.30 258.59 51.30L258.59 51.30Q262.29 51.30 265.34 52.20Q268.39 53.10 270.29 54.30L270.29 54.30L270.29 64.80Q268.69 63.30 266.09 62.20Q263.49 61.10 260.09 61.10L260.09 61.10Q256.39 61.10 253.39 62.65Q250.39 64.20 248.69 67.65Q246.99 71.10 246.99 76.60L246.99 76.60Q246.99 84.40 250.59 88Q254.19 91.60 260.29 91.60L260.29 91.60Q262.99 91.60 264.89 91Q266.79 90.40 268.09 89.60ZM280.39 39.90L280.39 60.70L268.09 60.80L268.09 35Q268.79 34.80 270.34 34.50Q271.89 34.20 273.59 34.20L273.59 34.20Q277.19 34.20 278.79 35.45Q280.39 36.70 280.39 39.90L280.39 39.90Z" fill="#B3492E"/>
  <path d="M291.29 38.60L291.29 38.60Q291.29 35.70 293.34 33.70Q295.39 31.70 298.49 31.70L298.49 31.70Q301.69 31.70 303.64 33.70Q305.59 35.70 305.59 38.60L305.59 38.60Q305.59 41.40 303.64 43.45Q301.69 45.50 298.49 45.50L298.49 45.50Q295.39 45.50 293.34 43.45Q291.29 41.40 291.29 38.60ZM292.29 94.90L292.29 73.60L304.69 73.60L304.69 99.80Q303.89 100.10 302.39 100.35Q300.89 100.60 299.09 100.60L299.09 100.60Q295.69 100.60 293.99 99.35Q292.29 98.10 292.29 94.90L292.29 94.90ZM304.69 58.10L304.69 79.90L292.29 79.90L292.29 53.10Q293.09 52.80 294.64 52.55Q296.19 52.30 297.99 52.30L297.99 52.30Q301.49 52.30 303.09 53.55Q304.69 54.80 304.69 58.10L304.69 58.10Z" fill="#33241D"/>
  <path d="M353.09 86.60L353.09 86.60Q353.09 93.60 347.89 97.55Q342.69 101.50 332.79 101.50L332.79 101.50Q324.79 101.50 319.69 99.10Q314.59 96.70 314.59 92.70L314.59 92.70Q314.59 91 315.39 89.55Q316.19 88.10 317.49 87.30L317.49 87.30Q320.29 89.10 323.99 90.50Q327.69 91.90 332.39 91.90L332.39 91.90Q340.89 91.90 340.89 86.70L340.89 86.70Q340.89 84.50 339.39 83.15Q337.89 81.80 334.79 81.20L334.79 81.20L329.09 79.70Q321.79 78.10 318.24 74.70Q314.69 71.30 314.69 65.60L314.69 65.60Q314.69 59.30 319.89 55.25Q325.09 51.20 334.29 51.20L334.29 51.20Q339.09 51.20 342.89 52.15Q346.69 53.10 348.84 54.90Q350.99 56.70 350.99 59.20L350.99 59.20Q350.99 60.90 350.24 62.25Q349.49 63.60 348.29 64.30L348.29 64.30Q347.09 63.60 345.04 62.75Q342.99 61.90 340.39 61.35Q337.79 60.80 335.19 60.80L335.19 60.80Q331.29 60.80 329.04 62.05Q326.79 63.30 326.79 65.60L326.79 65.60Q326.79 67.30 328.09 68.50Q329.39 69.70 332.49 70.40L332.49 70.40L337.59 71.60Q345.69 73.50 349.39 77.15Q353.09 80.80 353.09 86.60Z" fill="#33241D"/>
</svg>
