<svg xmlns="http://www.w3.org/2000/svg" viewBox="-8 23.7 455.6 86.76">
  <path d="M30.10 51.30L30.10 51.30Q36.50 51.30 41.65 54.05Q46.80 56.80 49.80 62.35Q52.80 67.90 52.80 76.20L52.80 76.20Q52.80 84.60 49.65 90.20Q46.50 95.80 40.85 98.60Q35.20 101.40 27.70 101.40L27.70 101.40Q22 101.40 17.75 100.05Q13.50 98.70 10.60 96.90L10.60 96.90Q8.50 95.40 7.55 93.85Q6.60 92.30 6.60 90L6.60 90L6.60 57.70L18.90 57.70L18.90 89.20Q20.20 90.10 22.45 90.85Q24.70 91.60 27.60 91.60L27.60 91.60Q33.30 91.60 36.75 87.80Q40.20 84 40.20 76.20L40.20 76.20Q40.20 68.30 36.80 64.70Q33.40 61.10 27.90 61.10L27.90 61.10Q24.40 61.10 21.70 62.40Q19 63.70 17.10 65.40L17.10 65.40L16.30 55.40Q18.60 54 22.05 52.65Q25.50 51.30 30.10 51.30ZM18.90 39.90L18.90 60.50L6.60 60.50L6.60 35Q7.40 34.80 8.90 34.50Q10.40 34.20 12.20 34.20L12.20 34.20Q15.70 34.20 17.30 35.45Q18.90 36.70 18.90 39.90L18.90 39.90Z" fill="#33241D"/>
  <path d="M61.80 81.90L61.80 81.90L61.80 74L74.10 74L74.10 81.70Q74.10 87 76.85 89.30Q79.60 91.60 84.50 91.60L84.50 91.60Q87.70 91.60 89.90 91Q92.10 90.40 93.20 89.70L93.20 89.70L93.20 74L105.50 74L105.50 90.70Q105.50 93 104.75 94.55Q104 96.10 101.90 97.40L101.90 97.40Q99 99.10 94.55 100.25Q90.10 101.40 84.40 101.40L84.40 101.40Q77.50 101.40 72.40 99.40Q67.30 97.40 64.55 93.05Q61.80 88.70 61.80 81.90ZM105.50 57.80L105.50 78.80L93.20 78.80L93.20 52.80Q94 52.60 95.55 52.35Q97.10 52.10 98.80 52.10L98.80 52.10Q102.30 52.10 103.90 53.30Q105.50 54.50 105.50 57.80L105.50 57.80ZM74.10 57.80L74.10 78.80L61.80 78.80L61.80 52.80Q62.60 52.60 64.10 52.35Q65.60 52.10 67.40 52.10L67.40 52.10Q70.90 52.10 72.50 53.30Q74.10 54.50 74.10 57.80L74.10 57.80Z" fill="#33241D"/>
  <path d="M148.10 89.60L148.10 89.60L148.10 58.20L160.40 58.20L160.40 90.90Q160.40 93.10 159.45 94.55Q158.50 96 156.40 97.30L156.40 97.30Q154 98.90 149.85 100.15Q145.70 101.40 140.40 101.40L140.40 101.40Q132.50 101.40 126.65 98.75Q120.80 96.10 117.60 90.55Q114.40 85 114.40 76.50L114.40 76.50Q114.40 67.80 117.65 62.20Q120.90 56.60 126.40 53.95Q131.90 51.30 138.60 51.30L138.60 51.30Q142.30 51.30 145.35 52.20Q148.40 53.10 150.30 54.30L150.30 54.30L150.30 64.80Q148.70 63.30 146.10 62.20Q143.50 61.10 140.10 61.10L140.10 61.10Q136.40 61.10 133.40 62.65Q130.40 64.20 128.70 67.65Q127 71.10 127 76.60L127 76.60Q127 84.40 130.60 88Q134.20 91.60 140.30 91.60L140.30 91.60Q143 91.60 144.90 91Q146.80 90.40 148.10 89.60ZM160.40 39.90L160.40 60.70L148.10 60.80L148.10 35Q148.80 34.80 150.35 34.50Q151.90 34.20 153.60 34.20L153.60 34.20Q157.20 34.20 158.80 35.45Q160.40 36.70 160.40 39.90L160.40 39.90Z" fill="#B3492E"/>
  <path d="M196.20 89.60L196.20 89.60L196.20 58.20L208.50 58.20L208.50 90.90Q208.50 93.10 207.55 94.55Q206.60 96 204.50 97.30L204.50 97.30Q202.10 98.90 197.95 100.15Q193.80 101.40 188.50 101.40L188.50 101.40Q180.60 101.40 174.75 98.75Q168.90 96.10 165.70 90.55Q162.50 85 162.50 76.50L162.50 76.50Q162.50 67.80 165.75 62.20Q169 56.60 174.50 53.95Q180 51.30 186.70 51.30L186.70 51.30Q190.40 51.30 193.45 52.20Q196.50 53.10 198.40 54.30L198.40 54.30L198.40 64.80Q196.80 63.30 194.20 62.20Q191.60 61.10 188.20 61.10L188.20 61.10Q184.50 61.10 181.50 62.65Q178.50 64.20 176.80 67.65Q175.10 71.10 175.10 76.60L175.10 76.60Q175.10 84.40 178.70 88Q182.30 91.60 188.40 91.60L188.40 91.60Q191.10 91.60 193 91Q194.90 90.40 196.20 89.60ZM208.50 39.90L208.50 60.70L196.20 60.80L196.20 35Q196.90 34.80 198.45 34.50Q200 34.20 201.70 34.20L201.70 34.20Q205.30 34.20 206.90 35.45Q208.50 36.70 208.50 39.90L208.50 39.90Z" fill="#B3492E"/>
  <path d="M219.40 38.60L219.40 38.60Q219.40 35.70 221.45 33.70Q223.50 31.70 226.60 31.70L226.60 31.70Q229.80 31.70 231.75 33.70Q233.70 35.70 233.70 38.60L233.70 38.60Q233.70 41.40 231.75 43.45Q229.80 45.50 226.60 45.50L226.60 45.50Q223.50 45.50 221.45 43.45Q219.40 41.40 219.40 38.60ZM220.40 94.90L220.40 73.60L232.80 73.60L232.80 99.80Q232 100.10 230.50 100.35Q229 100.60 227.20 100.60L227.20 100.60Q223.80 100.60 222.10 99.35Q220.40 98.10 220.40 94.90L220.40 94.90ZM232.80 58.10L232.80 79.90L220.40 79.90L220.40 53.10Q221.20 52.80 222.75 52.55Q224.30 52.30 226.10 52.30L226.10 52.30Q229.60 52.30 231.20 53.55Q232.80 54.80 232.80 58.10L232.80 58.10Z" fill="#33241D"/>
  <path d="M281.20 86.60L281.20 86.60Q281.20 93.60 276 97.55Q270.80 101.50 260.90 101.50L260.90 101.50Q252.90 101.50 247.80 99.10Q242.70 96.70 242.70 92.70L242.70 92.70Q242.70 91 243.50 89.55Q244.30 88.10 245.60 87.30L245.60 87.30Q248.40 89.10 252.10 90.50Q255.80 91.90 260.50 91.90L260.50 91.90Q269 91.90 269 86.70L269 86.70Q269 84.50 267.50 83.15Q266 81.80 262.90 81.20L262.90 81.20L257.20 79.70Q249.90 78.10 246.35 74.70Q242.80 71.30 242.80 65.60L242.80 65.60Q242.80 59.30 248 55.25Q253.20 51.20 262.40 51.20L262.40 51.20Q267.20 51.20 271 52.15Q274.80 53.10 276.95 54.90Q279.10 56.70 279.10 59.20L279.10 59.20Q279.10 60.90 278.35 62.25Q277.60 63.60 276.40 64.30L276.40 64.30Q275.20 63.60 273.15 62.75Q271.10 61.90 268.50 61.35Q265.90 60.80 263.30 60.80L263.30 60.80Q259.40 60.80 257.15 62.05Q254.90 63.30 254.90 65.60L254.90 65.60Q254.90 67.30 256.20 68.50Q257.50 69.70 260.60 70.40L260.60 70.40L265.70 71.60Q273.80 73.50 277.50 77.15Q281.20 80.80 281.20 86.60Z" fill="#33241D"/>
  <path d="M350.88 42.42L350.88 54.22Q350.88 54.66 351.31 54.66L351.31 54.66L358.66 54.66Q360.67 54.66 362.04 56.02Q363.41 57.39 363.41 59.41L363.41 59.41Q363.41 64.02 363.34 68.62Q363.26 73.23 363.16 77.26Q363.05 81.30 362.94 84.32Q362.83 87.34 362.69 88.78L362.69 88.78Q362.18 96.20 359.45 99.22Q356.71 102.25 350.38 102.25L350.38 102.25Q349.01 102.25 348.14 101.24Q347.28 100.23 347.28 98.94L347.28 98.94Q347.28 97.71 348.18 96.85Q349.08 95.98 350.38 95.98L350.38 95.98Q353.04 95.91 354.19 95.34Q355.34 94.76 355.78 93.10Q356.21 91.45 356.42 88.21L356.42 88.21Q356.57 86.62 356.71 82.59Q356.86 78.56 357 72.98Q357.14 67.40 357.14 61.28L357.14 61.28Q357.14 60.85 356.71 60.85L356.71 60.85L351.24 60.85Q350.81 60.85 350.81 61.28L350.81 61.28Q350.38 72.01 348.04 80.07Q345.70 88.14 342.49 93.54Q339.29 98.94 335.98 101.82L335.98 101.82Q335.26 102.46 334.18 102.46L334.18 102.46Q333.46 102.46 332.77 102.14Q332.09 101.82 331.58 101.10L331.58 101.10Q331.01 100.16 331.01 99.22L331.01 99.22Q331.01 97.64 332.23 96.56L332.23 96.56Q335.62 93.46 337.88 89.32Q340.15 85.18 341.56 80.47Q342.96 75.75 343.68 70.82Q344.40 65.89 344.62 61.28L344.62 61.28Q344.62 60.85 344.18 60.85L344.18 60.85L337.70 60.85Q336.41 60.85 335.51 59.95Q334.61 59.05 334.61 57.75L334.61 57.75Q334.61 56.53 335.51 55.59Q336.41 54.66 337.70 54.66L337.70 54.66L344.26 54.66Q344.69 54.66 344.69 54.22L344.69 54.22L344.69 42.42Q344.69 41.12 345.62 40.18Q346.56 39.25 347.78 39.25L347.78 39.25Q349.08 39.25 349.98 40.18Q350.88 41.12 350.88 42.42L350.88 42.42ZM310.92 51.34L310.92 50.41Q310.92 49.98 310.49 49.98L310.49 49.98L305.59 49.98Q304.44 49.98 303.54 49.11Q302.64 48.25 302.64 47.02L302.64 47.02Q302.64 45.87 303.50 45.01Q304.37 44.14 305.59 44.14L305.59 44.14L310.49 44.14Q310.92 44.14 310.92 43.71L310.92 43.71L310.92 42.42Q310.92 41.19 311.78 40.33Q312.65 39.46 313.87 39.46L313.87 39.46Q315.10 39.46 316.00 40.33Q316.90 41.19 316.90 42.42L316.90 42.42L316.90 43.71Q316.90 44.14 317.33 44.14L317.33 44.14L321.65 44.14Q322.08 44.14 322.08 43.71L322.08 43.71L322.08 42.42Q322.08 41.19 322.94 40.33Q323.81 39.46 325.03 39.46L325.03 39.46Q326.26 39.46 327.12 40.33Q327.98 41.19 327.98 42.42L327.98 42.42L327.98 43.71Q327.98 44.14 328.42 44.14L328.42 44.14L333.31 44.14Q334.54 44.14 335.40 44.97Q336.26 45.80 336.26 47.02L336.26 47.02Q336.26 48.18 335.40 49.08Q334.54 49.98 333.31 49.98L333.31 49.98L328.42 49.98Q327.98 49.98 327.98 50.41L327.98 50.41L327.98 51.34Q327.98 52.50 327.12 53.40Q326.26 54.30 325.03 54.30L325.03 54.30Q323.88 54.30 322.98 53.43Q322.08 52.57 322.08 51.34L322.08 51.34L322.08 50.41Q322.08 49.98 321.65 49.98L321.65 49.98L317.33 49.98Q316.90 49.98 316.90 50.41L316.90 50.41L316.90 51.34Q316.90 52.50 316.00 53.40Q315.10 54.30 313.87 54.30L313.87 54.30Q312.72 54.30 311.82 53.43Q310.92 52.57 310.92 51.34L310.92 51.34ZM334.90 92.38L334.90 92.38Q334.90 93.32 334.32 94.11Q333.74 94.90 332.81 95.26L332.81 95.26Q326.98 97.06 319.60 98.29Q312.22 99.51 305.09 99.94L305.09 99.94Q303.94 100.02 303.04 99.15Q302.14 98.29 302.14 97.06L302.14 97.06Q302.14 95.84 303.04 94.98Q303.94 94.11 305.09 94.04L305.09 94.04Q310.63 93.68 316.03 92.96L316.03 92.96Q316.39 92.82 316.39 92.46L316.39 92.46L316.39 88.93Q316.39 88.50 315.96 88.50L315.96 88.50L308.47 88.50Q307.32 88.50 306.49 87.67Q305.66 86.84 305.66 85.69L305.66 85.69Q305.66 84.54 306.49 83.74Q307.32 82.95 308.47 82.95L308.47 82.95L315.96 82.95Q316.39 82.95 316.39 82.52L316.39 82.52L316.39 80.65Q316.39 80.22 315.96 80.22L315.96 80.22L307.32 80.22Q306.17 80.22 305.34 79.35Q304.51 78.49 304.51 77.34L304.51 77.34Q304.51 76.18 305.34 75.36Q306.17 74.53 307.32 74.53L307.32 74.53L315.96 74.53Q316.39 74.53 316.39 74.10L316.39 74.10L316.39 72.30Q316.39 71.86 315.96 71.86L315.96 71.86L309.62 71.86Q307.68 71.86 306.28 70.50Q304.87 69.13 304.87 67.11L304.87 67.11L304.87 60.63Q304.87 58.69 306.28 57.28Q307.68 55.88 309.62 55.88L309.62 55.88L328.99 55.88Q330.94 55.88 332.34 57.25Q333.74 58.62 333.74 60.63L333.74 60.63L333.74 67.11Q333.74 69.06 332.38 70.46Q331.01 71.86 328.99 71.86L328.99 71.86L322.73 71.86Q322.30 71.86 322.30 72.30L322.30 72.30L322.30 74.10Q322.30 74.53 322.73 74.53L322.73 74.53L331.30 74.53Q332.52 74.53 333.35 75.36Q334.18 76.18 334.18 77.34L334.18 77.34Q334.18 78.49 333.35 79.35Q332.52 80.22 331.30 80.22L331.30 80.22L322.73 80.22Q322.30 80.22 322.30 80.65L322.30 80.65L322.30 82.52Q322.30 82.95 322.73 82.95L322.73 82.95L330.14 82.95Q331.37 82.95 332.16 83.78Q332.95 84.61 332.95 85.69L332.95 85.69Q332.95 86.84 332.12 87.67Q331.30 88.50 330.14 88.50L330.14 88.50L322.73 88.50Q322.30 88.50 322.30 88.93L322.30 88.93L322.30 91.38Q322.30 91.88 322.80 91.81L322.80 91.81Q325.10 91.30 327.19 90.73Q329.28 90.15 331.22 89.58L331.22 89.58Q331.44 89.50 331.66 89.47Q331.87 89.43 332.09 89.43L332.09 89.43Q333.17 89.43 334.03 90.22Q334.90 91.02 334.90 92.38ZM315.96 61.21L311.28 61.21Q310.85 61.21 310.85 61.64L310.85 61.64L310.85 66.10Q310.85 66.54 311.28 66.54L311.28 66.54L315.96 66.54Q316.39 66.54 316.39 66.10L316.39 66.10L316.39 61.64Q316.39 61.21 315.96 61.21L315.96 61.21ZM322.30 61.64L322.30 66.10Q322.30 66.54 322.73 66.54L322.73 66.54L327.34 66.54Q327.77 66.54 327.77 66.10L327.77 66.10L327.77 61.64Q327.77 61.21 327.34 61.21L327.34 61.21L322.73 61.21Q322.30 61.21 322.30 61.64L322.30 61.64Z" fill="#A8762B"/>
  <path d="M383.65 60.63L383.65 60.63Q382.06 60.63 380.88 59.44Q379.69 58.26 379.69 56.60L379.69 56.60Q379.69 55.23 380.41 54.04Q381.13 52.86 382.50 52.21L382.50 52.21Q385.09 50.91 387.93 49.04Q390.78 47.17 393.40 44.86Q396.03 42.56 397.83 40.18L397.83 40.18Q398.91 38.89 400.42 38.89L400.42 38.89Q401.29 38.89 402.01 39.39L402.01 39.39Q403.45 40.40 403.45 41.98L403.45 41.98Q403.45 42.92 402.87 43.71L402.87 43.71Q401.58 45.51 399.60 47.46Q397.62 49.40 395.42 51.13Q393.22 52.86 391.28 54.08L391.28 54.08Q390.99 54.22 391.06 54.40Q391.14 54.58 391.42 54.58L391.42 54.58Q396.03 54.37 401.29 54.15Q406.54 53.94 411.51 53.65Q416.48 53.36 420.15 53.07L420.15 53.07Q420.80 52.93 420.44 52.50L420.44 52.50Q420.08 51.99 419.68 51.56Q419.29 51.13 418.93 50.70L418.93 50.70Q418.14 49.76 418.14 48.75L418.14 48.75Q418.14 47.24 419.50 46.30L419.50 46.30Q420.51 45.73 421.59 45.73L421.59 45.73Q423.54 45.73 424.54 47.17L424.54 47.17Q425.62 48.61 426.96 50.66Q428.29 52.71 429.62 54.91Q430.95 57.10 431.96 59.05L431.96 59.05Q432.32 59.77 432.32 60.42L432.32 60.42Q432.32 62.29 430.45 63.22L430.45 63.22Q429.87 63.51 429.15 63.51L429.15 63.51Q428.29 63.51 427.50 63.04Q426.70 62.58 426.34 61.78L426.34 61.78Q425.98 61.06 425.59 60.34Q425.19 59.62 424.76 58.90L424.76 58.90Q424.62 58.54 424.26 58.69L424.26 58.69Q421.16 58.98 417.02 59.26Q412.88 59.55 408.24 59.77Q403.59 59.98 399.02 60.16Q394.45 60.34 390.45 60.45Q386.46 60.56 383.65 60.63ZM425.41 66.68L425.41 66.68L425.41 75.25Q425.41 77.19 424.00 78.60Q422.60 80 420.66 80L420.66 80L388.69 80Q386.74 80 385.34 78.63Q383.94 77.26 383.94 75.25L383.94 75.25L383.94 66.68Q383.94 64.74 385.34 63.33Q386.74 61.93 388.69 61.93L388.69 61.93L420.66 61.93Q422.60 61.93 424.00 63.33Q425.41 64.74 425.41 66.68ZM390.27 68.26L390.27 73.74Q390.27 74.17 390.70 74.17L390.70 74.17L418.64 74.17Q419.07 74.17 419.07 73.74L419.07 73.74L419.07 68.26Q419.07 67.83 418.64 67.83L418.64 67.83L390.70 67.83Q390.27 67.83 390.27 68.26L390.27 68.26ZM419.86 93.54L419.86 93.54Q420.66 92.82 421.88 92.82L421.88 92.82Q423.25 92.82 424.26 93.82L424.26 93.82Q424.98 94.76 424.98 95.98L424.98 95.98Q424.98 97.50 423.97 98.29L423.97 98.29Q421.66 100.30 418.71 101.10Q415.76 101.89 411.01 101.89L411.01 101.89L402.94 101.89Q396.97 101.89 393.76 99.08Q390.56 96.27 390.56 91.02L390.56 91.02L390.56 83.53Q390.56 82.30 391.42 81.40Q392.29 80.50 393.58 80.50L393.58 80.50Q394.81 80.50 395.71 81.40Q396.61 82.30 396.61 83.53L396.61 83.53L396.61 90.87Q396.61 93.03 397.36 94.11Q398.12 95.19 400.50 95.55Q402.87 95.91 407.77 95.91L407.77 95.91Q411.66 95.91 413.89 95.73Q416.12 95.55 417.42 95.01Q418.71 94.47 419.86 93.54ZM403.09 80.72L403.09 80.72Q408.27 82.38 413.24 84.90L413.24 84.90Q415.04 85.83 415.04 87.92L415.04 87.92Q415.04 89.29 414.18 90.15Q413.31 91.02 412.16 91.02L412.16 91.02Q411.51 91.02 410.79 90.66L410.79 90.66Q406.26 88.14 401.22 86.41L401.22 86.41Q400.28 86.05 399.70 85.26Q399.13 84.46 399.13 83.53L399.13 83.53Q399.13 82.16 400.03 81.37Q400.93 80.58 402.08 80.58L402.08 80.58Q402.37 80.58 402.58 80.58Q402.80 80.58 403.09 80.72ZM387.61 83.89L387.61 83.89Q388.40 84.25 388.83 85.00Q389.26 85.76 389.26 86.55L389.26 86.55Q389.26 86.84 389.19 87.20Q389.12 87.56 388.90 87.92L388.90 87.92Q386.96 91.38 383.83 94.65Q380.70 97.93 377.46 99.94L377.46 99.94Q376.81 100.38 376.09 100.38L376.09 100.38Q374.43 100.38 373.50 98.72L373.50 98.72Q373.14 98 373.14 97.28L373.14 97.28Q373.14 95.48 374.58 94.47L374.58 94.47Q380.26 90.30 383.58 85.11L383.58 85.11Q384.51 83.53 386.24 83.53L386.24 83.53Q386.89 83.53 387.61 83.89ZM434.70 91.81L434.70 91.81Q435.42 92.31 435.74 93.07Q436.06 93.82 436.06 94.62L436.06 94.62Q436.06 95.70 435.56 96.49L435.56 96.49Q434.77 97.86 433.26 97.86L433.26 97.86Q432.25 97.86 431.46 97.21L431.46 97.21Q429.08 95.34 426.27 93.68Q423.46 92.02 420.51 90.73L420.51 90.73Q418.64 89.79 418.64 87.85L418.64 87.85Q418.64 86.48 419.54 85.69Q420.44 84.90 421.59 84.90L421.59 84.90Q422.24 84.90 422.74 85.11L422.74 85.11Q425.55 86.34 428.72 88.03Q431.89 89.72 434.70 91.81Z" fill="#A8762B"/>
</svg>
