<svg xmlns="http://www.w3.org/2000/svg" viewBox="-8 23.7 299.6 136.99">
  <path d="M30.10 51.30L30.10 51.30Q36.50 51.30 41.65 54.05Q46.80 56.80 49.80 62.35Q52.80 67.90 52.80 76.20L52.80 76.20Q52.80 84.60 49.65 90.20Q46.50 95.80 40.85 98.60Q35.20 101.40 27.70 101.40L27.70 101.40Q22 101.40 17.75 100.05Q13.50 98.70 10.60 96.90L10.60 96.90Q8.50 95.40 7.55 93.85Q6.60 92.30 6.60 90L6.60 90L6.60 57.70L18.90 57.70L18.90 89.20Q20.20 90.10 22.45 90.85Q24.70 91.60 27.60 91.60L27.60 91.60Q33.30 91.60 36.75 87.80Q40.20 84 40.20 76.20L40.20 76.20Q40.20 68.30 36.80 64.70Q33.40 61.10 27.90 61.10L27.90 61.10Q24.40 61.10 21.70 62.40Q19 63.70 17.10 65.40L17.10 65.40L16.30 55.40Q18.60 54 22.05 52.65Q25.50 51.30 30.10 51.30ZM18.90 39.90L18.90 60.50L6.60 60.50L6.60 35Q7.40 34.80 8.90 34.50Q10.40 34.20 12.20 34.20L12.20 34.20Q15.70 34.20 17.30 35.45Q18.90 36.70 18.90 39.90L18.90 39.90Z" fill="#33241D"/>
  <path d="M61.80 81.90L61.80 81.90L61.80 74L74.10 74L74.10 81.70Q74.10 87 76.85 89.30Q79.60 91.60 84.50 91.60L84.50 91.60Q87.70 91.60 89.90 91Q92.10 90.40 93.20 89.70L93.20 89.70L93.20 74L105.50 74L105.50 90.70Q105.50 93 104.75 94.55Q104 96.10 101.90 97.40L101.90 97.40Q99 99.10 94.55 100.25Q90.10 101.40 84.40 101.40L84.40 101.40Q77.50 101.40 72.40 99.40Q67.30 97.40 64.55 93.05Q61.80 88.70 61.80 81.90ZM105.50 57.80L105.50 78.80L93.20 78.80L93.20 52.80Q94 52.60 95.55 52.35Q97.10 52.10 98.80 52.10L98.80 52.10Q102.30 52.10 103.90 53.30Q105.50 54.50 105.50 57.80L105.50 57.80ZM74.10 57.80L74.10 78.80L61.80 78.80L61.80 52.80Q62.60 52.60 64.10 52.35Q65.60 52.10 67.40 52.10L67.40 52.10Q70.90 52.10 72.50 53.30Q74.10 54.50 74.10 57.80L74.10 57.80Z" fill="#33241D"/>
  <path d="M148.10 89.60L148.10 89.60L148.10 58.20L160.40 58.20L160.40 90.90Q160.40 93.10 159.45 94.55Q158.50 96 156.40 97.30L156.40 97.30Q154 98.90 149.85 100.15Q145.70 101.40 140.40 101.40L140.40 101.40Q132.50 101.40 126.65 98.75Q120.80 96.10 117.60 90.55Q114.40 85 114.40 76.50L114.40 76.50Q114.40 67.80 117.65 62.20Q120.90 56.60 126.40 53.95Q131.90 51.30 138.60 51.30L138.60 51.30Q142.30 51.30 145.35 52.20Q148.40 53.10 150.30 54.30L150.30 54.30L150.30 64.80Q148.70 63.30 146.10 62.20Q143.50 61.10 140.10 61.10L140.10 61.10Q136.40 61.10 133.40 62.65Q130.40 64.20 128.70 67.65Q127 71.10 127 76.60L127 76.60Q127 84.40 130.60 88Q134.20 91.60 140.30 91.60L140.30 91.60Q143 91.60 144.90 91Q146.80 90.40 148.10 89.60ZM160.40 39.90L160.40 60.70L148.10 60.80L148.10 35Q148.80 34.80 150.35 34.50Q151.90 34.20 153.60 34.20L153.60 34.20Q157.20 34.20 158.80 35.45Q160.40 36.70 160.40 39.90L160.40 39.90Z" fill="#B3492E"/>
  <path d="M196.20 89.60L196.20 89.60L196.20 58.20L208.50 58.20L208.50 90.90Q208.50 93.10 207.55 94.55Q206.60 96 204.50 97.30L204.50 97.30Q202.10 98.90 197.95 100.15Q193.80 101.40 188.50 101.40L188.50 101.40Q180.60 101.40 174.75 98.75Q168.90 96.10 165.70 90.55Q162.50 85 162.50 76.50L162.50 76.50Q162.50 67.80 165.75 62.20Q169 56.60 174.50 53.95Q180 51.30 186.70 51.30L186.70 51.30Q190.40 51.30 193.45 52.20Q196.50 53.10 198.40 54.30L198.40 54.30L198.40 64.80Q196.80 63.30 194.20 62.20Q191.60 61.10 188.20 61.10L188.20 61.10Q184.50 61.10 181.50 62.65Q178.50 64.20 176.80 67.65Q175.10 71.10 175.10 76.60L175.10 76.60Q175.10 84.40 178.70 88Q182.30 91.60 188.40 91.60L188.40 91.60Q191.10 91.60 193 91Q194.90 90.40 196.20 89.60ZM208.50 39.90L208.50 60.70L196.20 60.80L196.20 35Q196.90 34.80 198.45 34.50Q200 34.20 201.70 34.20L201.70 34.20Q205.30 34.20 206.90 35.45Q208.50 36.70 208.50 39.90L208.50 39.90Z" fill="#B3492E"/>
  <path d="M219.40 38.60L219.40 38.60Q219.40 35.70 221.45 33.70Q223.50 31.70 226.60 31.70L226.60 31.70Q229.80 31.70 231.75 33.70Q233.70 35.70 233.70 38.60L233.70 38.60Q233.70 41.40 231.75 43.45Q229.80 45.50 226.60 45.50L226.60 45.50Q223.50 45.50 221.45 43.45Q219.40 41.40 219.40 38.60ZM220.40 94.90L220.40 73.60L232.80 73.60L232.80 99.80Q232 100.10 230.50 100.35Q229 100.60 227.20 100.60L227.20 100.60Q223.80 100.60 222.10 99.35Q220.40 98.10 220.40 94.90L220.40 94.90ZM232.80 58.10L232.80 79.90L220.40 79.90L220.40 53.10Q221.20 52.80 222.75 52.55Q224.30 52.30 226.10 52.30L226.10 52.30Q229.60 52.30 231.20 53.55Q232.80 54.80 232.80 58.10L232.80 58.10Z" fill="#33241D"/>
  <path d="M281.20 86.60L281.20 86.60Q281.20 93.60 276 97.55Q270.80 101.50 260.90 101.50L260.90 101.50Q252.90 101.50 247.80 99.10Q242.70 96.70 242.70 92.70L242.70 92.70Q242.70 91 243.50 89.55Q244.30 88.10 245.60 87.30L245.60 87.30Q248.40 89.10 252.10 90.50Q255.80 91.90 260.50 91.90L260.50 91.90Q269 91.90 269 86.70L269 86.70Q269 84.50 267.50 83.15Q266 81.80 262.90 81.20L262.90 81.20L257.20 79.70Q249.90 78.10 246.35 74.70Q242.80 71.30 242.80 65.60L242.80 65.60Q242.80 59.30 248 55.25Q253.20 51.20 262.40 51.20L262.40 51.20Q267.20 51.20 271 52.15Q274.80 53.10 276.95 54.90Q279.10 56.70 279.10 59.20L279.10 59.20Q279.10 60.90 278.35 62.25Q277.60 63.60 276.40 64.30L276.40 64.30Q275.20 63.60 273.15 62.75Q271.10 61.90 268.50 61.35Q265.90 60.80 263.30 60.80L263.30 60.80Q259.40 60.80 257.15 62.05Q254.90 63.30 254.90 65.60L254.90 65.60Q254.90 67.30 256.20 68.50Q257.50 69.70 260.60 70.40L260.60 70.40L265.70 71.60Q273.80 73.50 277.50 77.15Q281.20 80.80 281.20 86.60Z" fill="#33241D"/>
  <path d="M95.21 143.32L95.21 143.32Q94.51 143.32 93.96 142.84Q93.41 142.35 93.28 141.60L93.28 141.60Q92.79 138.70 91.54 136.32Q90.29 133.95 88.66 131.97Q87.03 129.99 85.42 128.29Q83.82 126.60 82.59 125.02L82.59 125.02Q82.19 124.53 82.19 123.92L82.19 123.92Q82.19 122.86 83.11 122.29L83.11 122.29Q83.55 121.98 84.21 121.98L84.21 121.98Q84.70 121.98 85.16 122.18Q85.62 122.38 85.93 122.82L85.93 122.82Q87.07 124.31 88.75 126.07Q90.42 127.83 92.13 129.97Q93.85 132.10 95.24 134.81Q96.62 137.51 97.24 140.90L97.24 140.90Q97.37 141.78 96.75 142.55Q96.14 143.32 95.21 143.32ZM65.25 142.66L65.25 142.66Q64.68 143.10 63.97 143.10L63.97 143.10Q63.05 143.10 62.43 142.35L62.43 142.35Q62.04 141.82 62.04 141.12L62.04 141.12Q62.04 140.64 62.21 140.22Q62.39 139.80 62.79 139.49L62.79 139.49Q65.82 136.94 67.63 134.39Q69.43 131.84 70.46 129.39Q71.50 126.95 72.16 124.75L72.16 124.75Q72.38 124.09 72.91 123.70Q73.43 123.30 74.09 123.30L74.09 123.30Q74.97 123.30 75.55 123.92Q76.12 124.53 76.12 125.37L76.12 125.37Q76.12 125.59 76.03 125.94L76.03 125.94Q75.11 128.98 73.79 131.79Q72.47 134.61 70.42 137.29Q68.37 139.98 65.25 142.66Z" fill="#33241D"/>
  <path d="M112.68 121.76L112.68 121.76Q111.89 121.80 111.32 121.25Q110.75 120.70 110.75 119.91L110.75 119.91Q110.75 119.08 111.30 118.50Q111.85 117.93 112.68 117.89L112.68 117.89Q114.62 117.80 117.52 117.76Q120.43 117.71 123.42 117.71L123.42 117.71Q125.93 117.71 128.21 117.76Q130.50 117.80 132.09 117.89L132.09 117.89Q132.83 117.93 133.38 118.53Q133.93 119.12 133.93 119.91L133.93 119.91Q133.93 120.75 133.36 121.30Q132.79 121.85 131.95 121.80L131.95 121.80Q130.28 121.72 127.71 121.67Q125.13 121.63 122.41 121.63L122.41 121.63Q119.63 121.63 117.06 121.65Q114.49 121.67 112.68 121.76ZM136.93 127.00L136.93 127.00Q137.72 127.00 138.27 127.57Q138.82 128.14 138.82 128.89L138.82 128.89Q138.82 129.72 138.25 130.30Q137.67 130.87 136.88 130.87L136.88 130.87L126.10 130.87Q125.71 130.87 125.71 131.26L125.71 131.26Q125.71 135.66 124.69 138.74Q123.68 141.82 121.83 144.07Q119.99 146.31 117.52 148.20L117.52 148.20Q117.13 148.56 116.47 148.56L116.47 148.56Q115.41 148.56 114.88 147.63L114.88 147.63Q114.62 147.10 114.62 146.53L114.62 146.53Q114.62 145.48 115.45 144.82L115.45 144.82Q118.18 142.66 119.50 140.55Q120.82 138.44 121.24 136.17Q121.66 133.90 121.70 131.31L121.70 131.31Q121.70 130.91 121.31 130.91L121.31 130.91Q117.61 130.96 114.20 131.09Q110.79 131.22 108.46 131.44L108.46 131.44Q107.67 131.48 107.07 130.96Q106.48 130.43 106.48 129.64L106.48 129.64Q106.48 128.80 107.05 128.18Q107.62 127.57 108.41 127.52L108.41 127.52Q110.39 127.39 113.03 127.26Q115.67 127.13 118.67 127.06Q121.66 127.00 124.72 126.95Q127.77 126.91 130.55 126.91L130.55 126.91Q132.39 126.91 134.02 126.93Q135.65 126.95 136.93 127.00Z" fill="#33241D"/>
  <path d="M174.46 120.92L174.46 120.92Q175.51 121.54 175.51 122.77L175.51 122.77Q175.51 123.17 175.29 123.70L175.29 123.70Q174.37 125.46 173.23 127.17Q172.08 128.89 170.67 130.56L170.67 130.56Q170.45 130.74 170.54 131.09L170.54 131.09Q170.94 132.41 171.14 134.21Q171.33 136.02 171.33 138.61L171.33 138.61Q171.33 140.24 171.25 142.31Q171.16 144.38 170.98 146.93L170.98 146.93Q170.94 147.68 170.39 148.18Q169.84 148.69 169.09 148.69L169.09 148.69Q168.25 148.69 167.73 148.09Q167.20 147.50 167.24 146.66L167.24 146.66Q167.46 144.24 167.57 142.13Q167.68 140.02 167.68 138.26L167.68 138.26Q167.68 137.25 167.64 136.32Q167.59 135.40 167.51 134.61L167.51 134.61Q167.42 134.04 166.98 134.43L166.98 134.43Q165.09 136.19 162.97 137.71Q160.86 139.23 158.79 140.24L158.79 140.24Q158.44 140.42 158.00 140.42L158.00 140.42Q156.77 140.42 156.29 139.27L156.29 139.27Q156.15 138.92 156.15 138.52L156.15 138.52Q156.15 138.00 156.42 137.51Q156.68 137.03 157.21 136.76L157.21 136.76Q160.86 134.92 163.74 132.36Q166.63 129.81 168.69 127.02Q170.76 124.22 171.99 121.67L171.99 121.67Q172.48 120.66 173.53 120.66L173.53 120.66Q174.02 120.66 174.46 120.92Z" fill="#33241D"/>
  <path d="M225.37 145.04L225.37 145.04Q225.76 145.56 225.76 146.22L225.76 146.22Q225.76 147.28 224.93 147.98L224.93 147.98Q224.40 148.38 223.78 148.38L223.78 148.38Q222.81 148.38 222.20 147.59L222.20 147.59Q220.83 145.56 218.94 143.72Q217.05 141.87 214.96 140.42Q212.87 138.96 210.76 138.13L210.76 138.13Q210.45 138.00 210.23 138.22L210.23 138.22Q207.41 140.86 203.78 143.36Q200.15 145.87 195.58 147.94L195.58 147.94Q195.23 148.12 194.79 148.12L194.79 148.12Q194.08 148.12 193.51 147.59Q192.94 147.06 192.94 146.22L192.94 146.22Q192.94 145.56 193.31 144.99Q193.69 144.42 194.30 144.16L194.30 144.16Q198.57 142.26 201.98 139.87Q205.39 137.47 207.92 134.94Q210.45 132.41 212.12 130.10Q213.79 127.79 214.59 126.16L214.59 126.16Q215.47 124.27 215.47 123.26L215.47 123.26Q215.47 121.89 213.71 121.89L213.71 121.89Q213.44 121.89 213.16 121.89Q212.87 121.89 212.52 121.98L212.52 121.98Q211.02 122.20 208.51 122.42Q206.01 122.64 203.04 122.77Q200.07 122.90 197.21 122.90L197.21 122.90Q196.46 122.90 195.91 122.35Q195.36 121.80 195.36 121.01L195.36 121.01Q195.36 120.18 195.93 119.60Q196.50 119.03 197.34 119.03L197.34 119.03L199.32 119.03Q203.19 119.03 206.62 118.77Q210.05 118.50 211.95 118.15L211.95 118.15Q212.43 118.06 212.87 118.02Q213.31 117.98 213.75 117.98L213.75 117.98Q216.39 117.98 217.86 119.41Q219.34 120.84 219.34 123.21L219.34 123.21Q219.34 125.41 218.11 127.92L218.11 127.92Q217.40 129.37 216.30 131.04Q215.20 132.72 213.71 134.52L213.71 134.52Q213.62 134.61 213.62 134.78L213.62 134.78Q213.62 134.96 213.84 135.09L213.84 135.09Q216.04 136.19 218.19 137.84Q220.35 139.49 222.20 141.36Q224.05 143.23 225.37 145.04Z" fill="#33241D"/>
  <rect x="88.14" y="114.97" width="2.93" height="8.61" rx="1.46" fill="#B3492E" transform="rotate(35 89.6 119.27)"/>
  <rect x="91.53" y="113.56" width="2.87" height="7.77" rx="1.44" fill="#E58A64" transform="rotate(32 92.97 117.45)"/>
  <rect x="134.37" y="113.35" width="2.92" height="8.59" rx="1.46" fill="#B3492E" transform="rotate(35 135.83 117.65)"/>
  <rect x="137.76" y="111.94" width="2.86" height="7.75" rx="1.43" fill="#E58A64" transform="rotate(32 139.19 115.82)"/>
</svg>
