<svg xmlns="http://www.w3.org/2000/svg" viewBox="-10 21.7 303.6 89.8">
  <path d="M30.10 51.30L30.10 51.30Q36.50 51.30 41.65 54.05Q46.80 56.80 49.80 62.35Q52.80 67.90 52.80 76.20L52.80 76.20Q52.80 84.60 49.65 90.20Q46.50 95.80 40.85 98.60Q35.20 101.40 27.70 101.40L27.70 101.40Q22 101.40 17.75 100.05Q13.50 98.70 10.60 96.90L10.60 96.90Q8.50 95.40 7.55 93.85Q6.60 92.30 6.60 90L6.60 90L6.60 57.70L18.90 57.70L18.90 89.20Q20.20 90.10 22.45 90.85Q24.70 91.60 27.60 91.60L27.60 91.60Q33.30 91.60 36.75 87.80Q40.20 84 40.20 76.20L40.20 76.20Q40.20 68.30 36.80 64.70Q33.40 61.10 27.90 61.10L27.90 61.10Q24.40 61.10 21.70 62.40Q19 63.70 17.10 65.40L17.10 65.40L16.30 55.40Q18.60 54 22.05 52.65Q25.50 51.30 30.10 51.30ZM18.90 39.90L18.90 60.50L6.60 60.50L6.60 35Q7.40 34.80 8.90 34.50Q10.40 34.20 12.20 34.20L12.20 34.20Q15.70 34.20 17.30 35.45Q18.90 36.70 18.90 39.90L18.90 39.90Z" fill="#1A1A1A"/>
  <path d="M61.80 81.90L61.80 81.90L61.80 74L74.10 74L74.10 81.70Q74.10 87 76.85 89.30Q79.60 91.60 84.50 91.60L84.50 91.60Q87.70 91.60 89.90 91Q92.10 90.40 93.20 89.70L93.20 89.70L93.20 74L105.50 74L105.50 90.70Q105.50 93 104.75 94.55Q104 96.10 101.90 97.40L101.90 97.40Q99 99.10 94.55 100.25Q90.10 101.40 84.40 101.40L84.40 101.40Q77.50 101.40 72.40 99.40Q67.30 97.40 64.55 93.05Q61.80 88.70 61.80 81.90ZM105.50 57.80L105.50 78.80L93.20 78.80L93.20 52.80Q94 52.60 95.55 52.35Q97.10 52.10 98.80 52.10L98.80 52.10Q102.30 52.10 103.90 53.30Q105.50 54.50 105.50 57.80L105.50 57.80ZM74.10 57.80L74.10 78.80L61.80 78.80L61.80 52.80Q62.60 52.60 64.10 52.35Q65.60 52.10 67.40 52.10L67.40 52.10Q70.90 52.10 72.50 53.30Q74.10 54.50 74.10 57.80L74.10 57.80Z" fill="#1A1A1A"/>
  <path d="M148.10 89.60L148.10 89.60L148.10 58.20L160.40 58.20L160.40 90.90Q160.40 93.10 159.45 94.55Q158.50 96 156.40 97.30L156.40 97.30Q154 98.90 149.85 100.15Q145.70 101.40 140.40 101.40L140.40 101.40Q132.50 101.40 126.65 98.75Q120.80 96.10 117.60 90.55Q114.40 85 114.40 76.50L114.40 76.50Q114.40 67.80 117.65 62.20Q120.90 56.60 126.40 53.95Q131.90 51.30 138.60 51.30L138.60 51.30Q142.30 51.30 145.35 52.20Q148.40 53.10 150.30 54.30L150.30 54.30L150.30 64.80Q148.70 63.30 146.10 62.20Q143.50 61.10 140.10 61.10L140.10 61.10Q136.40 61.10 133.40 62.65Q130.40 64.20 128.70 67.65Q127 71.10 127 76.60L127 76.60Q127 84.40 130.60 88Q134.20 91.60 140.30 91.60L140.30 91.60Q143 91.60 144.90 91Q146.80 90.40 148.10 89.60ZM160.40 39.90L160.40 60.70L148.10 60.80L148.10 35Q148.80 34.80 150.35 34.50Q151.90 34.20 153.60 34.20L153.60 34.20Q157.20 34.20 158.80 35.45Q160.40 36.70 160.40 39.90L160.40 39.90Z" fill="#1A1A1A"/>
  <path d="M196.20 89.60L196.20 89.60L196.20 58.20L208.50 58.20L208.50 90.90Q208.50 93.10 207.55 94.55Q206.60 96 204.50 97.30L204.50 97.30Q202.10 98.90 197.95 100.15Q193.80 101.40 188.50 101.40L188.50 101.40Q180.60 101.40 174.75 98.75Q168.90 96.10 165.70 90.55Q162.50 85 162.50 76.50L162.50 76.50Q162.50 67.80 165.75 62.20Q169 56.60 174.50 53.95Q180 51.30 186.70 51.30L186.70 51.30Q190.40 51.30 193.45 52.20Q196.50 53.10 198.40 54.30L198.40 54.30L198.40 64.80Q196.80 63.30 194.20 62.20Q191.60 61.10 188.20 61.10L188.20 61.10Q184.50 61.10 181.50 62.65Q178.50 64.20 176.80 67.65Q175.10 71.10 175.10 76.60L175.10 76.60Q175.10 84.40 178.70 88Q182.30 91.60 188.40 91.60L188.40 91.60Q191.10 91.60 193 91Q194.90 90.40 196.20 89.60ZM208.50 39.90L208.50 60.70L196.20 60.80L196.20 35Q196.90 34.80 198.45 34.50Q200 34.20 201.70 34.20L201.70 34.20Q205.30 34.20 206.90 35.45Q208.50 36.70 208.50 39.90L208.50 39.90Z" fill="#1A1A1A"/>
  <path d="M219.40 38.60L219.40 38.60Q219.40 35.70 221.45 33.70Q223.50 31.70 226.60 31.70L226.60 31.70Q229.80 31.70 231.75 33.70Q233.70 35.70 233.70 38.60L233.70 38.60Q233.70 41.40 231.75 43.45Q229.80 45.50 226.60 45.50L226.60 45.50Q223.50 45.50 221.45 43.45Q219.40 41.40 219.40 38.60ZM220.40 94.90L220.40 73.60L232.80 73.60L232.80 99.80Q232 100.10 230.50 100.35Q229 100.60 227.20 100.60L227.20 100.60Q223.80 100.60 222.10 99.35Q220.40 98.10 220.40 94.90L220.40 94.90ZM232.80 58.10L232.80 79.90L220.40 79.90L220.40 53.10Q221.20 52.80 222.75 52.55Q224.30 52.30 226.10 52.30L226.10 52.30Q229.60 52.30 231.20 53.55Q232.80 54.80 232.80 58.10L232.80 58.10Z" fill="#1A1A1A"/>
  <path d="M281.20 86.60L281.20 86.60Q281.20 93.60 276 97.55Q270.80 101.50 260.90 101.50L260.90 101.50Q252.90 101.50 247.80 99.10Q242.70 96.70 242.70 92.70L242.70 92.70Q242.70 91 243.50 89.55Q244.30 88.10 245.60 87.30L245.60 87.30Q248.40 89.10 252.10 90.50Q255.80 91.90 260.50 91.90L260.50 91.90Q269 91.90 269 86.70L269 86.70Q269 84.50 267.50 83.15Q266 81.80 262.90 81.20L262.90 81.20L257.20 79.70Q249.90 78.10 246.35 74.70Q242.80 71.30 242.80 65.60L242.80 65.60Q242.80 59.30 248 55.25Q253.20 51.20 262.40 51.20L262.40 51.20Q267.20 51.20 271 52.15Q274.80 53.10 276.95 54.90Q279.10 56.70 279.10 59.20L279.10 59.20Q279.10 60.90 278.35 62.25Q277.60 63.60 276.40 64.30L276.40 64.30Q275.20 63.60 273.15 62.75Q271.10 61.90 268.50 61.35Q265.90 60.80 263.30 60.80L263.30 60.80Q259.40 60.80 257.15 62.05Q254.90 63.30 254.90 65.60L254.90 65.60Q254.90 67.30 256.20 68.50Q257.50 69.70 260.60 70.40L260.60 70.40L265.70 71.60Q273.80 73.50 277.50 77.15Q281.20 80.80 281.20 86.60Z" fill="#1A1A1A"/>
</svg>
