<svg xmlns="http://www.w3.org/2000/svg" viewBox="0 7.97 596 106.55">
  <!-- バディス経費 — type a ファミリーロックアップ -->
  <path d="M85.50 90.50L85.50 90.50Q83.90 90.50 82.65 89.40Q81.40 88.30 81.10 86.60L81.10 86.60Q80 80 77.15 74.60Q74.30 69.20 70.60 64.70Q66.90 60.20 63.25 56.35Q59.60 52.50 56.80 48.90L56.80 48.90Q55.90 47.80 55.90 46.40L55.90 46.40Q55.90 44 58 42.70L58 42.70Q59 42 60.50 42L60.50 42Q61.60 42 62.65 42.45Q63.70 42.90 64.40 43.90L64.40 43.90Q67 47.30 70.80 51.30Q74.60 55.30 78.50 60.15Q82.40 65 85.55 71.15Q88.70 77.30 90.10 85L90.10 85Q90.40 87 89 88.75Q87.60 90.50 85.50 90.50ZM17.40 89L17.40 89Q16.10 90 14.50 90L14.50 90Q12.40 90 11 88.30L11 88.30Q10.10 87.10 10.10 85.50L10.10 85.50Q10.10 84.40 10.50 83.45Q10.90 82.50 11.80 81.80L11.80 81.80Q18.70 76 22.80 70.20Q26.90 64.40 29.25 58.85Q31.60 53.30 33.10 48.30L33.10 48.30Q33.60 46.80 34.80 45.90Q36 45 37.50 45L37.50 45Q39.50 45 40.80 46.40Q42.10 47.80 42.10 49.70L42.10 49.70Q42.10 50.20 41.90 51L41.90 51Q39.80 57.90 36.80 64.30Q33.80 70.70 29.15 76.80Q24.50 82.90 17.40 89Z" fill="#33241D"/>
  <path d="M125.20 41.50L125.20 41.50Q123.40 41.60 122.10 40.35Q120.80 39.10 120.80 37.30L120.80 37.30Q120.80 35.40 122.05 34.10Q123.30 32.80 125.20 32.70L125.20 32.70Q129.60 32.50 136.20 32.40Q142.80 32.30 149.60 32.30L149.60 32.30Q155.30 32.30 160.50 32.40Q165.70 32.50 169.30 32.70L169.30 32.70Q171 32.80 172.25 34.15Q173.50 35.50 173.50 37.30L173.50 37.30Q173.50 39.20 172.20 40.45Q170.90 41.70 169 41.60L169 41.60Q165.20 41.40 159.35 41.30Q153.50 41.20 147.30 41.20L147.30 41.20Q141 41.20 135.15 41.25Q129.30 41.30 125.20 41.50ZM180.30 53.40L180.30 53.40Q182.10 53.40 183.35 54.70Q184.60 56 184.60 57.70L184.60 57.70Q184.60 59.60 183.30 60.90Q182 62.20 180.20 62.20L180.20 62.20L155.70 62.20Q154.80 62.20 154.80 63.10L154.80 63.10Q154.80 73.10 152.50 80.10Q150.20 87.10 146 92.20Q141.80 97.30 136.20 101.60L136.20 101.60Q135.30 102.40 133.80 102.40L133.80 102.40Q131.40 102.40 130.20 100.30L130.20 100.30Q129.60 99.10 129.60 97.80L129.60 97.80Q129.60 95.40 131.50 93.90L131.50 93.90Q137.70 89 140.70 84.20Q143.70 79.40 144.65 74.25Q145.60 69.10 145.70 63.20L145.70 63.20Q145.70 62.30 144.80 62.30L144.80 62.30Q136.40 62.40 128.65 62.70Q120.90 63 115.60 63.50L115.60 63.50Q113.80 63.60 112.45 62.40Q111.10 61.20 111.10 59.40L111.10 59.40Q111.10 57.50 112.40 56.10Q113.70 54.70 115.50 54.60L115.50 54.60Q120 54.30 126 54Q132 53.70 138.80 53.55Q145.60 53.40 152.55 53.30Q159.50 53.20 165.80 53.20L165.80 53.20Q170 53.20 173.70 53.25Q177.40 53.30 180.30 53.40Z" fill="#33241D"/>
  <path d="M265.60 39.60L265.60 39.60Q268 41 268 43.80L268 43.80Q268 44.70 267.50 45.90L267.50 45.90Q265.40 49.90 262.80 53.80Q260.20 57.70 257 61.50L257 61.50Q256.50 61.90 256.70 62.70L256.70 62.70Q257.60 65.70 258.05 69.80Q258.50 73.90 258.50 79.80L258.50 79.80Q258.50 83.50 258.30 88.20Q258.10 92.90 257.70 98.70L257.70 98.70Q257.60 100.40 256.35 101.55Q255.10 102.70 253.40 102.70L253.40 102.70Q251.50 102.70 250.30 101.35Q249.10 100 249.20 98.10L249.20 98.10Q249.70 92.60 249.95 87.80Q250.20 83 250.20 79L250.20 79Q250.20 76.70 250.10 74.60Q250 72.50 249.80 70.70L249.80 70.70Q249.60 69.40 248.60 70.30L248.60 70.30Q244.30 74.30 239.50 77.75Q234.70 81.20 230 83.50L230 83.50Q229.20 83.90 228.20 83.90L228.20 83.90Q225.40 83.90 224.30 81.30L224.30 81.30Q224 80.50 224 79.60L224 79.60Q224 78.40 224.60 77.30Q225.20 76.20 226.40 75.60L226.40 75.60Q234.70 71.40 241.25 65.60Q247.80 59.80 252.50 53.45Q257.20 47.10 260 41.30L260 41.30Q261.10 39 263.50 39L263.50 39Q264.60 39 265.60 39.60Z" fill="#33241D"/>
  <path d="M381.30 94.40L381.30 94.40Q382.20 95.60 382.20 97.10L382.20 97.10Q382.20 99.50 380.30 101.10L380.30 101.10Q379.10 102 377.70 102L377.70 102Q375.50 102 374.10 100.20L374.10 100.20Q371 95.60 366.70 91.40Q362.40 87.20 357.65 83.90Q352.90 80.60 348.10 78.70L348.10 78.70Q347.40 78.40 346.90 78.90L346.90 78.90Q340.50 84.90 332.25 90.60Q324 96.30 313.60 101L313.60 101Q312.80 101.40 311.80 101.40L311.80 101.40Q310.20 101.40 308.90 100.20Q307.60 99 307.60 97.10L307.60 97.10Q307.60 95.60 308.45 94.30Q309.30 93 310.70 92.40L310.70 92.40Q320.40 88.10 328.15 82.65Q335.90 77.20 341.65 71.45Q347.40 65.70 351.20 60.45Q355 55.20 356.80 51.50L356.80 51.50Q358.80 47.20 358.80 44.90L358.80 44.90Q358.80 41.80 354.80 41.80L354.80 41.80Q354.20 41.80 353.55 41.80Q352.90 41.80 352.10 42L352.10 42Q348.70 42.50 343 43Q337.30 43.50 330.55 43.80Q323.80 44.10 317.30 44.10L317.30 44.10Q315.60 44.10 314.35 42.85Q313.10 41.60 313.10 39.80L313.10 39.80Q313.10 37.90 314.40 36.60Q315.70 35.30 317.60 35.30L317.60 35.30L322.10 35.30Q330.90 35.30 338.70 34.70Q346.50 34.10 350.80 33.30L350.80 33.30Q351.90 33.10 352.90 33Q353.90 32.90 354.90 32.90L354.90 32.90Q360.90 32.90 364.25 36.15Q367.60 39.40 367.60 44.80L367.60 44.80Q367.60 49.80 364.80 55.50L364.80 55.50Q363.20 58.80 360.70 62.60Q358.20 66.40 354.80 70.50L354.80 70.50Q354.60 70.70 354.60 71.10L354.60 71.10Q354.60 71.50 355.10 71.80L355.10 71.80Q360.10 74.30 365 78.05Q369.90 81.80 374.10 86.05Q378.30 90.30 381.30 94.40Z" fill="#33241D"/>
  <path d="M427.70 69.10L427.20 67.30Q427 66.80 426.50 66.90L426.50 66.90Q425.60 67.20 424.65 67.40Q423.70 67.60 422.70 67.90L422.70 67.90Q422.20 68.10 422.20 68.50L422.20 68.50L422.20 102.10Q422.20 103.80 420.95 105.10Q419.70 106.40 417.90 106.40L417.90 106.40Q416.10 106.40 414.85 105.10Q413.60 103.80 413.60 102.10L413.60 102.10L413.60 70.20Q413.60 69.50 413 69.70L413 69.70Q410.50 70 408.05 70.20Q405.60 70.40 403.60 70.60L403.60 70.60Q401.60 70.80 400.40 69.45Q399.20 68.10 399.20 66.20L399.20 66.20Q399.20 65.10 399.70 64Q400.20 62.90 401.30 62.10L401.30 62.10Q403.40 60.70 405.35 58.80Q407.30 56.90 409.20 54.70L409.20 54.70Q409.50 54.30 409.20 53.90L409.20 53.90Q408 51.70 406.40 49.50Q404.80 47.30 403 45.30L403 45.30Q401.30 43.30 401.30 40.70L401.30 40.70Q401.30 38.20 402.90 36L402.90 36Q407.30 30.20 409.80 21.40L409.80 21.40Q410.20 20 411.35 19.15Q412.50 18.30 413.80 18.30L413.80 18.30Q415.70 18.30 416.85 19.45Q418 20.60 418 22.20L418 22.20Q418 22.50 417.95 22.75Q417.90 23 417.80 23.30L417.80 23.30Q416.50 28.50 414.55 32.70Q412.60 36.90 410.20 40.20L410.20 40.20Q409.90 40.60 410.20 41L410.20 41Q411.30 42.30 412.25 43.50Q413.20 44.70 414.20 46.10L414.20 46.10Q414.60 46.70 415 46L415 46Q419.80 37.50 422.20 27.50L422.20 27.50Q422.50 26.10 423.65 25.20Q424.80 24.30 426.20 24.30L426.20 24.30Q428.20 24.30 429.30 25.50Q430.40 26.70 430.40 28.40L430.40 28.40Q430.40 28.60 430.40 28.90Q430.40 29.20 430.30 29.40L430.30 29.40Q428.10 38.60 424.25 46.35Q420.40 54.10 415.20 60.30L415.20 60.30Q415 60.50 414.95 60.65Q414.90 60.80 414.90 60.80L414.90 60.80L415 60.90Q417.60 60.40 419.80 60Q422 59.60 423.80 59.10L423.80 59.10Q424.40 58.90 424.10 58.30L424.10 58.30Q423.90 57.80 423.65 57.20Q423.40 56.60 423.20 56.20L423.20 56.20Q422.80 55.40 422.80 54.40L422.80 54.40Q422.80 51.60 425.40 50.50L425.40 50.50Q426.20 50.20 427.10 50.20L427.10 50.20Q428.40 50.20 429.55 50.90Q430.70 51.60 431.30 52.90L431.30 52.90Q432.50 55.80 433.75 59.55Q435 63.30 435.90 67.20L435.90 67.20Q436 67.50 436 68.10L436 68.10Q436 69.70 434.80 71.05Q433.60 72.40 431.70 72.40L431.70 72.40Q430.40 72.40 429.20 71.45Q428 70.50 427.70 69.10L427.70 69.10ZM483 58L483 58Q484.40 58.50 485.15 59.65Q485.90 60.80 485.90 62.20L485.90 62.20Q485.90 64.10 484.65 65.30Q483.40 66.50 481.70 66.50L481.70 66.50Q481.40 66.50 481.10 66.45Q480.80 66.40 480.50 66.30L480.50 66.30Q469.60 62.90 459.40 55.30L459.40 55.30Q459 55 458.60 55.30L458.60 55.30Q453.60 59 449 61.70Q444.40 64.40 440.90 66L440.90 66Q440.20 66.30 439.30 66.30L439.30 66.30Q437.70 66.30 436.50 65.10Q435.30 63.90 435.30 62L435.30 62Q435.30 58.60 438.40 57.50L438.40 57.50Q442.10 56 445.40 54Q448.70 52 451.80 49.90L451.80 49.90Q452.30 49.40 451.80 49L451.80 49Q449.40 46.80 447.35 44.40Q445.30 42 443.60 39.70L443.60 39.70Q442.90 38.60 442.90 37.60L442.90 37.60Q442.90 35.30 445.10 34.20L445.10 34.20Q446.30 33.70 447.20 33.70L447.20 33.70Q449.70 33.70 451.30 35.80L451.30 35.80Q453 37.90 454.80 39.85Q456.60 41.80 458.60 43.60L458.60 43.60Q459 44 459.40 43.60L459.40 43.60Q462.60 40.70 465.05 38.05Q467.50 35.40 468.90 33.50L468.90 33.50Q469.40 32.80 468.50 32.80L468.50 32.80L440.60 32.80Q438.90 32.80 437.60 31.55Q436.30 30.30 436.30 28.60L436.30 28.60Q436.30 26.80 437.60 25.55Q438.90 24.30 440.60 24.30L440.60 24.30L477.40 24.30Q479.20 24.30 480.40 25.55Q481.60 26.80 481.60 28.40L481.60 28.40Q481.60 29.40 481.20 30.20L481.20 30.20Q478.50 35.40 474.60 40.10Q470.70 44.80 466.20 48.90L466.20 48.90Q465.80 49.30 466.20 49.80L466.20 49.80Q470 52.30 474.20 54.40Q478.40 56.50 483 58ZM463.30 82.30L463.30 96Q463.30 96.60 463.90 96.60L463.90 96.60L480.50 96.60Q482.20 96.60 483.50 97.85Q484.80 99.10 484.80 100.90L484.80 100.90Q484.80 102.70 483.50 103.95Q482.20 105.20 480.50 105.20L480.50 105.20L437.80 105.20Q436.10 105.20 434.85 103.95Q433.60 102.70 433.60 100.90L433.60 100.90Q433.60 99.10 434.85 97.85Q436.10 96.60 437.80 96.60L437.80 96.60L454 96.60Q454.60 96.60 454.60 96L454.60 96L454.60 82.30Q454.60 81.70 454 81.70L454 81.70L441.60 81.70Q439.80 81.70 438.55 80.40Q437.30 79.10 437.30 77.40L437.30 77.40Q437.30 75.60 438.60 74.35Q439.90 73.10 441.60 73.10L441.60 73.10L454 73.10Q454.60 73.10 454.60 72.50L454.60 72.50L454.60 62.80Q454.60 61 455.85 59.70Q457.10 58.40 458.90 58.40L458.90 58.40Q460.80 58.40 462.05 59.70Q463.30 61 463.30 62.80L463.30 62.80L463.30 72.50Q463.30 73.10 463.90 73.10L463.90 73.10L477.10 73.10Q478.90 73.10 480.15 74.40Q481.40 75.70 481.40 77.40L481.40 77.40Q481.40 79.10 480.15 80.40Q478.90 81.70 477.10 81.70L477.10 81.70L463.90 81.70Q463.30 81.70 463.30 82.30L463.30 82.30ZM408.50 72L408.50 72Q410.50 72 411.80 73.40Q413.10 74.80 412.90 76.70L412.90 76.70Q412.30 81.90 411 88.30Q409.70 94.70 407.90 100L407.90 100Q406.80 103.10 403.40 103.10L403.40 103.10Q401.50 103.10 400.40 101.95Q399.30 100.80 399.30 99.30L399.30 99.30Q399.30 98.40 399.60 97.70L399.60 97.70Q401.40 92.80 402.60 87.40Q403.80 82 404.50 75.60L404.50 75.60Q404.70 74 405.85 73Q407 72 408.50 72ZM435.50 89L435.50 89Q435.60 89.30 435.60 89.90L435.60 89.90Q435.60 91.40 434.45 92.60Q433.30 93.80 431.40 93.80L431.40 93.80Q430.10 93.80 429 92.90Q427.90 92 427.60 90.60L427.60 90.60Q426.20 84.40 423.30 79.30L423.30 79.30Q422.80 78.30 422.80 77.40L422.80 77.40Q422.80 74.90 425.10 74L425.10 74Q426 73.70 426.80 73.70L426.80 73.70Q428.20 73.70 429.40 74.40Q430.60 75.10 431.20 76.40L431.20 76.40Q432.40 79.10 433.55 82.30Q434.70 85.50 435.50 89Z" fill="#2E7D6E"/>
  <path d="M553.70 40.70L553.70 42Q553.70 42.60 554.30 42.60L554.30 42.60L576.30 42.60Q578.80 42.60 580.40 44.40Q582 46.20 581.70 48.60L581.70 48.60Q581.30 51.30 580.70 53.70L580.70 53.70Q578.80 60.60 569.70 60.70L569.70 60.70Q569.10 60.70 569.10 61.10L569.10 61.10Q569.10 61.50 569.15 61.75Q569.20 62 569.20 62.40L569.20 62.40L569.20 88.80Q569.20 91.30 567.40 93.10Q565.60 94.90 563.10 94.90L563.10 94.90L561.70 94.90Q561.40 94.90 561.30 95.20Q561.20 95.50 561.50 95.60L561.50 95.60Q564.70 96.30 568.20 96.90Q571.70 97.50 575.60 97.90L575.60 97.90Q577.30 98 578.35 99.20Q579.40 100.40 579.40 101.90L579.40 101.90Q579.40 103.90 577.80 105.30Q576.20 106.70 574.20 106.50L574.20 106.50Q569.40 106 564.40 105Q559.40 104 555.20 102.70L555.20 102.70Q553.80 102.20 552.90 101Q552 99.80 552 98.40L552 98.40Q552 98 552.05 97.70Q552.10 97.40 552.20 97.10L552.20 97.10Q552.50 96.30 553 95.60L553 95.60Q553.50 94.90 552.70 94.90L552.70 94.90L527.70 94.90Q526.90 94.90 527.40 95.60L527.40 95.60Q528 96.40 528.10 97L528.10 97Q528.30 97.80 528.30 98.30L528.30 98.30Q528.30 99.70 527.55 100.85Q526.80 102 525.40 102.50L525.40 102.50Q521.30 103.80 516.05 104.90Q510.80 106 506 106.50L506 106.50Q504.10 106.60 502.55 105.30Q501 104 501 101.90L501 101.90Q501 100.40 502.05 99.25Q503.10 98.10 504.70 97.90L504.70 97.90Q508.60 97.50 512.10 96.90Q515.60 96.30 518.70 95.60L518.70 95.60Q519 95.50 518.95 95.20Q518.90 94.90 518.60 94.90L518.60 94.90L516.90 94.90Q514.40 94.90 512.60 93.10Q510.80 91.30 510.80 88.80L510.80 88.80L510.80 63.40Q510.80 62.60 510.10 63L510.10 63Q506.60 64.30 502.10 65.40L502.10 65.40Q501.90 65.50 501.60 65.50Q501.30 65.50 501.10 65.50L501.10 65.50Q499.50 65.50 498.30 64.40Q497.10 63.30 497.10 61.50L497.10 61.50Q497.10 60 498.05 58.80Q499 57.60 500.60 57.30L500.60 57.30Q505.20 56.20 509.35 54.50Q513.50 52.80 516.90 50.40L516.90 50.40Q517.30 50.20 517.15 49.95Q517 49.70 516.60 49.70L516.60 49.70L507.50 49.70Q505.90 49.70 504.75 48.45Q503.60 47.20 503.60 45.60L503.60 45.60Q503.60 45.20 503.65 44.90Q503.70 44.60 503.80 44.20L503.80 44.20Q504.30 42.80 504.65 41.50Q505 40.20 505.30 38.80L505.30 38.80Q505.90 36.30 507.75 34.70Q509.60 33.10 512 33.10L512 33.10L525.50 33.10Q526.10 33.10 526.10 32.50L526.10 32.50L526.10 31Q526.10 30.40 525.50 30.40L525.50 30.40L506.70 30.40Q505.30 30.40 504.25 29.40Q503.20 28.40 503.20 26.90L503.20 26.90Q503.20 25.50 504.20 24.45Q505.20 23.40 506.70 23.40L506.70 23.40L525.50 23.40Q526.10 23.40 526.10 22.80L526.10 22.80L526.10 22.60Q526.10 20.90 527.35 19.70Q528.60 18.50 530.20 18.50L530.20 18.50Q531.90 18.50 533.10 19.70Q534.30 20.90 534.30 22.60L534.30 22.60L534.30 22.80Q534.30 23.40 534.90 23.40L534.90 23.40L544.60 23.40Q545.20 23.40 545.20 22.80L545.20 22.80L545.20 22.70Q545.20 21 546.45 19.75Q547.70 18.50 549.50 18.50L549.50 18.50Q551.20 18.50 552.45 19.75Q553.70 21 553.70 22.70L553.70 22.70L553.70 22.80Q553.70 23.40 554.30 23.40L554.30 23.40L568.70 23.40Q571.20 23.40 572.90 25.15Q574.60 26.90 574.60 29.30L574.60 29.30L574.60 34.20Q574.60 36.70 572.85 38.40Q571.10 40.10 568.70 40.10L568.70 40.10L554.30 40.10Q553.70 40.10 553.70 40.70L553.70 40.70ZM545.20 32.50L545.20 31Q545.20 30.40 544.60 30.40L544.60 30.40L534.90 30.40Q534.30 30.40 534.30 31L534.30 31L534.30 32.50Q534.30 33.10 534.90 33.10L534.90 33.10L544.60 33.10Q545.20 33.10 545.20 32.50L545.20 32.50ZM554.30 33.10L565.80 33.10Q566.40 33.10 566.40 32.50L566.40 32.50L566.40 31Q566.40 30.40 565.80 30.40L565.80 30.40L554.30 30.40Q553.70 30.40 553.70 31L553.70 31L553.70 32.50Q553.70 33.10 554.30 33.10L554.30 33.10ZM525 40.80L525 40.80Q525.40 40.10 524.60 40.10L524.60 40.10L513.80 40.10Q513.30 40.10 513.10 40.70L513.10 40.70Q513 41 512.95 41.30Q512.90 41.60 512.80 41.90L512.80 41.90Q512.60 42.60 513.30 42.60L513.30 42.60L523.70 42.60Q524.30 42.60 524.40 42.10L524.40 42.10Q524.60 41.80 524.75 41.45Q524.90 41.10 525 40.80ZM533.30 41.90L533.30 41.90Q533.10 42.60 533.80 42.60L533.80 42.60L544.60 42.60Q545.20 42.60 545.20 42L545.20 42L545.20 40.70Q545.20 40.10 544.60 40.10L544.60 40.10L534.30 40.10Q533.90 40.10 533.70 40.60L533.70 40.60Q533.60 40.90 533.50 41.25Q533.40 41.60 533.30 41.90ZM572.90 51.40L572.90 51.40L573.10 50.30Q573.30 49.70 572.50 49.70L572.50 49.70L554.30 49.70Q553.70 49.70 553.70 50.30L553.70 50.30L553.70 51.50Q553.70 53.20 552.45 54.50Q551.20 55.80 549.50 55.80L549.50 55.80Q547.70 55.80 546.45 54.50Q545.20 53.20 545.20 51.50L545.20 51.50L545.20 50.30Q545.20 49.70 544.60 49.70L544.60 49.70L529.90 49.70Q529.40 49.70 529.10 50.10L529.10 50.10Q527.20 52.70 523.70 55.60L523.70 55.60Q523.30 55.80 523.40 56.05Q523.50 56.30 523.90 56.30L523.90 56.30L563.60 56.30Q564.20 56.30 564.20 56.20L564.20 56.20Q564.30 54.50 565.60 53.50Q566.90 52.50 568.60 52.70L568.60 52.70Q569 52.80 569.30 52.80Q569.60 52.80 570 52.80L570 52.80Q572.60 52.80 572.90 51.40ZM519.40 64.60L519.40 66.20Q519.40 66.80 520 66.80L520 66.80L560 66.80Q560.60 66.80 560.60 66.20L560.60 66.20L560.60 64.60Q560.60 64 560 64L560 64L520 64Q519.40 64 519.40 64.60L519.40 64.60ZM560.60 76.50L560.60 74.70Q560.60 74.10 560 74.10L560 74.10L520 74.10Q519.40 74.10 519.40 74.70L519.40 74.70L519.40 76.50Q519.40 77.10 520 77.10L520 77.10L560 77.10Q560.60 77.10 560.60 76.50L560.60 76.50ZM560 84.40L520 84.40Q519.40 84.40 519.40 85L519.40 85L519.40 86.50Q519.40 87.10 520 87.10L520 87.10L560 87.10Q560.60 87.10 560.60 86.50L560.60 86.50L560.60 85Q560.60 84.40 560 84.40L560 84.40Z" fill="#2E7D6E"/>
  <rect x="69.42" y="26.06" width="6.66" height="19.58" rx="3.33" fill="#B3492E" transform="rotate(35 72.75 35.85)"/>
  <rect x="77.14" y="22.87" width="6.53" height="17.67" rx="3.26" fill="#E58A64" transform="rotate(32 80.4 31.7)"/>
  <rect x="174.48" y="22.39" width="6.64" height="19.52" rx="3.32" fill="#B3492E" transform="rotate(35 177.8 32.15)"/>
  <rect x="182.19" y="19.19" width="6.51" height="17.62" rx="3.26" fill="#E58A64" transform="rotate(32 185.45 28)"/>
</svg>
