<svg xmlns="http://www.w3.org/2000/svg" viewBox="0 7.97 400 102.73">
  <!-- バディス JP wordmark — Kiwi Maru Medium outlined, 濁点=ブランドシンボル置換 -->
  <path d="M85.50 90.50L85.50 90.50Q83.90 90.50 82.65 89.40Q81.40 88.30 81.10 86.60L81.10 86.60Q80 80 77.15 74.60Q74.30 69.20 70.60 64.70Q66.90 60.20 63.25 56.35Q59.60 52.50 56.80 48.90L56.80 48.90Q55.90 47.80 55.90 46.40L55.90 46.40Q55.90 44 58 42.70L58 42.70Q59 42 60.50 42L60.50 42Q61.60 42 62.65 42.45Q63.70 42.90 64.40 43.90L64.40 43.90Q67 47.30 70.80 51.30Q74.60 55.30 78.50 60.15Q82.40 65 85.55 71.15Q88.70 77.30 90.10 85L90.10 85Q90.40 87 89 88.75Q87.60 90.50 85.50 90.50ZM17.40 89L17.40 89Q16.10 90 14.50 90L14.50 90Q12.40 90 11 88.30L11 88.30Q10.10 87.10 10.10 85.50L10.10 85.50Q10.10 84.40 10.50 83.45Q10.90 82.50 11.80 81.80L11.80 81.80Q18.70 76 22.80 70.20Q26.90 64.40 29.25 58.85Q31.60 53.30 33.10 48.30L33.10 48.30Q33.60 46.80 34.80 45.90Q36 45 37.50 45L37.50 45Q39.50 45 40.80 46.40Q42.10 47.80 42.10 49.70L42.10 49.70Q42.10 50.20 41.90 51L41.90 51Q39.80 57.90 36.80 64.30Q33.80 70.70 29.15 76.80Q24.50 82.90 17.40 89Z" fill="#33241D"/>
  <path d="M125.20 41.50L125.20 41.50Q123.40 41.60 122.10 40.35Q120.80 39.10 120.80 37.30L120.80 37.30Q120.80 35.40 122.05 34.10Q123.30 32.80 125.20 32.70L125.20 32.70Q129.60 32.50 136.20 32.40Q142.80 32.30 149.60 32.30L149.60 32.30Q155.30 32.30 160.50 32.40Q165.70 32.50 169.30 32.70L169.30 32.70Q171 32.80 172.25 34.15Q173.50 35.50 173.50 37.30L173.50 37.30Q173.50 39.20 172.20 40.45Q170.90 41.70 169 41.60L169 41.60Q165.20 41.40 159.35 41.30Q153.50 41.20 147.30 41.20L147.30 41.20Q141 41.20 135.15 41.25Q129.30 41.30 125.20 41.50ZM180.30 53.40L180.30 53.40Q182.10 53.40 183.35 54.70Q184.60 56 184.60 57.70L184.60 57.70Q184.60 59.60 183.30 60.90Q182 62.20 180.20 62.20L180.20 62.20L155.70 62.20Q154.80 62.20 154.80 63.10L154.80 63.10Q154.80 73.10 152.50 80.10Q150.20 87.10 146 92.20Q141.80 97.30 136.20 101.60L136.20 101.60Q135.30 102.40 133.80 102.40L133.80 102.40Q131.40 102.40 130.20 100.30L130.20 100.30Q129.60 99.10 129.60 97.80L129.60 97.80Q129.60 95.40 131.50 93.90L131.50 93.90Q137.70 89 140.70 84.20Q143.70 79.40 144.65 74.25Q145.60 69.10 145.70 63.20L145.70 63.20Q145.70 62.30 144.80 62.30L144.80 62.30Q136.40 62.40 128.65 62.70Q120.90 63 115.60 63.50L115.60 63.50Q113.80 63.60 112.45 62.40Q111.10 61.20 111.10 59.40L111.10 59.40Q111.10 57.50 112.40 56.10Q113.70 54.70 115.50 54.60L115.50 54.60Q120 54.30 126 54Q132 53.70 138.80 53.55Q145.60 53.40 152.55 53.30Q159.50 53.20 165.80 53.20L165.80 53.20Q170 53.20 173.70 53.25Q177.40 53.30 180.30 53.40Z" fill="#33241D"/>
  <path d="M265.60 39.60L265.60 39.60Q268 41 268 43.80L268 43.80Q268 44.70 267.50 45.90L267.50 45.90Q265.40 49.90 262.80 53.80Q260.20 57.70 257 61.50L257 61.50Q256.50 61.90 256.70 62.70L256.70 62.70Q257.60 65.70 258.05 69.80Q258.50 73.90 258.50 79.80L258.50 79.80Q258.50 83.50 258.30 88.20Q258.10 92.90 257.70 98.70L257.70 98.70Q257.60 100.40 256.35 101.55Q255.10 102.70 253.40 102.70L253.40 102.70Q251.50 102.70 250.30 101.35Q249.10 100 249.20 98.10L249.20 98.10Q249.70 92.60 249.95 87.80Q250.20 83 250.20 79L250.20 79Q250.20 76.70 250.10 74.60Q250 72.50 249.80 70.70L249.80 70.70Q249.60 69.40 248.60 70.30L248.60 70.30Q244.30 74.30 239.50 77.75Q234.70 81.20 230 83.50L230 83.50Q229.20 83.90 228.20 83.90L228.20 83.90Q225.40 83.90 224.30 81.30L224.30 81.30Q224 80.50 224 79.60L224 79.60Q224 78.40 224.60 77.30Q225.20 76.20 226.40 75.60L226.40 75.60Q234.70 71.40 241.25 65.60Q247.80 59.80 252.50 53.45Q257.20 47.10 260 41.30L260 41.30Q261.10 39 263.50 39L263.50 39Q264.60 39 265.60 39.60Z" fill="#33241D"/>
  <path d="M381.30 94.40L381.30 94.40Q382.20 95.60 382.20 97.10L382.20 97.10Q382.20 99.50 380.30 101.10L380.30 101.10Q379.10 102 377.70 102L377.70 102Q375.50 102 374.10 100.20L374.10 100.20Q371 95.60 366.70 91.40Q362.40 87.20 357.65 83.90Q352.90 80.60 348.10 78.70L348.10 78.70Q347.40 78.40 346.90 78.90L346.90 78.90Q340.50 84.90 332.25 90.60Q324 96.30 313.60 101L313.60 101Q312.80 101.40 311.80 101.40L311.80 101.40Q310.20 101.40 308.90 100.20Q307.60 99 307.60 97.10L307.60 97.10Q307.60 95.60 308.45 94.30Q309.30 93 310.70 92.40L310.70 92.40Q320.40 88.10 328.15 82.65Q335.90 77.20 341.65 71.45Q347.40 65.70 351.20 60.45Q355 55.20 356.80 51.50L356.80 51.50Q358.80 47.20 358.80 44.90L358.80 44.90Q358.80 41.80 354.80 41.80L354.80 41.80Q354.20 41.80 353.55 41.80Q352.90 41.80 352.10 42L352.10 42Q348.70 42.50 343 43Q337.30 43.50 330.55 43.80Q323.80 44.10 317.30 44.10L317.30 44.10Q315.60 44.10 314.35 42.85Q313.10 41.60 313.10 39.80L313.10 39.80Q313.10 37.90 314.40 36.60Q315.70 35.30 317.60 35.30L317.60 35.30L322.10 35.30Q330.90 35.30 338.70 34.70Q346.50 34.10 350.80 33.30L350.80 33.30Q351.90 33.10 352.90 33Q353.90 32.90 354.90 32.90L354.90 32.90Q360.90 32.90 364.25 36.15Q367.60 39.40 367.60 44.80L367.60 44.80Q367.60 49.80 364.80 55.50L364.80 55.50Q363.20 58.80 360.70 62.60Q358.20 66.40 354.80 70.50L354.80 70.50Q354.60 70.70 354.60 71.10L354.60 71.10Q354.60 71.50 355.10 71.80L355.10 71.80Q360.10 74.30 365 78.05Q369.90 81.80 374.10 86.05Q378.30 90.30 381.30 94.40Z" fill="#33241D"/>
  <rect x="69.42" y="26.06" width="6.66" height="19.58" rx="3.33" fill="#B3492E" transform="rotate(35 72.75 35.85)"/>
  <rect x="77.14" y="22.87" width="6.53" height="17.67" rx="3.26" fill="#E58A64" transform="rotate(32 80.4 31.7)"/>
  <rect x="174.48" y="22.39" width="6.64" height="19.52" rx="3.32" fill="#B3492E" transform="rotate(35 177.8 32.15)"/>
  <rect x="182.19" y="19.19" width="6.51" height="17.62" rx="3.26" fill="#E58A64" transform="rotate(32 185.45 28)"/>
</svg>
