<svg xmlns="http://www.w3.org/2000/svg" viewBox="-8 23.7 405.64 117.8">
  <!-- P6 タグライン付き — ビジョンを添える -->
  <path d="M30.10 51.30L30.10 51.30Q36.50 51.30 41.65 54.05Q46.80 56.80 49.80 62.35Q52.80 67.90 52.80 76.20L52.80 76.20Q52.80 84.60 49.65 90.20Q46.50 95.80 40.85 98.60Q35.20 101.40 27.70 101.40L27.70 101.40Q22 101.40 17.75 100.05Q13.50 98.70 10.60 96.90L10.60 96.90Q8.50 95.40 7.55 93.85Q6.60 92.30 6.60 90L6.60 90L6.60 57.70L18.90 57.70L18.90 89.20Q20.20 90.10 22.45 90.85Q24.70 91.60 27.60 91.60L27.60 91.60Q33.30 91.60 36.75 87.80Q40.20 84 40.20 76.20L40.20 76.20Q40.20 68.30 36.80 64.70Q33.40 61.10 27.90 61.10L27.90 61.10Q24.40 61.10 21.70 62.40Q19 63.70 17.10 65.40L17.10 65.40L16.30 55.40Q18.60 54 22.05 52.65Q25.50 51.30 30.10 51.30ZM18.90 39.90L18.90 60.50L6.60 60.50L6.60 35Q7.40 34.80 8.90 34.50Q10.40 34.20 12.20 34.20L12.20 34.20Q15.70 34.20 17.30 35.45Q18.90 36.70 18.90 39.90L18.90 39.90Z" fill="#33241D"/>
  <path d="M61.80 81.90L61.80 81.90L61.80 74L74.10 74L74.10 81.70Q74.10 87 76.85 89.30Q79.60 91.60 84.50 91.60L84.50 91.60Q87.70 91.60 89.90 91Q92.10 90.40 93.20 89.70L93.20 89.70L93.20 74L105.50 74L105.50 90.70Q105.50 93 104.75 94.55Q104 96.10 101.90 97.40L101.90 97.40Q99 99.10 94.55 100.25Q90.10 101.40 84.40 101.40L84.40 101.40Q77.50 101.40 72.40 99.40Q67.30 97.40 64.55 93.05Q61.80 88.70 61.80 81.90ZM105.50 57.80L105.50 78.80L93.20 78.80L93.20 52.80Q94 52.60 95.55 52.35Q97.10 52.10 98.80 52.10L98.80 52.10Q102.30 52.10 103.90 53.30Q105.50 54.50 105.50 57.80L105.50 57.80ZM74.10 57.80L74.10 78.80L61.80 78.80L61.80 52.80Q62.60 52.60 64.10 52.35Q65.60 52.10 67.40 52.10L67.40 52.10Q70.90 52.10 72.50 53.30Q74.10 54.50 74.10 57.80L74.10 57.80Z" fill="#33241D"/>
  <path d="M148.10 89.60L148.10 89.60L148.10 58.20L160.40 58.20L160.40 90.90Q160.40 93.10 159.45 94.55Q158.50 96 156.40 97.30L156.40 97.30Q154 98.90 149.85 100.15Q145.70 101.40 140.40 101.40L140.40 101.40Q132.50 101.40 126.65 98.75Q120.80 96.10 117.60 90.55Q114.40 85 114.40 76.50L114.40 76.50Q114.40 67.80 117.65 62.20Q120.90 56.60 126.40 53.95Q131.90 51.30 138.60 51.30L138.60 51.30Q142.30 51.30 145.35 52.20Q148.40 53.10 150.30 54.30L150.30 54.30L150.30 64.80Q148.70 63.30 146.10 62.20Q143.50 61.10 140.10 61.10L140.10 61.10Q136.40 61.10 133.40 62.65Q130.40 64.20 128.70 67.65Q127 71.10 127 76.60L127 76.60Q127 84.40 130.60 88Q134.20 91.60 140.30 91.60L140.30 91.60Q143 91.60 144.90 91Q146.80 90.40 148.10 89.60ZM160.40 39.90L160.40 60.70L148.10 60.80L148.10 35Q148.80 34.80 150.35 34.50Q151.90 34.20 153.60 34.20L153.60 34.20Q157.20 34.20 158.80 35.45Q160.40 36.70 160.40 39.90L160.40 39.90Z" fill="#B3492E"/>
  <path d="M196.20 89.60L196.20 89.60L196.20 58.20L208.50 58.20L208.50 90.90Q208.50 93.10 207.55 94.55Q206.60 96 204.50 97.30L204.50 97.30Q202.10 98.90 197.95 100.15Q193.80 101.40 188.50 101.40L188.50 101.40Q180.60 101.40 174.75 98.75Q168.90 96.10 165.70 90.55Q162.50 85 162.50 76.50L162.50 76.50Q162.50 67.80 165.75 62.20Q169 56.60 174.50 53.95Q180 51.30 186.70 51.30L186.70 51.30Q190.40 51.30 193.45 52.20Q196.50 53.10 198.40 54.30L198.40 54.30L198.40 64.80Q196.80 63.30 194.20 62.20Q191.60 61.10 188.20 61.10L188.20 61.10Q184.50 61.10 181.50 62.65Q178.50 64.20 176.80 67.65Q175.10 71.10 175.10 76.60L175.10 76.60Q175.10 84.40 178.70 88Q182.30 91.60 188.40 91.60L188.40 91.60Q191.10 91.60 193 91Q194.90 90.40 196.20 89.60ZM208.50 39.90L208.50 60.70L196.20 60.80L196.20 35Q196.90 34.80 198.45 34.50Q200 34.20 201.70 34.20L201.70 34.20Q205.30 34.20 206.90 35.45Q208.50 36.70 208.50 39.90L208.50 39.90Z" fill="#B3492E"/>
  <path d="M219.40 38.60L219.40 38.60Q219.40 35.70 221.45 33.70Q223.50 31.70 226.60 31.70L226.60 31.70Q229.80 31.70 231.75 33.70Q233.70 35.70 233.70 38.60L233.70 38.60Q233.70 41.40 231.75 43.45Q229.80 45.50 226.60 45.50L226.60 45.50Q223.50 45.50 221.45 43.45Q219.40 41.40 219.40 38.60ZM220.40 94.90L220.40 73.60L232.80 73.60L232.80 99.80Q232 100.10 230.50 100.35Q229 100.60 227.20 100.60L227.20 100.60Q223.80 100.60 222.10 99.35Q220.40 98.10 220.40 94.90L220.40 94.90ZM232.80 58.10L232.80 79.90L220.40 79.90L220.40 53.10Q221.20 52.80 222.75 52.55Q224.30 52.30 226.10 52.30L226.10 52.30Q229.60 52.30 231.20 53.55Q232.80 54.80 232.80 58.10L232.80 58.10Z" fill="#33241D"/>
  <path d="M281.20 86.60L281.20 86.60Q281.20 93.60 276 97.55Q270.80 101.50 260.90 101.50L260.90 101.50Q252.90 101.50 247.80 99.10Q242.70 96.70 242.70 92.70L242.70 92.70Q242.70 91 243.50 89.55Q244.30 88.10 245.60 87.30L245.60 87.30Q248.40 89.10 252.10 90.50Q255.80 91.90 260.50 91.90L260.50 91.90Q269 91.90 269 86.70L269 86.70Q269 84.50 267.50 83.15Q266 81.80 262.90 81.20L262.90 81.20L257.20 79.70Q249.90 78.10 246.35 74.70Q242.80 71.30 242.80 65.60L242.80 65.60Q242.80 59.30 248 55.25Q253.20 51.20 262.40 51.20L262.40 51.20Q267.20 51.20 271 52.15Q274.80 53.10 276.95 54.90Q279.10 56.70 279.10 59.20L279.10 59.20Q279.10 60.90 278.35 62.25Q277.60 63.60 276.40 64.30L276.40 64.30Q275.20 63.60 273.15 62.75Q271.10 61.90 268.50 61.35Q265.90 60.80 263.30 60.80L263.30 60.80Q259.40 60.80 257.15 62.05Q254.90 63.30 254.90 65.60L254.90 65.60Q254.90 67.30 256.20 68.50Q257.50 69.70 260.60 70.40L260.60 70.40L265.70 71.60Q273.80 73.50 277.50 77.15Q281.20 80.80 281.20 86.60Z" fill="#33241D"/>
  <path d="M16.15 119.72L16.15 119.72Q16.60 119.94 16.60 120.40L16.60 120.40Q16.60 120.71 16.41 120.90Q16.23 121.08 15.98 121.08L15.98 121.08Q15.83 121.08 15.72 121.02L15.72 121.02Q15.00 120.70 14.20 120.22Q13.39 119.73 12.59 119.17Q11.78 118.60 11.06 117.99Q10.34 117.38 9.78 116.81L9.78 116.81Q9.73 116.73 9.66 116.81L9.66 116.81Q9.18 117.35 8.48 117.97Q7.78 118.59 6.98 119.18Q6.17 119.78 5.36 120.28Q4.54 120.77 3.81 121.10L3.81 121.10Q3.71 121.14 3.57 121.14L3.57 121.14Q3.32 121.14 3.12 120.95Q2.91 120.76 2.91 120.46L2.91 120.46Q2.91 119.98 3.40 119.75L3.40 119.75Q4.15 119.41 4.95 118.90Q5.75 118.39 6.51 117.80Q7.27 117.21 7.93 116.60Q8.59 116.00 9.05 115.47L9.05 115.47Q9.32 115.16 9.72 115.16L9.72 115.16Q10.09 115.16 10.37 115.44L10.37 115.44Q10.99 116.09 11.93 116.89Q12.87 117.69 13.96 118.43Q15.05 119.18 16.15 119.72ZM10.54 123.63L10.54 126.72Q10.54 126.82 10.63 126.82L10.63 126.82L15.73 126.82Q16.00 126.82 16.20 127.01Q16.40 127.21 16.40 127.48L16.40 127.48Q16.40 127.75 16.21 127.95Q16.01 128.15 15.73 128.15L15.73 128.15L3.77 128.15Q3.50 128.15 3.30 127.96Q3.10 127.76 3.10 127.48L3.10 127.48Q3.10 127.21 3.30 127.01Q3.50 126.82 3.77 126.82L3.77 126.82L5.63 126.82Q5.72 126.82 5.72 126.72L5.72 126.72L5.72 122.34Q5.72 122.08 5.91 121.87Q6.11 121.67 6.39 121.67L6.39 121.67Q6.67 121.67 6.86 121.87Q7.05 122.08 7.05 122.34L7.05 122.34L7.05 126.72Q7.05 126.82 7.15 126.82L7.15 126.82L9.11 126.82Q9.21 126.82 9.21 126.72L9.21 126.72L9.21 119.63Q9.21 119.35 9.41 119.15Q9.61 118.96 9.87 118.96L9.87 118.96Q10.15 118.96 10.35 119.15Q10.54 119.35 10.54 119.63L10.54 119.63L10.54 122.12Q10.54 122.21 10.63 122.21L10.63 122.21L14.01 122.21Q14.29 122.21 14.49 122.41Q14.68 122.60 14.68 122.88L14.68 122.88Q14.68 123.14 14.49 123.34Q14.29 123.53 14.01 123.53L14.01 123.53L10.63 123.53Q10.54 123.53 10.54 123.63L10.54 123.63Z" fill="#33241D"/>
  <path d="M32.57 126.68L32.57 126.68Q32.80 126.74 32.94 126.93Q33.08 127.13 33.08 127.34L33.08 127.34Q33.08 127.64 32.89 127.83Q32.70 128.01 32.43 128.01L32.43 128.01Q32.32 128.01 32.26 128.00L32.26 128.00Q31.47 127.78 30.55 127.41Q29.63 127.03 28.75 126.59Q27.88 126.14 27.19 125.70L27.19 125.70Q27.15 125.67 27.12 125.69Q27.09 125.72 27.09 125.76L27.09 125.76L27.09 127.81Q27.09 128.07 26.88 128.28Q26.68 128.48 26.40 128.48L26.40 128.48Q26.12 128.48 25.92 128.28Q25.72 128.09 25.72 127.81L25.72 127.81L25.72 125.86Q25.72 125.72 25.61 125.80L25.61 125.80Q24.88 126.28 23.95 126.72Q23.02 127.17 22.13 127.52Q21.24 127.87 20.59 128.06L20.59 128.06Q20.54 128.07 20.51 128.08Q20.47 128.09 20.42 128.09L20.42 128.09Q20.17 128.09 19.97 127.89Q19.77 127.69 19.77 127.39L19.77 127.39Q19.77 127.17 19.92 126.98Q20.08 126.79 20.33 126.72L20.33 126.72Q20.87 126.57 21.54 126.32Q22.20 126.07 22.88 125.76Q23.57 125.44 24.16 125.10L24.16 125.10Q24.23 125.07 24.22 125.03Q24.20 124.99 24.13 124.99L24.13 124.99L20.59 124.99Q20.33 124.99 20.13 124.80Q19.92 124.60 19.92 124.34L19.92 124.34Q19.92 124.07 20.12 123.88Q20.31 123.69 20.59 123.69L20.59 123.69L25.63 123.69Q25.72 123.69 25.72 123.59L25.72 123.59L25.72 123.11Q25.72 123.02 25.63 123.02L25.63 123.02L21.89 123.02Q21.63 123.02 21.44 122.82Q21.24 122.62 21.24 122.35L21.24 122.35Q21.24 122.09 21.44 121.90Q21.63 121.70 21.89 121.70L21.89 121.70L25.63 121.70Q25.72 121.70 25.72 121.61L25.72 121.61L25.72 121.13Q25.72 121.04 25.63 121.04L25.63 121.04L21.16 121.04Q20.90 121.04 20.71 120.84Q20.51 120.65 20.51 120.39L20.51 120.39Q20.51 120.12 20.71 119.93Q20.90 119.73 21.16 119.73L21.16 119.73L23.86 119.73Q23.91 119.73 23.93 119.70Q23.95 119.67 23.92 119.63L23.92 119.63Q23.88 119.50 23.82 119.39Q23.77 119.28 23.69 119.18L23.69 119.18Q23.60 119.01 23.60 118.85L23.60 118.85Q23.60 118.60 23.75 118.40L23.75 118.40Q23.80 118.37 23.79 118.34Q23.78 118.31 23.72 118.31L23.72 118.31L20.61 118.31Q20.34 118.31 20.14 118.12Q19.94 117.94 19.94 117.66L19.94 117.66Q19.94 117.39 20.14 117.20Q20.34 117.01 20.61 117.01L20.61 117.01L22.20 117.01Q22.33 117.01 22.27 116.90L22.27 116.90Q22.14 116.67 21.99 116.44Q21.85 116.22 21.64 115.97L21.64 115.97Q21.51 115.78 21.51 115.56L21.51 115.56Q21.51 115.25 21.77 115.07L21.77 115.07Q21.99 114.93 22.22 114.93L22.22 114.93Q22.57 114.93 22.78 115.21L22.78 115.21Q23.02 115.55 23.28 116.02Q23.54 116.50 23.75 116.94L23.75 116.94Q23.77 117.01 23.86 117.01L23.86 117.01L24.43 117.01Q24.53 117.01 24.53 116.91L24.53 116.91L24.53 115.55Q24.53 115.29 24.72 115.08Q24.92 114.88 25.19 114.88L25.19 114.88Q25.46 114.88 25.65 115.08Q25.85 115.27 25.85 115.55L25.85 115.55L25.85 116.91Q25.85 117.01 25.94 117.01L25.94 117.01L26.96 117.01Q27.05 117.01 27.05 116.91L27.05 116.91L27.05 115.55Q27.05 115.29 27.25 115.08Q27.44 114.88 27.72 114.88L27.72 114.88Q27.98 114.88 28.18 115.08Q28.37 115.27 28.37 115.55L28.37 115.55L28.37 116.91Q28.37 117.01 28.46 117.01L28.46 117.01L28.71 117.01Q28.77 117.01 28.82 116.96L28.82 116.96Q29.09 116.65 29.35 116.24Q29.61 115.83 29.86 115.35L29.86 115.35Q30.06 114.96 30.48 114.96L30.48 114.96Q30.79 114.96 30.97 115.15Q31.15 115.33 31.15 115.58L31.15 115.58Q31.15 115.74 31.08 115.84L31.08 115.84Q30.96 116.11 30.82 116.38Q30.68 116.65 30.53 116.90L30.53 116.90Q30.50 116.94 30.52 116.98Q30.54 117.01 30.59 117.01L30.59 117.01L32.29 117.01Q32.56 117.01 32.75 117.20Q32.94 117.39 32.94 117.66L32.94 117.66Q32.94 117.94 32.75 118.12Q32.56 118.31 32.29 118.31L32.29 118.31L29.13 118.31Q28.99 118.31 29.10 118.42L29.10 118.42Q29.27 118.62 29.27 118.88L29.27 118.88Q29.27 119.07 29.19 119.21L29.19 119.21Q29.13 119.32 29.08 119.42Q29.02 119.52 28.95 119.63L28.95 119.63Q28.87 119.73 29.01 119.73L29.01 119.73L31.74 119.73Q32.00 119.73 32.19 119.93Q32.39 120.12 32.39 120.39L32.39 120.39Q32.39 120.65 32.19 120.84Q32.00 121.04 31.74 121.04L31.74 121.04L27.18 121.04Q27.09 121.04 27.09 121.13L27.09 121.13L27.09 121.61Q27.09 121.70 27.18 121.70L27.18 121.70L31.01 121.70Q31.27 121.70 31.46 121.90Q31.66 122.09 31.66 122.35L31.66 122.35Q31.66 122.63 31.46 122.83Q31.27 123.02 31.01 123.02L31.01 123.02L27.18 123.02Q27.09 123.02 27.09 123.11L27.09 123.11L27.09 123.59Q27.09 123.69 27.18 123.69L27.18 123.69L32.31 123.69Q32.59 123.69 32.77 123.88Q32.96 124.07 32.96 124.34L32.96 124.34Q32.96 124.60 32.77 124.80Q32.59 124.99 32.31 124.99L32.31 124.99L28.84 124.99Q28.77 124.99 28.77 125.04Q28.77 125.08 28.84 125.11L28.84 125.11Q29.74 125.59 30.75 126.02Q31.77 126.45 32.57 126.68ZM24.85 118.53L24.85 118.53Q25.02 118.79 25.16 119.08Q25.30 119.36 25.41 119.66L25.41 119.66Q25.43 119.73 25.52 119.73L25.52 119.73L27.09 119.73Q27.15 119.73 27.19 119.69L27.19 119.69Q27.66 119.18 27.94 118.59L27.94 118.59Q27.98 118.49 28.06 118.42L28.06 118.42Q28.14 118.31 28.02 118.31L28.02 118.31L24.79 118.31Q24.67 118.31 24.76 118.40L24.76 118.40Q24.79 118.43 24.85 118.53Z" fill="#33241D"/>
  <path d="M43.77 127.21L43.77 127.21Q43.48 127.24 43.23 127.02Q42.98 126.80 42.98 126.48L42.98 126.48Q42.98 126.23 43.15 126.04Q43.32 125.86 43.57 125.81L43.57 125.81Q45.46 125.52 46.47 124.54Q47.49 123.56 47.49 122.04L47.49 122.04Q47.49 121.14 47.06 120.40Q46.62 119.66 45.87 119.20Q45.12 118.74 44.19 118.70L44.19 118.70Q44.06 118.70 44.03 118.82L44.03 118.82Q43.71 120.29 43.24 121.63Q42.76 122.97 42.17 124.02Q41.57 125.07 40.89 125.67Q40.22 126.28 39.49 126.28L39.49 126.28Q39.31 126.28 39.12 126.23L39.12 126.23Q38.34 126.04 37.95 125.30Q37.55 124.56 37.55 123.55L37.55 123.55Q37.55 122.63 37.87 121.64Q38.19 120.65 38.83 119.78L38.83 119.78Q39.74 118.54 41.07 117.94Q42.39 117.33 43.74 117.33L43.74 117.33Q44.85 117.33 45.87 117.72Q46.89 118.11 47.64 118.87Q48.39 119.64 48.70 120.76L48.70 120.76Q48.88 121.38 48.88 122.06L48.88 122.06Q48.88 122.90 48.58 123.73Q48.28 124.57 47.66 125.29Q47.04 126.01 46.07 126.52Q45.10 127.02 43.77 127.21ZM39.04 124.59L39.04 124.59Q39.23 124.91 39.51 124.91L39.51 124.91Q39.88 124.91 40.32 124.37Q40.76 123.83 41.20 122.94Q41.63 122.06 42.00 121.01Q42.38 119.97 42.59 118.97L42.59 118.97L42.59 118.96Q42.59 118.85 42.41 118.85L42.41 118.85Q42.36 118.85 42.31 118.86Q42.27 118.87 42.22 118.88L42.22 118.88Q41.32 119.15 40.68 119.68Q40.03 120.22 39.62 120.90Q39.21 121.58 39.02 122.27Q38.83 122.96 38.83 123.55L38.83 123.55Q38.83 124.20 39.04 124.59Z" fill="#33241D"/>
  <path d="M66.70 126.74L66.70 126.74Q66.84 126.94 66.84 127.21L66.84 127.21Q66.84 127.59 66.53 127.81L66.53 127.81Q65.68 128.40 64.83 128.40L64.83 128.40Q64.33 128.40 63.82 128.18L63.82 128.18Q63.24 127.92 62.78 127.41Q62.31 126.91 61.96 126.31L61.96 126.31Q61.91 126.20 61.83 126.28L61.83 126.28Q60.19 127.59 58.01 128.12L58.01 128.12Q57.97 128.14 57.93 128.14Q57.88 128.14 57.85 128.14L57.85 128.14Q57.59 128.14 57.39 127.94Q57.18 127.75 57.18 127.45L57.18 127.45Q57.18 127.22 57.32 127.03Q57.46 126.85 57.71 126.79L57.71 126.79Q58.76 126.51 59.66 126.06Q60.56 125.61 61.28 124.99L61.28 124.99Q61.34 124.94 61.31 124.86L61.31 124.86Q61.24 124.73 61.20 124.58Q61.15 124.43 61.11 124.29L61.11 124.29Q60.72 123.11 60.50 121.72Q60.28 120.32 60.22 118.87L60.22 118.87Q60.22 118.77 60.13 118.77L60.13 118.77L55.93 118.77Q55.84 118.77 55.84 118.87L55.84 118.87L55.84 120.94Q55.84 121.04 55.93 121.04L55.93 121.04L58.73 121.04Q59.15 121.04 59.44 121.34Q59.73 121.64 59.69 122.06L59.69 122.06Q59.56 124.00 59.23 124.88L59.23 124.88Q59.00 125.50 58.56 125.80Q58.13 126.09 57.40 126.09L57.40 126.09Q57.25 126.09 57.07 126.07Q56.89 126.04 56.70 126.03L56.70 126.03Q56.46 126.00 56.30 125.81Q56.15 125.62 56.15 125.38L56.15 125.38Q56.15 125.02 56.40 124.83Q56.66 124.63 56.97 124.69L56.97 124.69Q57.32 124.77 57.49 124.77L57.49 124.77Q57.71 124.77 57.81 124.69Q57.91 124.62 57.97 124.46L57.97 124.46Q58.04 124.31 58.14 123.83Q58.24 123.35 58.33 122.45L58.33 122.45Q58.35 122.34 58.25 122.34L58.25 122.34L55.91 122.34Q55.82 122.34 55.82 122.43L55.82 122.43Q55.79 123.27 55.69 124.14Q55.59 125.02 55.42 125.80L55.42 125.80Q55.17 127.00 54.77 128.04L54.77 128.04Q54.69 128.28 54.48 128.41Q54.27 128.54 54.02 128.54L54.02 128.54Q53.74 128.54 53.56 128.35Q53.39 128.17 53.39 127.92L53.39 127.92Q53.39 127.78 53.45 127.66L53.45 127.66Q53.80 126.90 54.10 125.53L54.10 125.53Q54.27 124.62 54.38 123.59Q54.49 122.57 54.49 121.61L54.49 121.61L54.49 118.48Q54.49 118.06 54.78 117.76Q55.08 117.46 55.51 117.46L55.51 117.46L60.11 117.46Q60.21 117.46 60.21 117.36L60.21 117.36L60.21 115.55Q60.21 115.27 60.41 115.08Q60.61 114.88 60.87 114.88L60.87 114.88Q61.15 114.88 61.35 115.08Q61.54 115.29 61.54 115.55L61.54 115.55L61.54 117.36Q61.54 117.46 61.63 117.46L61.63 117.46L65.68 117.46Q65.94 117.46 66.14 117.65Q66.34 117.84 66.34 118.12L66.34 118.12Q66.34 118.39 66.14 118.58Q65.94 118.77 65.68 118.77L65.68 118.77L61.65 118.77Q61.55 118.77 61.55 118.87L61.55 118.87Q61.62 120.18 61.81 121.42Q62.00 122.66 62.31 123.72L62.31 123.72Q62.36 123.84 62.44 123.75L62.44 123.75Q63.37 122.51 63.94 120.85L63.94 120.85Q64.02 120.63 64.20 120.52Q64.38 120.40 64.58 120.40L64.58 120.40Q64.89 120.40 65.07 120.61Q65.26 120.82 65.26 121.08L65.26 121.08Q65.26 121.14 65.26 121.19Q65.26 121.24 65.23 121.30L65.23 121.30Q64.42 123.56 63.01 125.16L63.01 125.16L62.97 125.21Q62.92 125.25 62.95 125.33L62.95 125.33Q63.04 125.50 63.13 125.66Q63.21 125.81 63.29 125.95L63.29 125.95Q63.76 126.65 64.33 126.96L64.33 126.96Q64.59 127.10 64.86 127.10L64.86 127.10Q65.34 127.10 65.77 126.68L65.77 126.68Q65.96 126.49 66.22 126.49L66.22 126.49Q66.50 126.49 66.70 126.74ZM62.35 116.48L62.35 116.48Q61.86 116.32 61.86 115.86L61.86 115.86Q61.86 115.55 62.07 115.37Q62.28 115.19 62.56 115.19L62.56 115.19Q62.59 115.19 62.64 115.19Q62.69 115.19 62.73 115.21L62.73 115.21Q63.37 115.39 64.00 115.60Q64.62 115.81 65.12 116.01L65.12 116.01Q65.57 116.19 65.57 116.68L65.57 116.68Q65.57 116.98 65.38 117.16Q65.18 117.35 64.92 117.35L64.92 117.35Q64.79 117.35 64.67 117.30L64.67 117.30Q64.19 117.08 63.58 116.87Q62.97 116.67 62.35 116.48Z" fill="#33241D"/>
  <path d="M82.80 127.13L82.80 127.13Q83.03 127.19 83.18 127.38Q83.32 127.56 83.32 127.79L83.32 127.79Q83.32 128.09 83.13 128.29Q82.94 128.49 82.67 128.49L82.67 128.49Q82.63 128.49 82.58 128.48Q82.53 128.48 82.49 128.46L82.49 128.46Q81.63 128.21 80.64 127.73Q79.65 127.25 78.63 126.54Q77.60 125.83 76.66 124.93Q75.71 124.03 74.97 122.94L74.97 122.94Q74.92 122.88 74.84 122.88L74.84 122.88L73.57 122.88Q73.48 122.88 73.48 122.97L73.48 122.97L73.48 126.28Q73.48 126.37 73.59 126.37L73.59 126.37Q74.26 126.21 74.92 126.00Q75.59 125.80 76.18 125.56L76.18 125.56Q76.30 125.52 76.43 125.52L76.43 125.52Q76.67 125.52 76.87 125.70Q77.06 125.89 77.06 126.20L77.06 126.20Q77.06 126.72 76.58 126.90L76.58 126.90Q75.82 127.17 74.91 127.42Q73.99 127.67 73.14 127.83L73.14 127.83Q73.11 127.84 73.06 127.84Q73.02 127.84 72.98 127.84L72.98 127.84Q72.63 127.84 72.36 127.59Q72.10 127.33 72.10 126.94L72.10 126.94L72.10 122.97Q72.10 122.88 72.01 122.88L72.01 122.88L70.61 122.88Q70.33 122.88 70.14 122.68Q69.95 122.48 69.95 122.21L69.95 122.21Q69.95 121.95 70.14 121.75Q70.33 121.55 70.61 121.55L70.61 121.55L72.33 121.55Q72.43 121.55 72.43 121.45L72.43 121.45L72.43 116.23Q72.43 115.80 72.74 115.50Q73.05 115.21 73.45 115.21L73.45 115.21L81.12 115.21Q81.40 115.21 81.60 115.40Q81.80 115.60 81.80 115.89L81.80 115.89Q81.80 116.15 81.61 116.36Q81.42 116.56 81.12 116.56L81.12 116.56L73.90 116.56Q73.81 116.56 73.81 116.65L73.81 116.65L73.81 117.22Q73.81 117.32 73.90 117.32L73.90 117.32L80.56 117.32Q80.83 117.32 81.03 117.51Q81.23 117.70 81.23 117.98L81.23 117.98Q81.23 118.25 81.04 118.45Q80.84 118.65 80.56 118.65L80.56 118.65L73.90 118.65Q73.81 118.65 73.81 118.74L73.81 118.74L73.81 119.30Q73.81 119.39 73.90 119.39L73.90 119.39L80.56 119.39Q80.83 119.39 81.03 119.59Q81.23 119.78 81.23 120.06L81.23 120.06Q81.23 120.32 81.04 120.53Q80.84 120.73 80.56 120.73L80.56 120.73L73.90 120.73Q73.81 120.73 73.81 120.82L73.81 120.82L73.81 121.45Q73.81 121.55 73.90 121.55L73.90 121.55L82.49 121.55Q82.75 121.55 82.95 121.74Q83.15 121.94 83.15 122.21L83.15 122.21Q83.15 122.49 82.95 122.69Q82.75 122.88 82.49 122.88L82.49 122.88L76.83 122.88Q76.69 122.88 76.77 122.99L76.77 122.99Q77.09 123.38 77.48 123.77Q77.87 124.17 78.30 124.57L78.30 124.57Q78.38 124.62 78.43 124.59L78.43 124.59Q79.09 124.37 79.87 124.03Q80.66 123.69 81.32 123.24L81.32 123.24Q81.49 123.11 81.71 123.11L81.71 123.11Q82.08 123.11 82.27 123.42L82.27 123.42Q82.38 123.59 82.38 123.81L82.38 123.81Q82.38 123.98 82.29 124.15Q82.21 124.32 82.04 124.42L82.04 124.42Q81.57 124.71 80.94 125.01Q80.32 125.31 79.74 125.56L79.74 125.56Q79.62 125.61 79.73 125.69L79.73 125.69Q80.42 126.17 81.20 126.54Q81.97 126.91 82.80 127.13Z" fill="#33241D"/>
  <path d="M97.05 126.11L97.05 126.11Q97.37 126.07 97.61 126.29Q97.85 126.51 97.85 126.83L97.85 126.83Q97.85 127.11 97.66 127.32Q97.47 127.53 97.19 127.56L97.19 127.56Q96.55 127.62 95.40 127.69Q94.24 127.76 92.77 127.76L92.77 127.76Q90.21 127.76 89.73 126.29L89.73 126.29Q89.61 125.92 89.61 125.61L89.61 125.61Q89.61 124.74 90.43 123.91Q91.25 123.08 93.00 122.14L93.00 122.14Q93.16 122.06 93.05 121.94L93.05 121.94Q92.75 121.56 92.13 121.56L92.13 121.56Q91.36 121.56 90.24 122.17L90.24 122.17Q90.18 122.20 90.10 122.28L90.10 122.28Q90.04 122.32 89.99 122.37Q89.93 122.42 89.86 122.46L89.86 122.46Q89.72 122.59 89.47 122.59L89.47 122.59Q89.10 122.59 88.91 122.26L88.91 122.26Q88.80 122.11 88.80 121.89L88.80 121.89Q88.80 121.73 88.87 121.58Q88.94 121.42 89.10 121.32L89.10 121.32Q89.98 120.63 90.66 119.49L90.66 119.49Q90.69 119.42 90.69 119.41L90.69 119.41Q90.69 119.30 90.55 119.33L90.55 119.33Q90.12 119.39 89.72 119.42Q89.33 119.44 89.00 119.47L89.00 119.47Q88.71 119.49 88.51 119.29Q88.31 119.10 88.31 118.80L88.31 118.80Q88.31 118.51 88.51 118.32Q88.71 118.12 88.99 118.11L88.99 118.11Q89.53 118.08 90.12 118.02Q90.71 117.97 91.31 117.89L91.31 117.89Q91.44 117.86 91.45 117.77L91.45 117.77Q91.59 117.38 91.72 116.95Q91.86 116.53 91.96 116.08L91.96 116.08Q92.03 115.84 92.21 115.70Q92.40 115.55 92.63 115.55L92.63 115.55Q92.96 115.55 93.14 115.76Q93.33 115.97 93.33 116.23L93.33 116.23Q93.33 116.26 93.33 116.31Q93.33 116.36 93.31 116.40L93.31 116.40Q93.25 116.65 93.17 116.89Q93.09 117.13 93.02 117.36L93.02 117.36Q93.02 117.38 93.01 117.39Q93.00 117.39 93.00 117.41L93.00 117.41Q93.00 117.55 93.16 117.50L93.16 117.50Q93.54 117.38 93.92 117.25Q94.30 117.11 94.66 116.98L94.66 116.98Q94.78 116.91 94.94 116.91L94.94 116.91Q95.34 116.91 95.51 117.32L95.51 117.32Q95.56 117.46 95.56 117.58L95.56 117.58Q95.56 118.05 95.16 118.22L95.16 118.22Q94.57 118.46 93.89 118.66Q93.20 118.85 92.49 119.01L92.49 119.01Q92.38 119.02 92.34 119.11L92.34 119.11Q92.23 119.39 92.09 119.66Q91.95 119.92 91.81 120.15L91.81 120.15Q91.78 120.22 91.78 120.23L91.78 120.23Q91.78 120.32 91.92 120.31L91.92 120.31Q92.03 120.29 92.13 120.28Q92.23 120.28 92.32 120.28L92.32 120.28Q93.05 120.28 93.53 120.57Q94.01 120.87 94.30 121.32L94.30 121.32Q94.38 121.42 94.49 121.36L94.49 121.36Q95.03 121.08 95.63 120.73Q96.23 120.37 96.89 119.89L96.89 119.89Q97.09 119.77 97.28 119.77L97.28 119.77Q97.65 119.77 97.84 120.08L97.84 120.08Q97.96 120.28 97.96 120.46L97.96 120.46Q97.96 120.82 97.65 121.04L97.65 121.04Q97.14 121.38 96.71 121.63Q96.27 121.89 95.84 122.12Q95.40 122.35 94.85 122.63L94.85 122.63Q94.74 122.68 94.75 122.80L94.75 122.80Q94.80 123.16 94.84 123.63Q94.88 124.09 94.89 124.73L94.89 124.73Q94.89 125.00 94.70 125.21Q94.51 125.41 94.21 125.41L94.21 125.41Q93.93 125.41 93.73 125.21Q93.53 125.00 93.51 124.73L93.51 124.73Q93.50 124.40 93.49 124.10Q93.48 123.80 93.45 123.52L93.45 123.52Q93.45 123.44 93.41 123.42Q93.36 123.39 93.28 123.44L93.28 123.44Q91.02 124.66 91.02 125.58L91.02 125.58Q91.02 125.70 91.06 125.83L91.06 125.83Q91.19 126.14 91.58 126.29Q91.96 126.45 92.85 126.45L92.85 126.45Q94.16 126.45 97.05 126.11Z" fill="#33241D"/>
  <path d="M116.09 127.07L116.09 127.07Q116.35 127.10 116.51 127.29Q116.68 127.48 116.68 127.73L116.68 127.73Q116.68 128.04 116.44 128.25Q116.21 128.46 115.90 128.45L115.90 128.45Q114.52 128.32 113.00 127.72Q111.48 127.11 110.06 126.12L110.06 126.12Q110.00 126.07 109.93 126.12L109.93 126.12Q108.48 126.99 106.92 127.59Q105.36 128.20 103.98 128.40L103.98 128.40Q103.69 128.43 103.46 128.24Q103.24 128.06 103.24 127.72L103.24 127.72Q103.24 127.48 103.39 127.29Q103.55 127.10 103.80 127.03L103.80 127.03Q105.19 126.72 106.44 126.26Q107.69 125.80 108.76 125.22L108.76 125.22Q108.83 125.14 108.76 125.08L108.76 125.08Q107.55 124.01 106.65 122.73L106.65 122.73Q106.54 122.57 106.54 122.37L106.54 122.37Q106.54 122.20 106.63 122.04Q106.73 121.87 106.90 121.80L106.90 121.80Q106.91 121.80 106.83 121.78Q106.76 121.77 106.68 121.77L106.68 121.77L105.25 121.77Q104.99 121.77 104.79 121.57Q104.59 121.38 104.59 121.08L104.59 121.08Q104.59 120.80 104.79 120.61Q104.99 120.42 105.25 120.42L105.25 120.42L109.16 120.42Q109.25 120.42 109.25 120.32L109.25 120.32L109.25 118.49Q109.25 118.40 109.16 118.40L109.16 118.40L104.20 118.40Q103.91 118.40 103.71 118.20Q103.52 118.00 103.52 117.72L103.52 117.72Q103.52 117.42 103.72 117.23Q103.92 117.04 104.20 117.04L104.20 117.04L109.16 117.04Q109.25 117.04 109.25 116.94L109.25 116.94L109.25 115.58Q109.25 115.29 109.46 115.08Q109.67 114.88 109.95 114.88L109.95 114.88Q110.23 114.88 110.44 115.08Q110.65 115.29 110.65 115.58L110.65 115.58L110.65 116.94Q110.65 117.04 110.74 117.04L110.74 117.04L115.70 117.04Q116.00 117.04 116.19 117.24Q116.38 117.44 116.38 117.72L116.38 117.72Q116.38 118.01 116.18 118.21Q115.98 118.40 115.70 118.40L115.70 118.40L110.74 118.40Q110.65 118.40 110.65 118.49L110.65 118.49L110.65 120.32Q110.65 120.42 110.74 120.42L110.74 120.42L113.93 120.42Q114.26 120.42 114.48 120.63Q114.71 120.85 114.71 121.14L114.71 121.14Q114.71 121.30 114.65 121.42L114.65 121.42Q114.21 122.42 113.34 123.38Q112.46 124.35 111.33 125.19L111.33 125.19Q111.22 125.24 111.31 125.30L111.31 125.30Q112.31 125.95 113.50 126.42Q114.69 126.90 116.09 127.07ZM107.92 122.06L107.92 122.06Q108.32 122.62 108.85 123.21Q109.38 123.80 110.03 124.35L110.03 124.35Q110.09 124.40 110.15 124.35L110.15 124.35Q111.83 123.18 112.80 121.87L112.80 121.87Q112.88 121.77 112.74 121.77L112.74 121.77L107.72 121.77Q107.59 121.77 107.70 121.86L107.70 121.86Q107.84 121.94 107.92 122.06Z" fill="#33241D"/>
  <path d="M123.67 123.18L123.67 123.18Q123.52 123.24 123.38 123.31Q123.24 123.39 123.07 123.47L123.07 123.47Q122.99 123.49 122.99 123.58L122.99 123.58L122.99 127.84Q122.99 128.09 122.81 128.29Q122.62 128.49 122.34 128.49L122.34 128.49Q122.08 128.49 121.88 128.30Q121.69 128.10 121.69 127.84L121.69 127.84L121.69 124.15Q121.69 124.03 121.58 124.09L121.58 124.09Q121.12 124.26 120.73 124.37L120.73 124.37Q120.68 124.38 120.64 124.39Q120.61 124.40 120.56 124.40L120.56 124.40Q120.31 124.40 120.10 124.20Q119.89 124.00 119.89 123.70L119.89 123.70Q119.89 123.45 120.05 123.25Q120.20 123.05 120.45 122.99L120.45 122.99Q121.05 122.80 121.61 122.59L121.61 122.59Q121.69 122.57 121.69 122.48L121.69 122.48L121.69 119.24Q121.69 119.15 121.60 119.15L121.60 119.15L120.65 119.15Q120.37 119.15 120.17 118.94Q119.97 118.74 119.97 118.46L119.97 118.46Q119.97 118.18 120.17 117.98Q120.37 117.78 120.65 117.78L120.65 117.78L121.60 117.78Q121.69 117.78 121.69 117.69L121.69 117.69L121.69 115.63Q121.69 115.36 121.88 115.17Q122.08 114.98 122.34 114.98L122.34 114.98Q122.62 114.98 122.81 115.17Q122.99 115.36 122.99 115.63L122.99 115.63L122.99 117.69Q122.99 117.78 123.09 117.78L123.09 117.78L123.78 117.78Q124.06 117.78 124.26 117.98Q124.46 118.18 124.46 118.46L124.46 118.46Q124.46 118.76 124.26 118.95Q124.06 119.15 123.78 119.15L123.78 119.15L123.09 119.15Q122.99 119.15 122.99 119.24L122.99 119.24L122.99 121.83Q122.99 121.87 123.02 121.90Q123.05 121.92 123.10 121.89L123.10 121.89L123.21 121.83Q123.36 121.75 123.52 121.75L123.52 121.75Q123.71 121.75 123.86 121.86Q124.02 121.97 124.08 122.15L124.08 122.15Q124.12 122.29 124.12 122.42L124.12 122.42Q124.12 122.94 123.67 123.18ZM132.88 127.14L132.88 127.14Q133.11 127.19 133.27 127.38Q133.42 127.56 133.42 127.78L133.42 127.78Q133.42 128.10 133.19 128.30Q132.96 128.49 132.68 128.43L132.68 128.43Q131.89 128.26 131.01 127.89Q130.12 127.52 129.25 126.99L129.25 126.99Q129.19 126.94 129.13 126.99L129.13 126.99Q128.31 127.53 127.43 127.90Q126.56 128.26 125.77 128.46L125.77 128.46Q125.72 128.48 125.63 128.48L125.63 128.48Q125.36 128.48 125.16 128.30Q124.96 128.12 124.96 127.84L124.96 127.84Q124.96 127.62 125.10 127.45Q125.24 127.27 125.44 127.21L125.44 127.21Q126.84 126.83 127.97 126.20L127.97 126.20Q128.05 126.12 127.97 126.06L127.97 126.06Q127.29 125.52 126.71 124.82L126.71 124.82Q126.65 124.73 126.57 124.83L126.57 124.83Q126.08 125.73 125.46 126.48Q124.84 127.22 124.20 127.76L124.20 127.76Q124.03 127.89 123.84 127.89L123.84 127.89Q123.49 127.89 123.30 127.58L123.30 127.58Q123.19 127.41 123.19 127.19L123.19 127.19Q123.19 126.83 123.47 126.60L123.47 126.60Q125.44 124.83 126.22 122.48L126.22 122.48Q126.25 122.37 126.14 122.37L126.14 122.37L124.65 122.37Q124.40 122.37 124.21 122.18Q124.02 121.98 124.02 121.72L124.02 121.72Q124.02 121.45 124.20 121.27Q124.39 121.08 124.65 121.08L124.65 121.08L126.46 121.08Q126.54 121.08 126.57 121.01L126.57 121.01Q126.60 120.85 126.62 120.70Q126.63 120.56 126.65 120.40L126.65 120.40Q126.68 120.31 126.57 120.31L126.57 120.31L125.18 120.31Q124.91 120.31 124.72 120.12Q124.53 119.94 124.53 119.67L124.53 119.67Q124.53 119.41 124.72 119.22Q124.91 119.04 125.18 119.04L125.18 119.04L126.11 119.04Q126.25 119.04 126.14 118.93L126.14 118.93Q126.11 118.88 126.08 118.83Q126.05 118.77 126.01 118.71L126.01 118.71Q125.91 118.46 125.79 118.22Q125.67 117.97 125.55 117.77L125.55 117.77Q125.47 117.64 125.47 117.49L125.47 117.49Q125.47 117.33 125.58 117.18L125.58 117.18Q125.64 117.11 125.58 117.11L125.58 117.11Q125.47 117.11 125.36 117.12Q125.24 117.13 125.10 117.13L125.10 117.13Q124.85 117.13 124.66 116.94Q124.46 116.76 124.46 116.50L124.46 116.50Q124.46 116.26 124.62 116.08Q124.77 115.91 125.02 115.89L125.02 115.89Q127.15 115.78 128.86 115.57Q130.57 115.36 132.26 115.01L132.26 115.01Q132.31 114.99 132.40 114.99L132.40 114.99Q132.63 114.99 132.83 115.16Q133.02 115.33 133.02 115.60L133.02 115.60Q133.02 115.81 132.88 116.00Q132.74 116.19 132.52 116.23L132.52 116.23Q132.48 116.25 132.42 116.25Q132.37 116.26 132.32 116.28L132.32 116.28Q132.20 116.31 132.31 116.39L132.31 116.39Q132.60 116.59 132.60 116.91L132.60 116.91Q132.60 117.02 132.56 117.15L132.56 117.15Q132.34 117.67 132.09 118.11Q131.84 118.56 131.59 118.93L131.59 118.93Q131.52 119.04 131.66 119.04L131.66 119.04L132.06 119.04Q132.32 119.04 132.51 119.22Q132.69 119.41 132.69 119.67L132.69 119.67Q132.69 119.92 132.51 120.11Q132.32 120.31 132.06 120.31L132.06 120.31L128.08 120.31Q127.98 120.31 127.98 120.40L127.98 120.40Q127.97 120.56 127.96 120.70Q127.95 120.83 127.92 120.99L127.92 120.99Q127.91 121.08 128.00 121.08L128.00 121.08L132.62 121.08Q132.88 121.08 133.07 121.27Q133.25 121.45 133.25 121.72L133.25 121.72Q133.25 121.98 133.07 122.18Q132.88 122.37 132.62 122.37L132.62 122.37L127.69 122.37Q127.63 122.37 127.60 122.45L127.60 122.45Q127.56 122.59 127.52 122.73Q127.47 122.87 127.43 122.99L127.43 122.99Q127.38 123.10 127.49 123.10L127.49 123.10L131.08 123.10Q131.39 123.10 131.61 123.31Q131.83 123.53 131.83 123.81L131.83 123.81Q131.83 123.97 131.77 124.09L131.77 124.09Q131.50 124.66 131.13 125.14Q130.76 125.62 130.31 126.04L130.31 126.04Q130.23 126.12 130.32 126.18L130.32 126.18Q131.55 126.86 132.88 127.14ZM131.33 116.71L131.33 116.71Q131.36 116.67 131.39 116.63Q131.41 116.59 131.42 116.56L131.42 116.56Q131.50 116.43 131.38 116.46L131.38 116.46Q130.74 116.57 130.08 116.67Q129.42 116.77 128.74 116.85L128.74 116.85Q128.60 116.85 128.71 116.96L128.71 116.96Q128.84 117.05 128.90 117.21L128.90 117.21Q129.02 117.46 129.14 117.76Q129.25 118.06 129.35 118.32L129.35 118.32Q129.38 118.45 129.38 118.53L129.38 118.53Q129.38 118.76 129.21 118.93L129.21 118.93Q129.10 119.04 129.24 119.04L129.24 119.04L129.80 119.04Q129.86 119.04 129.89 119.01L129.89 119.01Q130.26 118.59 130.65 118.00Q131.04 117.41 131.33 116.71ZM127.21 118.39L127.21 118.39Q127.25 118.48 127.25 118.59L127.25 118.59Q127.25 118.77 127.13 118.93L127.13 118.93Q127.05 119.04 127.16 119.04L127.16 119.04L128.25 119.04Q128.39 119.04 128.28 118.93L128.28 118.93Q128.25 118.88 128.22 118.83Q128.18 118.77 128.15 118.71L128.15 118.71Q128.06 118.40 127.93 118.10Q127.80 117.80 127.67 117.55L127.67 117.55Q127.61 117.44 127.61 117.30L127.61 117.30Q127.61 117.15 127.67 117.04L127.67 117.04Q127.72 116.93 127.63 116.96L127.63 116.96Q127.38 116.98 127.11 116.99Q126.84 117.01 126.57 117.04L126.57 117.04Q126.43 117.07 126.54 117.15L126.54 117.15Q126.71 117.25 126.77 117.41L126.77 117.41Q126.90 117.61 127.01 117.87Q127.12 118.12 127.21 118.39ZM130.03 124.45L130.03 124.45Q130.11 124.34 129.98 124.34L129.98 124.34L128.17 124.34Q128.11 124.34 128.09 124.38Q128.08 124.42 128.12 124.45L128.12 124.45Q128.34 124.69 128.59 124.90Q128.84 125.11 129.08 125.33L129.08 125.33Q129.15 125.38 129.21 125.31L129.21 125.31Q129.46 125.10 129.66 124.90Q129.86 124.69 130.03 124.45Z" fill="#33241D"/>
  <path d="M148.60 117.46L148.60 117.46Q148.87 117.50 149.02 117.70Q149.18 117.89 149.18 118.15L149.18 118.15Q149.18 118.45 148.96 118.64Q148.74 118.84 148.45 118.79L148.45 118.79Q148.03 118.73 147.59 118.70Q147.15 118.68 146.68 118.68L146.68 118.68Q146.28 118.68 145.87 118.70Q145.46 118.71 145.02 118.74L145.02 118.74Q144.88 118.76 144.88 118.90L144.88 118.90L144.88 121.22Q144.88 121.27 144.89 121.31Q144.90 121.35 144.92 121.39L144.92 121.39Q145.30 122.34 145.30 123.30L145.30 123.30Q145.30 124.14 145.02 124.93Q144.75 125.72 144.17 126.37Q143.60 127.02 142.73 127.42Q141.86 127.83 140.70 127.87L140.70 127.87Q140.42 127.89 140.21 127.69Q140.00 127.50 140.00 127.21L140.00 127.21Q140.00 126.91 140.21 126.71Q140.42 126.51 140.72 126.49L140.72 126.49Q142.00 126.46 142.89 125.78Q143.78 125.10 143.97 124.03L143.97 124.03L143.97 124.01Q143.97 123.92 143.90 123.89Q143.83 123.86 143.75 123.94L143.75 123.94Q143.47 124.18 143.16 124.30Q142.84 124.42 142.51 124.42L142.51 124.42Q142.03 124.42 141.58 124.18Q141.12 123.95 140.81 123.54Q140.50 123.13 140.44 122.60L140.44 122.60Q140.42 122.52 140.42 122.43Q140.42 122.34 140.42 122.26L140.42 122.26Q140.42 121.59 140.71 121.08Q140.99 120.57 141.46 120.28Q141.92 120.00 142.48 120.00L142.48 120.00Q142.93 120.00 143.41 120.22L143.41 120.22Q143.44 120.23 143.49 120.23L143.49 120.23Q143.58 120.23 143.58 120.11L143.58 120.11L143.58 118.99Q143.58 118.84 143.44 118.87L143.44 118.87Q142.54 118.93 141.66 118.99Q140.78 119.05 139.96 119.05L139.96 119.05Q139.46 119.05 138.99 119.02Q138.53 118.99 138.11 118.93L138.11 118.93Q137.85 118.88 137.68 118.67Q137.52 118.46 137.52 118.20L137.52 118.20Q137.52 117.91 137.75 117.73Q137.97 117.55 138.25 117.60L138.25 117.60Q138.68 117.66 139.14 117.69Q139.60 117.72 140.06 117.72L140.06 117.72Q140.89 117.72 141.73 117.65Q142.57 117.58 143.43 117.52L143.43 117.52Q143.57 117.49 143.57 117.36L143.57 117.36L143.57 116.06Q143.55 115.78 143.75 115.59Q143.94 115.39 144.22 115.39L144.22 115.39Q144.50 115.39 144.69 115.60Q144.88 115.80 144.88 116.06L144.88 116.06L144.88 117.25Q144.88 117.41 145.04 117.38L145.04 117.38Q145.47 117.35 145.89 117.33Q146.31 117.32 146.71 117.32L146.71 117.32Q147.21 117.32 147.68 117.35Q148.16 117.38 148.60 117.46ZM141.78 122.60L141.78 122.60Q141.86 122.83 142.09 122.99Q142.33 123.14 142.59 123.14L142.59 123.14Q142.93 123.14 143.23 122.83Q143.52 122.52 143.54 121.77L143.54 121.77Q143.54 121.66 143.47 121.58L143.47 121.58Q143.30 121.35 143.09 121.25Q142.87 121.14 142.65 121.14L142.65 121.14Q142.28 121.14 141.99 121.42Q141.71 121.70 141.71 122.15L141.71 122.15Q141.71 122.34 141.78 122.60Z" fill="#33241D"/>
  <path d="M159.83 127.90L159.83 127.90Q158.81 127.90 158.21 127.61Q157.60 127.31 157.35 126.86Q157.09 126.40 157.09 125.93L157.09 125.93Q157.09 125.67 157.15 125.45Q157.21 125.22 157.32 125.04L157.32 125.04Q157.80 124.18 158.53 124.18L158.53 124.18Q159.68 124.18 161.44 126.28L161.44 126.28Q161.52 126.37 161.63 126.32L161.63 126.32Q162.22 126.11 162.68 125.77Q163.13 125.44 163.43 125.02L163.43 125.02Q163.80 124.48 163.80 123.84L163.80 123.84Q163.80 123.14 163.30 122.55Q162.79 121.95 161.77 121.84L161.77 121.84Q161.62 121.83 161.48 121.82Q161.34 121.81 161.18 121.81L161.18 121.81Q160.00 121.81 158.83 122.37Q157.66 122.93 156.36 124.09L156.36 124.09Q156.14 124.26 155.88 124.26L155.88 124.26Q155.65 124.26 155.49 124.15L155.49 124.15Q155.23 123.98 155.23 123.67L155.23 123.67Q155.23 123.50 155.32 123.36L155.32 123.36Q156.30 121.89 157.36 120.49Q158.42 119.10 159.51 117.95L159.51 117.95Q159.55 117.87 159.55 117.86L159.55 117.86Q159.55 117.77 159.43 117.80L159.43 117.80Q159.04 117.86 158.55 117.88Q158.07 117.91 157.57 117.91L157.57 117.91Q157.37 117.91 157.15 117.91Q156.93 117.91 156.73 117.89L156.73 117.89Q156.47 117.87 156.28 117.67Q156.10 117.47 156.10 117.19L156.10 117.19Q156.10 116.90 156.31 116.70Q156.53 116.51 156.83 116.53L156.83 116.53Q157.46 116.57 158.05 116.57L158.05 116.57Q158.83 116.57 159.55 116.48Q160.27 116.39 160.95 116.15L160.95 116.15Q161.07 116.11 161.18 116.11L161.18 116.11Q161.66 116.11 161.86 116.54L161.86 116.54Q161.94 116.73 161.94 116.90L161.94 116.90Q161.94 117.30 161.63 117.58L161.63 117.58Q160.64 118.45 159.86 119.33Q159.07 120.22 158.34 121.24L158.34 121.24Q158.31 121.30 158.31 121.32L158.31 121.32Q158.31 121.44 158.47 121.36L158.47 121.36Q159.32 120.96 160.11 120.77Q160.90 120.59 161.58 120.59L161.58 120.59Q162.90 120.59 163.80 121.18Q164.70 121.77 164.99 122.76L164.99 122.76Q165.16 123.35 165.16 123.84L165.16 123.84Q165.16 124.96 164.48 125.88Q163.79 126.80 162.58 127.35Q161.38 127.90 159.83 127.90ZM160.00 126.63L160.00 126.63Q160.10 126.63 160.12 126.57Q160.14 126.51 160.07 126.45L160.07 126.45Q159.57 125.87 159.22 125.66Q158.87 125.44 158.65 125.44L158.65 125.44Q158.48 125.44 158.40 125.55Q158.31 125.66 158.31 125.80L158.31 125.80Q158.31 125.84 158.32 125.89Q158.33 125.93 158.34 125.98L158.34 125.98Q158.47 126.29 158.92 126.46Q159.37 126.63 160.00 126.63Z" fill="#33241D"/>
  <path d="M181.62 126.48L181.62 126.48Q181.91 126.48 182.11 126.67Q182.31 126.86 182.31 127.17L182.31 127.17Q182.31 127.48 182.09 127.69Q181.86 127.89 181.55 127.87L181.55 127.87Q180.67 127.78 180.14 127.78L180.14 127.78Q179.57 127.78 178.73 127.87L178.73 127.87Q178.42 127.89 178.21 127.69Q177.99 127.48 177.99 127.17L177.99 127.17Q177.99 126.86 178.18 126.67Q178.38 126.48 178.67 126.48L178.67 126.48Q178.81 126.48 178.97 126.49Q179.14 126.51 179.29 126.54L179.29 126.54Q179.48 126.54 179.40 126.38L179.40 126.38L178.67 124.76Q178.63 124.65 178.52 124.65L178.52 124.65L173.15 124.65Q173.06 124.65 173.00 124.76L173.00 124.76L172.27 126.38Q172.25 126.42 172.25 126.45L172.25 126.45Q172.25 126.54 172.38 126.54L172.38 126.54Q172.55 126.51 172.70 126.49Q172.86 126.48 173.00 126.48L173.00 126.48Q173.29 126.48 173.49 126.67Q173.68 126.86 173.68 127.17L173.68 127.17Q173.68 127.48 173.46 127.69Q173.25 127.89 172.94 127.87L172.94 127.87Q172.04 127.78 171.53 127.78L171.53 127.78Q170.94 127.78 170.12 127.87L170.12 127.87Q169.81 127.89 169.58 127.69Q169.36 127.48 169.36 127.17L169.36 127.17Q169.36 126.86 169.56 126.67Q169.76 126.48 170.05 126.48L170.05 126.48Q170.21 126.48 170.35 126.49Q170.49 126.51 170.63 126.52L170.63 126.52L170.66 126.52Q170.74 126.52 170.80 126.43L170.80 126.43L175.29 116.43Q175.45 116.08 175.84 116.08L175.84 116.08Q176.21 116.08 176.36 116.43L176.36 116.43L180.89 126.43Q180.95 126.52 181.03 126.52L181.03 126.52Q181.18 126.52 181.33 126.50Q181.48 126.48 181.62 126.48ZM177.96 123.18L175.93 118.65Q175.91 118.56 175.84 118.56L175.84 118.56Q175.79 118.56 175.74 118.65L175.74 118.65L173.71 123.18Q173.70 123.21 173.70 123.24L173.70 123.24Q173.70 123.35 173.82 123.35L173.82 123.35L177.85 123.35Q178.04 123.35 177.96 123.18L177.96 123.18Z" fill="#33241D"/>
  <path d="M188.44 126.48L188.44 126.48Q188.75 126.45 188.98 126.66Q189.20 126.86 189.20 127.17L189.20 127.17Q189.20 127.48 188.98 127.69Q188.75 127.89 188.44 127.87L188.44 127.87Q188.01 127.83 187.64 127.80Q187.27 127.78 186.91 127.78L186.91 127.78Q186.29 127.78 185.47 127.87L185.47 127.87Q185.16 127.89 184.93 127.69Q184.71 127.48 184.71 127.17L184.71 127.17Q184.71 126.86 184.93 126.66Q185.16 126.45 185.47 126.48L185.47 126.48Q185.62 126.49 185.79 126.51Q185.96 126.52 186.13 126.54L186.13 126.54L186.16 126.54Q186.27 126.54 186.27 126.42L186.27 126.42L186.27 117.53Q186.27 117.41 186.16 117.41L186.16 117.41Q185.98 117.41 185.81 117.42Q185.64 117.44 185.47 117.47L185.47 117.47Q185.16 117.49 184.93 117.29Q184.71 117.08 184.71 116.77L184.71 116.77Q184.71 116.46 184.93 116.25Q185.16 116.05 185.47 116.08L185.47 116.08Q185.92 116.12 186.28 116.15Q186.65 116.17 187.00 116.17L187.00 116.17Q187.61 116.17 188.44 116.08L188.44 116.08Q188.75 116.05 188.98 116.25Q189.20 116.46 189.20 116.77L189.20 116.77Q189.20 117.08 188.98 117.29Q188.75 117.49 188.44 117.47L188.44 117.47Q188.29 117.44 188.13 117.43Q187.98 117.42 187.81 117.41L187.81 117.41L187.78 117.41Q187.67 117.41 187.67 117.53L187.67 117.53L187.67 126.42Q187.67 126.54 187.79 126.54L187.79 126.54Q187.95 126.54 188.12 126.52Q188.29 126.49 188.44 126.48Z" fill="#33241D"/>
  <path d="M205.11 117.22L205.11 117.22Q205.19 117.32 205.19 117.47L205.19 117.47Q205.19 117.77 204.96 117.91L204.96 117.91Q204.83 117.98 204.69 117.98L204.69 117.98Q204.43 117.98 204.29 117.75L204.29 117.75Q204.04 117.38 203.73 116.97Q203.41 116.56 203.11 116.26L203.11 116.26Q202.96 116.11 202.96 115.92L202.96 115.92Q202.96 115.72 203.11 115.60L203.11 115.60Q203.25 115.44 203.47 115.44L203.47 115.44Q203.67 115.44 203.81 115.58L203.81 115.58Q204.12 115.88 204.45 116.30Q204.77 116.73 205.11 117.22ZM203.13 118.42L203.13 118.42Q202.88 118.06 202.54 117.63Q202.20 117.19 201.92 116.90L201.92 116.90Q201.76 116.74 201.76 116.53L201.76 116.53Q201.76 116.37 201.89 116.22L201.89 116.22Q202.04 116.06 202.26 116.06L202.26 116.06Q202.46 116.06 202.60 116.20L202.60 116.20Q202.94 116.54 203.30 116.99Q203.66 117.44 203.95 117.89L203.95 117.89Q204.03 117.98 204.03 118.14L204.03 118.14Q204.03 118.43 203.79 118.57L203.79 118.57Q203.70 118.65 203.55 118.65L203.55 118.65Q203.27 118.65 203.13 118.42ZM203.27 125.98L203.27 125.98Q203.58 125.95 203.81 126.14Q204.04 126.34 204.04 126.65L204.04 126.65Q204.04 126.93 203.87 127.14Q203.70 127.34 203.44 127.38L203.44 127.38Q202.94 127.44 202.22 127.49Q201.50 127.55 200.69 127.58Q199.87 127.61 199.08 127.63Q198.28 127.66 197.59 127.66L197.59 127.66Q195.91 127.64 195.15 126.90Q194.39 126.17 194.45 124.57L194.45 124.57L194.45 117.18Q194.45 116.88 194.66 116.68Q194.87 116.48 195.15 116.48L195.15 116.48Q195.44 116.48 195.64 116.69Q195.84 116.90 195.84 117.18L195.84 117.18L195.84 120.37Q195.84 120.51 195.98 120.49L195.98 120.49Q197.69 120.35 199.26 120.00Q200.83 119.64 202.46 118.97L202.46 118.97Q202.59 118.93 202.71 118.93L202.71 118.93Q202.97 118.93 203.18 119.11Q203.39 119.30 203.39 119.63L203.39 119.63Q203.39 119.84 203.26 120.04Q203.13 120.25 202.91 120.32L202.91 120.32Q201.30 120.94 199.56 121.34Q197.83 121.73 195.98 121.89L195.98 121.89Q195.84 121.90 195.84 122.04L195.84 122.04L195.84 124.59Q195.84 125.35 196.00 125.69Q196.15 126.03 196.54 126.13Q196.93 126.23 197.61 126.26L197.61 126.26Q197.78 126.28 197.97 126.28Q198.17 126.28 198.39 126.28L198.39 126.28Q199.13 126.28 200.03 126.24Q200.93 126.20 201.80 126.14Q202.66 126.07 203.27 125.98Z" fill="#33241D"/>
  <path d="M221.64 118.22L221.64 118.22Q221.52 118.29 221.39 118.29L221.39 118.29Q221.11 118.29 220.98 118.06L220.98 118.06Q220.73 117.67 220.40 117.26Q220.08 116.85 219.80 116.57L219.80 116.57Q219.64 116.42 219.64 116.22L219.64 116.22Q219.64 116.03 219.78 115.89L219.78 115.89Q219.95 115.75 220.14 115.75L220.14 115.75Q220.36 115.75 220.49 115.89L220.49 115.89Q220.85 116.23 221.18 116.67Q221.52 117.10 221.80 117.52L221.80 117.52Q221.87 117.64 221.87 117.78L221.87 117.78Q221.87 118.08 221.64 118.22ZM220.48 118.88L220.48 118.88Q220.39 118.96 220.22 118.96L220.22 118.96Q219.94 118.96 219.80 118.74L219.80 118.74Q219.55 118.34 219.22 117.93Q218.88 117.52 218.59 117.22L218.59 117.22Q218.43 117.04 218.43 116.85L218.43 116.85Q218.43 116.67 218.57 116.53L218.57 116.53Q218.71 116.37 218.94 116.37L218.94 116.37Q219.15 116.37 219.29 116.51L219.29 116.51Q219.64 116.85 220.00 117.31Q220.36 117.77 220.63 118.20L220.63 118.20Q220.71 118.29 220.71 118.46L220.71 118.46Q220.71 118.74 220.48 118.88ZM214.08 119.30L214.08 119.30Q213.55 118.94 212.92 118.73Q212.28 118.51 211.60 118.42L211.60 118.42Q211.35 118.37 211.19 118.18Q211.02 118.00 211.02 117.77L211.02 117.77Q211.02 117.46 211.26 117.25Q211.49 117.04 211.78 117.07L211.78 117.07Q212.54 117.15 213.31 117.42Q214.08 117.69 214.71 118.09L214.71 118.09Q215.04 118.32 215.04 118.71L215.04 118.71Q215.04 118.90 214.95 119.07L214.95 119.07Q214.79 119.39 214.42 119.39L214.42 119.39Q214.25 119.39 214.08 119.30ZM212.02 127.66L212.02 127.66Q211.95 127.67 211.85 127.67L211.85 127.67Q211.55 127.67 211.32 127.45Q211.09 127.24 211.09 126.91L211.09 126.91Q211.09 126.69 211.23 126.50Q211.37 126.31 211.61 126.24L211.61 126.24Q212.59 125.98 213.71 125.45Q214.82 124.93 215.94 124.18Q217.05 123.42 218.06 122.46Q219.07 121.50 219.81 120.34L219.81 120.34Q220.03 120.01 220.39 120.01L220.39 120.01Q220.59 120.01 220.77 120.15L220.77 120.15Q221.10 120.40 221.10 120.79L221.10 120.79Q221.10 121.01 220.98 121.21L220.98 121.21Q220.36 122.18 219.39 123.18Q218.42 124.17 217.22 125.06Q216.02 125.95 214.68 126.63Q213.35 127.31 212.02 127.66ZM213.18 122.66L213.18 122.66Q212.65 122.45 212.00 122.30Q211.35 122.15 210.79 122.12L210.79 122.12Q210.53 122.11 210.33 121.91Q210.14 121.72 210.14 121.47L210.14 121.47Q210.14 121.16 210.35 120.94Q210.56 120.73 210.85 120.74L210.85 120.74Q211.57 120.77 212.34 120.95Q213.12 121.13 213.72 121.39L213.72 121.39Q213.92 121.47 214.02 121.65Q214.12 121.83 214.12 122.03L214.12 122.03Q214.12 122.35 213.92 122.53Q213.71 122.71 213.44 122.71L213.44 122.71Q213.32 122.71 213.18 122.66Z" fill="#33241D"/>
  <path d="M230.87 116.87L230.87 116.87Q230.58 116.84 230.38 116.64Q230.19 116.45 230.19 116.20L230.19 116.20Q230.19 115.89 230.39 115.67Q230.59 115.46 230.87 115.47L230.87 115.47Q231.54 115.49 232.17 115.72Q232.81 115.95 233.43 116.20Q234.05 116.45 234.65 116.53L234.65 116.53Q234.93 116.56 235.12 116.77Q235.30 116.98 235.30 117.24L235.30 117.24Q235.29 117.53 235.08 117.73Q234.87 117.94 234.59 117.92L234.59 117.92Q234.00 117.86 233.37 117.63Q232.73 117.39 232.10 117.15Q231.48 116.91 230.87 116.87ZM233.46 122.48L233.46 122.48Q233.40 122.56 233.40 122.65L233.40 122.65Q233.40 123.13 233.41 123.75Q233.43 124.37 233.44 125.01Q233.46 125.66 233.47 126.22Q233.49 126.79 233.51 127.17L233.51 127.17Q233.52 127.47 233.31 127.68Q233.10 127.89 232.81 127.89L232.81 127.89Q232.53 127.89 232.33 127.69Q232.13 127.50 232.11 127.22L232.11 127.22Q232.10 126.68 232.07 125.77Q232.05 124.86 232.02 123.98L232.02 123.98Q232.02 123.80 231.85 123.90L231.85 123.90Q229.89 125.36 227.48 125.87L227.48 125.87Q227.43 125.89 227.34 125.89L227.34 125.89Q227.10 125.89 226.91 125.71Q226.72 125.53 226.72 125.27L226.72 125.27Q226.72 125.00 226.88 124.80Q227.04 124.60 227.29 124.54L227.29 124.54Q228.81 124.20 230.03 123.49Q231.26 122.77 232.19 121.84Q233.12 120.91 233.75 119.97L233.75 119.97Q233.94 119.70 234.04 119.61Q234.14 119.52 234.14 119.52L234.14 119.52Q234.14 119.52 234.10 119.53Q234.06 119.55 233.99 119.56L233.99 119.56Q233.80 119.59 233.24 119.69Q232.68 119.78 231.94 119.91Q231.20 120.03 230.43 120.18Q229.66 120.32 229.07 120.46L229.07 120.46Q229.01 120.48 228.90 120.48L228.90 120.48Q228.65 120.48 228.46 120.29Q228.27 120.11 228.27 119.81L228.27 119.81Q228.27 119.55 228.43 119.35Q228.59 119.16 228.84 119.11L228.84 119.11Q229.32 119.01 229.94 118.90Q230.56 118.79 231.21 118.68Q231.86 118.57 232.44 118.48Q233.03 118.39 233.44 118.32Q233.85 118.25 233.96 118.23L233.96 118.23Q234.22 118.18 234.45 118.18L234.45 118.18Q235.01 118.18 235.33 118.46Q235.66 118.73 235.66 119.16L235.66 119.16Q235.66 119.59 235.29 120.14L235.29 120.14Q234.85 120.80 234.40 121.39Q233.96 121.97 233.46 122.48ZM238.03 124.23L238.03 124.23Q238.11 124.37 238.11 124.57L238.11 124.57Q238.11 124.99 237.72 125.24L237.72 125.24Q237.66 125.28 237.58 125.30Q237.50 125.31 237.43 125.31L237.43 125.31Q237.02 125.31 236.82 124.94L236.82 124.94Q236.19 123.70 234.93 123.47L234.93 123.47Q234.64 123.41 234.47 123.18Q234.30 122.96 234.33 122.69L234.33 122.69Q234.39 122.39 234.63 122.20Q234.87 122.01 235.16 122.06L235.16 122.06Q236.05 122.21 236.81 122.79Q237.57 123.36 238.03 124.23Z" fill="#33241D"/>
  <path d="M254.87 126.63L254.87 126.63Q255.01 126.82 255.01 127.05L255.01 127.05Q255.01 127.42 254.72 127.67L254.72 127.67Q254.53 127.81 254.31 127.81L254.31 127.81Q253.97 127.81 253.76 127.53L253.76 127.53Q253.27 126.82 252.61 126.17Q251.94 125.52 251.21 125.00Q250.47 124.49 249.73 124.20L249.73 124.20Q249.62 124.15 249.54 124.23L249.54 124.23Q248.55 125.16 247.27 126.04Q245.99 126.93 244.38 127.66L244.38 127.66Q244.25 127.72 244.10 127.72L244.10 127.72Q243.85 127.72 243.65 127.53Q243.45 127.34 243.45 127.05L243.45 127.05Q243.45 126.82 243.58 126.62Q243.71 126.42 243.93 126.32L243.93 126.32Q245.43 125.66 246.63 124.81Q247.83 123.97 248.73 123.07Q249.62 122.18 250.21 121.37Q250.79 120.56 251.07 119.98L251.07 119.98Q251.38 119.32 251.38 118.96L251.38 118.96Q251.38 118.48 250.76 118.48L250.76 118.48Q250.67 118.48 250.57 118.48Q250.47 118.48 250.35 118.51L250.35 118.51Q249.82 118.59 248.93 118.67Q248.05 118.74 247.01 118.79Q245.96 118.84 244.95 118.84L244.95 118.84Q244.69 118.84 244.49 118.64Q244.30 118.45 244.30 118.17L244.30 118.17Q244.30 117.87 244.50 117.67Q244.70 117.47 245.00 117.47L245.00 117.47L245.70 117.47Q247.06 117.47 248.27 117.38Q249.48 117.29 250.14 117.16L250.14 117.16Q250.31 117.13 250.47 117.11Q250.62 117.10 250.78 117.10L250.78 117.10Q251.71 117.10 252.23 117.60Q252.75 118.11 252.75 118.94L252.75 118.94Q252.75 119.72 252.31 120.60L252.31 120.60Q252.07 121.11 251.68 121.70Q251.29 122.29 250.76 122.93L250.76 122.93Q250.73 122.96 250.73 123.02L250.73 123.02Q250.73 123.08 250.81 123.13L250.81 123.13Q251.59 123.52 252.34 124.10Q253.10 124.68 253.76 125.34Q254.41 126.00 254.87 126.63Z" fill="#33241D"/>
  <path d="M271.26 118.00L271.26 118.00Q270.78 118.00 270.39 117.76Q269.99 117.52 269.76 117.12Q269.53 116.73 269.53 116.26L269.53 116.26Q269.53 115.78 269.77 115.39Q270.01 114.99 270.40 114.76Q270.80 114.53 271.26 114.53L271.26 114.53Q271.74 114.53 272.14 114.77Q272.53 115.01 272.76 115.39Q273.00 115.78 273.00 116.26L273.00 116.26Q273.00 116.73 272.76 117.12Q272.53 117.52 272.14 117.76Q271.74 118.00 271.26 118.00ZM271.26 117.19L271.26 117.19Q271.66 117.19 271.93 116.92Q272.19 116.65 272.19 116.26L272.19 116.26Q272.19 115.86 271.92 115.60Q271.65 115.33 271.26 115.33L271.26 115.33Q270.87 115.33 270.60 115.60Q270.33 115.86 270.33 116.26L270.33 116.26Q270.33 116.65 270.60 116.92Q270.87 117.19 271.26 117.19ZM263.06 127.72L263.06 127.72Q262.95 127.76 262.81 127.76L262.81 127.76Q262.55 127.76 262.33 127.57Q262.10 127.38 262.10 127.07L262.10 127.07Q262.10 126.60 262.55 126.40L262.55 126.40Q265.05 125.31 266.52 123.80Q267.99 122.29 268.63 120.12L268.63 120.12Q268.81 119.49 268.81 119.10L268.81 119.10Q268.81 118.65 268.54 118.45Q268.27 118.25 267.68 118.18L267.68 118.18Q267.36 118.15 267.01 118.13Q266.66 118.11 266.30 118.11L266.30 118.11Q264.13 118.11 261.12 118.76L261.12 118.76Q261.08 118.77 261.00 118.77L261.00 118.77Q260.74 118.77 260.54 118.59Q260.33 118.40 260.33 118.12L260.33 118.12Q260.33 117.83 260.50 117.61Q260.66 117.39 260.94 117.33L260.94 117.33Q261.73 117.16 262.67 117.04Q263.62 116.91 264.60 116.84Q265.57 116.77 266.44 116.77L266.44 116.77Q266.86 116.77 267.23 116.80Q267.60 116.82 267.91 116.85L267.91 116.85Q268.84 116.96 269.35 117.30Q269.85 117.64 270.04 118.11Q270.24 118.59 270.24 119.10L270.24 119.10Q270.24 119.47 270.16 119.84Q270.08 120.22 269.99 120.53L269.99 120.53Q269.22 123.02 267.53 124.77Q265.84 126.52 263.06 127.72Z" fill="#33241D"/>
  <path d="M285.73 117.97L285.73 117.97L279.16 117.97Q278.86 117.97 278.67 117.77Q278.48 117.56 278.48 117.29L278.48 117.29Q278.48 116.99 278.68 116.80Q278.88 116.60 279.16 116.60L279.16 116.60L285.73 116.60Q286.02 116.60 286.22 116.81Q286.41 117.01 286.41 117.29L286.41 117.29Q286.41 117.58 286.21 117.77Q286.01 117.97 285.73 117.97ZM280.41 127.76L280.41 127.76Q280.37 127.78 280.27 127.78L280.27 127.78Q280.01 127.78 279.80 127.59Q279.59 127.39 279.59 127.10L279.59 127.10Q279.59 126.83 279.76 126.63Q279.93 126.43 280.18 126.38L280.18 126.38Q282.12 125.97 283.52 124.92Q284.92 123.87 285.68 122.29L285.68 122.29Q285.85 121.92 285.95 121.66Q286.05 121.41 286.05 121.25L286.05 121.25Q286.05 121.02 285.82 120.96Q285.59 120.90 285.08 120.90L285.08 120.90Q284.47 120.90 283.47 120.99Q282.46 121.08 281.26 121.18Q280.06 121.27 278.85 121.27L278.85 121.27Q278.69 121.27 278.54 121.26Q278.38 121.25 278.21 121.25L278.21 121.25Q277.92 121.24 277.72 121.04Q277.53 120.83 277.53 120.54L277.53 120.54Q277.53 120.23 277.75 120.03Q277.98 119.83 278.27 119.86L278.27 119.86Q278.58 119.87 278.89 119.88Q279.19 119.89 279.48 119.89L279.48 119.89Q281.25 119.89 282.75 119.73Q284.24 119.58 285.28 119.58L285.28 119.58Q286.52 119.58 286.99 119.99Q287.47 120.40 287.47 121.05L287.47 121.05Q287.47 121.47 287.31 121.96Q287.16 122.45 286.91 122.96L286.91 122.96Q286.01 124.83 284.36 126.05Q282.71 127.27 280.41 127.76Z" fill="#33241D"/>
  <path d="M298.14 127.92L298.14 127.92Q298.07 127.93 298.02 127.96Q297.97 127.98 297.89 127.98L297.89 127.98Q297.66 127.98 297.45 127.79Q297.25 127.61 297.25 127.31L297.25 127.31Q297.25 127.11 297.37 126.93Q297.48 126.76 297.69 126.68L297.69 126.68Q298.91 126.12 299.74 125.27Q300.57 124.42 301.07 123.41Q301.58 122.40 301.84 121.39Q302.10 120.37 302.20 119.49L302.20 119.49Q302.23 119.22 302.45 119.06Q302.68 118.90 302.93 118.96L302.93 118.96Q303.20 119.02 303.37 119.25Q303.53 119.49 303.50 119.77L303.50 119.77Q303.14 122.76 301.76 124.86Q300.37 126.96 298.14 127.92ZM298.90 122.48L298.90 122.48Q298.77 122.54 298.63 122.54L298.63 122.54Q298.24 122.54 298.09 122.17L298.09 122.17Q297.89 121.64 297.71 120.97Q297.53 120.31 297.42 119.67L297.42 119.67Q297.39 119.39 297.58 119.18Q297.76 118.96 298.04 118.96L298.04 118.96Q298.26 118.96 298.44 119.11Q298.62 119.27 298.65 119.49L298.65 119.49Q298.74 120.06 298.90 120.63Q299.07 121.19 299.22 121.63L299.22 121.63Q299.27 121.73 299.27 121.87L299.27 121.87Q299.27 122.28 298.90 122.48ZM296.68 123.28L296.68 123.28Q296.54 123.38 296.37 123.38L296.37 123.38Q296.01 123.38 295.84 123.04L295.84 123.04Q295.59 122.49 295.34 121.78Q295.08 121.07 294.94 120.46L294.94 120.46Q294.93 120.42 294.93 120.32L294.93 120.32Q294.93 120.09 295.11 119.90Q295.30 119.70 295.55 119.70L295.55 119.70Q295.76 119.70 295.95 119.85Q296.14 120.00 296.18 120.22L296.18 120.22Q296.31 120.73 296.52 121.34Q296.73 121.95 296.94 122.45L296.94 122.45Q297.00 122.57 297.00 122.73L297.00 122.73Q297.00 123.11 296.68 123.28Z" fill="#33241D"/>
  <path d="M320.63 123.02L320.63 123.02Q320.83 123.22 320.83 123.53L320.83 123.53Q320.83 123.84 320.63 124.06L320.63 124.06Q320.48 124.26 320.18 124.26L320.18 124.26Q319.90 124.26 319.70 124.06L319.70 124.06Q318.76 123.04 317.77 122.45Q316.77 121.86 315.60 121.64L315.60 121.64L315.56 121.64Q315.44 121.64 315.44 121.77L315.44 121.77L315.44 127.16Q315.44 127.44 315.24 127.65Q315.04 127.86 314.73 127.86L314.73 127.86Q314.45 127.86 314.24 127.66Q314.03 127.45 314.03 127.16L314.03 127.16L314.03 116.65Q314.03 116.36 314.24 116.15Q314.45 115.94 314.73 115.94L314.73 115.94Q315.02 115.94 315.23 116.15Q315.44 116.36 315.44 116.65L315.44 116.65L315.44 120.12Q315.44 120.23 315.58 120.26L315.58 120.26Q316.57 120.40 317.49 120.81Q318.42 121.22 319.21 121.80Q320.01 122.37 320.63 123.02Z" fill="#33241D"/>
  <path d="M330.42 127.66L330.42 127.66Q330.30 127.72 330.14 127.72L330.14 127.72Q329.69 127.72 329.49 127.27L329.49 127.27Q329.44 127.14 329.44 127.02L329.44 127.02Q329.44 126.80 329.57 126.62Q329.69 126.43 329.89 126.34L329.89 126.34Q332.39 125.27 333.86 123.75Q335.33 122.23 335.97 120.08L335.97 120.08Q336.15 119.44 336.15 119.05L336.15 119.05Q336.15 118.60 335.89 118.40Q335.63 118.20 335.04 118.14L335.04 118.14Q334.70 118.11 334.35 118.08Q334.00 118.06 333.61 118.06L333.61 118.06Q332.53 118.06 331.26 118.22Q329.99 118.39 328.48 118.70L328.48 118.70Q328.45 118.71 328.40 118.71Q328.36 118.71 328.33 118.71L328.33 118.71Q328.06 118.71 327.87 118.53Q327.68 118.34 327.68 118.05L327.68 118.05Q327.68 117.78 327.85 117.56Q328.02 117.35 328.28 117.29L328.28 117.29Q329.07 117.11 330.02 116.99Q330.98 116.87 331.95 116.80Q332.93 116.73 333.78 116.73L333.78 116.73Q334.19 116.73 334.56 116.75Q334.93 116.77 335.24 116.81L335.24 116.81Q336.17 116.91 336.67 117.25Q337.18 117.60 337.37 118.06Q337.57 118.53 337.57 119.04L337.57 119.04Q337.57 119.42 337.49 119.80Q337.41 120.17 337.32 120.48L337.32 120.48Q336.56 122.97 334.88 124.72Q333.19 126.46 330.42 127.66Z" fill="#33241D"/>
  <path d="M353.47 120.37L353.47 120.37Q353.74 120.39 353.91 120.56Q354.08 120.74 354.08 121.01L354.08 121.01Q354.08 121.28 353.88 121.48Q353.68 121.67 353.41 121.66L353.41 121.66Q352.84 121.63 352.25 121.61Q351.66 121.59 351.04 121.59L351.04 121.59Q350.90 121.59 350.92 121.73L350.92 121.73Q350.99 122.66 351.08 123.67Q351.17 124.68 351.27 125.70L351.27 125.70Q351.29 125.83 351.30 125.95Q351.30 126.07 351.30 126.20L351.30 126.20Q351.30 126.72 351.10 127.13Q350.90 127.53 350.35 127.73Q349.80 127.93 348.76 127.92L348.76 127.92Q348.51 127.92 348.33 127.73Q348.14 127.55 348.14 127.28L348.14 127.28Q348.14 127.00 348.34 126.82Q348.55 126.63 348.81 126.63L348.81 126.63Q349.03 126.63 349.22 126.63Q349.41 126.63 349.57 126.62L349.57 126.62Q349.83 126.60 349.93 126.56Q350.02 126.52 350.02 126.32L350.02 126.32Q350.02 126.23 350.01 126.11Q350.00 125.98 349.99 125.83L349.99 125.83Q349.93 125.19 349.87 124.51Q349.82 123.83 349.74 123.16L349.74 123.16Q349.74 123.07 349.69 123.05Q349.63 123.04 349.57 123.11L349.57 123.11Q349.03 123.75 348.34 124.36Q347.65 124.97 346.93 125.48Q346.21 126.00 345.54 126.31L345.54 126.31Q345.41 126.37 345.28 126.37L345.28 126.37Q344.87 126.37 344.70 125.97L344.70 125.97Q344.66 125.84 344.66 125.73L344.66 125.73Q344.66 125.31 345.06 125.11L345.06 125.11Q345.82 124.74 346.55 124.20Q347.27 123.66 347.90 123.03Q348.53 122.40 348.96 121.77L348.96 121.77Q349.00 121.73 349.00 121.67L349.00 121.67Q349.00 121.59 348.87 121.59L348.87 121.59Q347.99 121.61 347.14 121.66Q346.28 121.70 345.51 121.77L345.51 121.77Q345.23 121.78 345.02 121.59Q344.81 121.41 344.81 121.11L344.81 121.11Q344.81 120.87 344.97 120.68Q345.14 120.49 345.38 120.48L345.38 120.48Q346.31 120.40 347.33 120.36Q348.34 120.32 349.37 120.31L349.37 120.31Q349.49 120.31 349.49 120.17L349.49 120.17L349.38 118.42Q349.37 118.14 349.56 117.94Q349.75 117.75 350.03 117.75L350.03 117.75Q350.30 117.75 350.48 117.94Q350.65 118.12 350.67 118.37L350.67 118.37Q350.70 118.71 350.72 119.17Q350.75 119.63 350.78 120.17L350.78 120.17Q350.81 120.31 350.93 120.31L350.93 120.31Q351.60 120.31 352.23 120.32Q352.87 120.34 353.47 120.37Z" fill="#33241D"/>
  <path d="M370.83 122.45L370.83 122.45L361.15 122.45Q360.87 122.45 360.67 122.25Q360.47 122.04 360.47 121.77L360.47 121.77Q360.47 121.47 360.67 121.28Q360.87 121.08 361.15 121.08L361.15 121.08L370.83 121.08Q371.10 121.08 371.31 121.28Q371.51 121.49 371.51 121.77L371.51 121.77Q371.51 122.06 371.31 122.25Q371.10 122.45 370.83 122.45Z" fill="#33241D"/>
  <path d="M388.78 125.87L388.78 125.87Q388.84 126.01 388.84 126.18L388.84 126.18Q388.84 126.66 388.41 126.88L388.41 126.88Q388.29 126.94 388.11 126.94L388.11 126.94Q387.91 126.94 387.72 126.83Q387.53 126.71 387.43 126.51L387.43 126.51Q387.31 126.24 387.16 125.97Q387.01 125.69 386.86 125.42L386.86 125.42Q386.80 125.33 386.69 125.33L386.69 125.33Q386.07 125.36 385.23 125.48Q384.39 125.61 383.45 125.79Q382.50 125.97 381.54 126.14Q380.57 126.32 379.68 126.46Q378.78 126.60 378.07 126.65L378.07 126.65Q377.87 126.66 377.68 126.55Q377.48 126.43 377.40 126.23L377.40 126.23Q377.33 126.03 377.33 125.84L377.33 125.84Q377.33 125.62 377.44 125.38L377.44 125.38Q377.82 124.57 378.33 123.60Q378.83 122.63 379.37 121.63Q379.90 120.63 380.41 119.70Q380.92 118.77 381.34 118.01Q381.76 117.25 382.02 116.79L382.02 116.79Q382.22 116.42 382.64 116.42L382.64 116.42Q382.83 116.42 382.98 116.51L382.98 116.51Q383.36 116.71 383.36 117.11L383.36 117.11Q383.36 117.29 383.26 117.46L383.26 117.46Q383.02 117.89 382.63 118.58Q382.24 119.27 381.78 120.10Q381.31 120.93 380.83 121.80Q380.35 122.68 379.92 123.52Q379.48 124.37 379.14 125.07L379.14 125.07Q379.12 125.10 379.12 125.13L379.12 125.13Q379.12 125.25 379.25 125.22L379.25 125.22Q379.85 125.14 380.67 124.98Q381.48 124.82 382.38 124.62Q383.28 124.43 384.15 124.25Q385.01 124.07 385.73 123.98L385.73 123.98Q385.91 123.98 385.81 123.81L385.81 123.81Q385.46 123.31 385.14 122.91Q384.81 122.51 384.60 122.23L384.60 122.23Q384.44 122.06 384.44 121.80L384.44 121.80Q384.44 121.44 384.72 121.25L384.72 121.25Q384.94 121.11 385.17 121.11L385.17 121.11Q385.53 121.11 385.74 121.38L385.74 121.38Q386.10 121.81 386.65 122.55Q387.20 123.28 387.78 124.15Q388.36 125.02 388.78 125.87Z" fill="#33241D"/>
</svg>
