<svg xmlns="http://www.w3.org/2000/svg" viewBox="-8 16.49 299.6 123.01">
  <!-- P2 ルビ付き — バディス（ブランド濁点）above buddis -->
  <path d="M113.07 45.23L113.07 45.23Q112.65 45.23 112.33 44.94Q112.00 44.66 111.93 44.22L111.93 44.22Q111.64 42.50 110.90 41.10Q110.16 39.69 109.20 38.52Q108.23 37.35 107.28 36.35Q106.34 35.35 105.61 34.41L105.61 34.41Q105.37 34.13 105.37 33.76L105.37 33.76Q105.37 33.14 105.92 32.80L105.92 32.80Q106.18 32.62 106.57 32.62L106.57 32.62Q106.86 32.62 107.13 32.74Q107.40 32.85 107.58 33.11L107.58 33.11Q108.26 34.00 109.25 35.04Q110.24 36.08 111.25 37.34Q112.26 38.60 113.08 40.20Q113.90 41.80 114.27 43.80L114.27 43.80Q114.34 44.32 113.98 44.78Q113.62 45.23 113.07 45.23ZM95.36 44.84L95.36 44.84Q95.03 45.10 94.61 45.10L94.61 45.10Q94.06 45.10 93.70 44.66L93.70 44.66Q93.47 44.35 93.47 43.93L93.47 43.93Q93.47 43.64 93.57 43.40Q93.67 43.15 93.91 42.97L93.91 42.97Q95.70 41.46 96.77 39.95Q97.83 38.44 98.45 37.00Q99.06 35.56 99.45 34.26L99.45 34.26Q99.58 33.87 99.89 33.63Q100.20 33.40 100.59 33.40L100.59 33.40Q101.11 33.40 101.45 33.76Q101.79 34.13 101.79 34.62L101.79 34.62Q101.79 34.75 101.73 34.96L101.73 34.96Q101.19 36.75 100.41 38.42Q99.63 40.08 98.42 41.67Q97.21 43.25 95.36 44.84Z" fill="#33241D"/>
  <path d="M123.39 32.49L123.39 32.49Q122.92 32.52 122.59 32.19Q122.25 31.87 122.25 31.40L122.25 31.40Q122.25 30.90 122.57 30.57Q122.90 30.23 123.39 30.20L123.39 30.20Q124.54 30.15 126.25 30.12Q127.97 30.10 129.74 30.10L129.74 30.10Q131.22 30.10 132.57 30.12Q133.92 30.15 134.86 30.20L134.86 30.20Q135.30 30.23 135.63 30.58Q135.95 30.93 135.95 31.40L135.95 31.40Q135.95 31.89 135.61 32.22Q135.27 32.54 134.78 32.52L134.78 32.52Q133.79 32.46 132.27 32.44Q130.75 32.41 129.14 32.41L129.14 32.41Q127.50 32.41 125.98 32.42Q124.46 32.44 123.39 32.49ZM137.72 35.58L137.72 35.58Q138.19 35.58 138.51 35.92Q138.84 36.26 138.84 36.70L138.84 36.70Q138.84 37.20 138.50 37.53Q138.16 37.87 137.69 37.87L137.69 37.87L131.32 37.87Q131.09 37.87 131.09 38.11L131.09 38.11Q131.09 40.71 130.49 42.53Q129.89 44.35 128.80 45.67Q127.71 47.00 126.25 48.12L126.25 48.12Q126.02 48.32 125.63 48.32L125.63 48.32Q125.00 48.32 124.69 47.78L124.69 47.78Q124.54 47.47 124.54 47.13L124.54 47.13Q124.54 46.50 125.03 46.11L125.03 46.11Q126.64 44.84 127.42 43.59Q128.20 42.34 128.45 41.01Q128.70 39.67 128.72 38.13L128.72 38.13Q128.72 37.90 128.49 37.90L128.49 37.90Q126.30 37.92 124.29 38.00Q122.27 38.08 120.90 38.21L120.90 38.21Q120.43 38.24 120.08 37.92Q119.73 37.61 119.73 37.14L119.73 37.14Q119.73 36.65 120.06 36.29Q120.40 35.92 120.87 35.90L120.87 35.90Q122.04 35.82 123.60 35.74Q125.16 35.66 126.93 35.62Q128.70 35.58 130.50 35.56Q132.31 35.53 133.95 35.53L133.95 35.53Q135.04 35.53 136.00 35.55Q136.96 35.56 137.72 35.58Z" fill="#33241D"/>
  <path d="M159.90 32.00L159.90 32.00Q160.52 32.36 160.52 33.09L160.52 33.09Q160.52 33.32 160.39 33.63L160.39 33.63Q159.84 34.67 159.17 35.69Q158.49 36.70 157.66 37.69L157.66 37.69Q157.53 37.79 157.58 38.00L157.58 38.00Q157.82 38.78 157.93 39.85Q158.05 40.91 158.05 42.45L158.05 42.45Q158.05 43.41 158.00 44.63Q157.95 45.85 157.84 47.36L157.84 47.36Q157.82 47.80 157.49 48.10Q157.17 48.40 156.72 48.40L156.72 48.40Q156.23 48.40 155.92 48.05Q155.61 47.70 155.63 47.21L155.63 47.21Q155.76 45.78 155.83 44.53Q155.89 43.28 155.89 42.24L155.89 42.24Q155.89 41.64 155.87 41.10Q155.84 40.55 155.79 40.08L155.79 40.08Q155.74 39.74 155.48 39.98L155.48 39.98Q154.36 41.02 153.11 41.92Q151.86 42.81 150.64 43.41L150.64 43.41Q150.43 43.51 150.17 43.51L150.17 43.51Q149.44 43.51 149.16 42.84L149.16 42.84Q149.08 42.63 149.08 42.40L149.08 42.40Q149.08 42.08 149.24 41.80Q149.39 41.51 149.70 41.36L149.70 41.36Q151.86 40.26 153.56 38.76Q155.27 37.25 156.49 35.60Q157.71 33.95 158.44 32.44L158.44 32.44Q158.73 31.84 159.35 31.84L159.35 31.84Q159.64 31.84 159.90 32.00Z" fill="#33241D"/>
  <path d="M189.98 46.24L189.98 46.24Q190.21 46.56 190.21 46.95L190.21 46.95Q190.21 47.57 189.72 47.99L189.72 47.99Q189.41 48.22 189.04 48.22L189.04 48.22Q188.47 48.22 188.11 47.75L188.11 47.75Q187.30 46.56 186.18 45.46Q185.06 44.37 183.83 43.51Q182.59 42.66 181.35 42.16L181.35 42.16Q181.16 42.08 181.03 42.21L181.03 42.21Q179.37 43.77 177.22 45.26Q175.08 46.74 172.38 47.96L172.38 47.96Q172.17 48.06 171.91 48.06L171.91 48.06Q171.49 48.06 171.15 47.75Q170.82 47.44 170.82 46.95L170.82 46.95Q170.82 46.56 171.04 46.22Q171.26 45.88 171.62 45.72L171.62 45.72Q174.14 44.61 176.16 43.19Q178.17 41.77 179.67 40.28Q181.16 38.78 182.15 37.42Q183.14 36.05 183.61 35.09L183.61 35.09Q184.13 33.97 184.13 33.37L184.13 33.37Q184.13 32.57 183.09 32.57L183.09 32.57Q182.93 32.57 182.76 32.57Q182.59 32.57 182.39 32.62L182.39 32.62Q181.50 32.75 180.02 32.88Q178.54 33.01 176.78 33.09Q175.03 33.17 173.34 33.17L173.34 33.17Q172.90 33.17 172.57 32.84Q172.25 32.52 172.25 32.05L172.25 32.05Q172.25 31.55 172.58 31.22Q172.92 30.88 173.42 30.88L173.42 30.88L174.59 30.88Q176.87 30.88 178.90 30.72Q180.93 30.57 182.05 30.36L182.05 30.36Q182.33 30.31 182.59 30.28Q182.85 30.25 183.11 30.25L183.11 30.25Q184.67 30.25 185.55 31.10Q186.42 31.94 186.42 33.35L186.42 33.35Q186.42 34.65 185.69 36.13L185.69 36.13Q185.27 36.99 184.62 37.98Q183.97 38.96 183.09 40.03L183.09 40.03Q183.04 40.08 183.04 40.19L183.04 40.19Q183.04 40.29 183.17 40.37L183.17 40.37Q184.47 41.02 185.74 41.99Q187.01 42.97 188.11 44.07Q189.20 45.18 189.98 46.24Z" fill="#33241D"/>
  <rect x="108.89" y="28.48" width="1.73" height="5.09" rx="0.87" fill="#33241D" transform="rotate(35 109.76 31.02)"/>
  <rect x="110.9" y="27.64" width="1.7" height="4.59" rx="0.85" fill="#33241D" transform="rotate(32 111.74 29.94)"/>
  <rect x="136.21" y="27.52" width="1.73" height="5.08" rx="0.86" fill="#33241D" transform="rotate(35 137.07 30.06)"/>
  <rect x="138.21" y="26.69" width="1.69" height="4.58" rx="0.85" fill="#33241D" transform="rotate(32 139.06 28.98)"/>
  <path d="M30.10 81.30L30.10 81.30Q36.50 81.30 41.65 84.05Q46.80 86.80 49.80 92.35Q52.80 97.90 52.80 106.20L52.80 106.20Q52.80 114.60 49.65 120.20Q46.50 125.80 40.85 128.60Q35.20 131.40 27.70 131.40L27.70 131.40Q22 131.40 17.75 130.05Q13.50 128.70 10.60 126.90L10.60 126.90Q8.50 125.40 7.55 123.85Q6.60 122.30 6.60 120L6.60 120L6.60 87.70L18.90 87.70L18.90 119.20Q20.20 120.10 22.45 120.85Q24.70 121.60 27.60 121.60L27.60 121.60Q33.30 121.60 36.75 117.80Q40.20 114 40.20 106.20L40.20 106.20Q40.20 98.30 36.80 94.70Q33.40 91.10 27.90 91.10L27.90 91.10Q24.40 91.10 21.70 92.40Q19 93.70 17.10 95.40L17.10 95.40L16.30 85.40Q18.60 84 22.05 82.65Q25.50 81.30 30.10 81.30ZM18.90 69.90L18.90 90.50L6.60 90.50L6.60 65Q7.40 64.80 8.90 64.50Q10.40 64.20 12.20 64.20L12.20 64.20Q15.70 64.20 17.30 65.45Q18.90 66.70 18.90 69.90L18.90 69.90Z" fill="#33241D"/>
  <path d="M61.80 111.90L61.80 111.90L61.80 104L74.10 104L74.10 111.70Q74.10 117 76.85 119.30Q79.60 121.60 84.50 121.60L84.50 121.60Q87.70 121.60 89.90 121Q92.10 120.40 93.20 119.70L93.20 119.70L93.20 104L105.50 104L105.50 120.70Q105.50 123 104.75 124.55Q104 126.10 101.90 127.40L101.90 127.40Q99 129.10 94.55 130.25Q90.10 131.40 84.40 131.40L84.40 131.40Q77.50 131.40 72.40 129.40Q67.30 127.40 64.55 123.05Q61.80 118.70 61.80 111.90ZM105.50 87.80L105.50 108.80L93.20 108.80L93.20 82.80Q94 82.60 95.55 82.35Q97.10 82.10 98.80 82.10L98.80 82.10Q102.30 82.10 103.90 83.30Q105.50 84.50 105.50 87.80L105.50 87.80ZM74.10 87.80L74.10 108.80L61.80 108.80L61.80 82.80Q62.60 82.60 64.10 82.35Q65.60 82.10 67.40 82.10L67.40 82.10Q70.90 82.10 72.50 83.30Q74.10 84.50 74.10 87.80L74.10 87.80Z" fill="#33241D"/>
  <path d="M148.10 119.60L148.10 119.60L148.10 88.20L160.40 88.20L160.40 120.90Q160.40 123.10 159.45 124.55Q158.50 126 156.40 127.30L156.40 127.30Q154 128.90 149.85 130.15Q145.70 131.40 140.40 131.40L140.40 131.40Q132.50 131.40 126.65 128.75Q120.80 126.10 117.60 120.55Q114.40 115 114.40 106.50L114.40 106.50Q114.40 97.80 117.65 92.20Q120.90 86.60 126.40 83.95Q131.90 81.30 138.60 81.30L138.60 81.30Q142.30 81.30 145.35 82.20Q148.40 83.10 150.30 84.30L150.30 84.30L150.30 94.80Q148.70 93.30 146.10 92.20Q143.50 91.10 140.10 91.10L140.10 91.10Q136.40 91.10 133.40 92.65Q130.40 94.20 128.70 97.65Q127 101.10 127 106.60L127 106.60Q127 114.40 130.60 118Q134.20 121.60 140.30 121.60L140.30 121.60Q143 121.60 144.90 121Q146.80 120.40 148.10 119.60ZM160.40 69.90L160.40 90.70L148.10 90.80L148.10 65Q148.80 64.80 150.35 64.50Q151.90 64.20 153.60 64.20L153.60 64.20Q157.20 64.20 158.80 65.45Q160.40 66.70 160.40 69.90L160.40 69.90Z" fill="#33241D"/>
  <path d="M196.20 119.60L196.20 119.60L196.20 88.20L208.50 88.20L208.50 120.90Q208.50 123.10 207.55 124.55Q206.60 126 204.50 127.30L204.50 127.30Q202.10 128.90 197.95 130.15Q193.80 131.40 188.50 131.40L188.50 131.40Q180.60 131.40 174.75 128.75Q168.90 126.10 165.70 120.55Q162.50 115 162.50 106.50L162.50 106.50Q162.50 97.80 165.75 92.20Q169 86.60 174.50 83.95Q180 81.30 186.70 81.30L186.70 81.30Q190.40 81.30 193.45 82.20Q196.50 83.10 198.40 84.30L198.40 84.30L198.40 94.80Q196.80 93.30 194.20 92.20Q191.60 91.10 188.20 91.10L188.20 91.10Q184.50 91.10 181.50 92.65Q178.50 94.20 176.80 97.65Q175.10 101.10 175.10 106.60L175.10 106.60Q175.10 114.40 178.70 118Q182.30 121.60 188.40 121.60L188.40 121.60Q191.10 121.60 193 121Q194.90 120.40 196.20 119.60ZM208.50 69.90L208.50 90.70L196.20 90.80L196.20 65Q196.90 64.80 198.45 64.50Q200 64.20 201.70 64.20L201.70 64.20Q205.30 64.20 206.90 65.45Q208.50 66.70 208.50 69.90L208.50 69.90Z" fill="#33241D"/>
  <path d="M219.40 68.60L219.40 68.60Q219.40 65.70 221.45 63.70Q223.50 61.70 226.60 61.70L226.60 61.70Q229.80 61.70 231.75 63.70Q233.70 65.70 233.70 68.60L233.70 68.60Q233.70 71.40 231.75 73.45Q229.80 75.50 226.60 75.50L226.60 75.50Q223.50 75.50 221.45 73.45Q219.40 71.40 219.40 68.60ZM220.40 124.90L220.40 103.60L232.80 103.60L232.80 129.80Q232 130.10 230.50 130.35Q229 130.60 227.20 130.60L227.20 130.60Q223.80 130.60 222.10 129.35Q220.40 128.10 220.40 124.90L220.40 124.90ZM232.80 88.10L232.80 109.90L220.40 109.90L220.40 83.10Q221.20 82.80 222.75 82.55Q224.30 82.30 226.10 82.30L226.10 82.30Q229.60 82.30 231.20 83.55Q232.80 84.80 232.80 88.10L232.80 88.10Z" fill="#33241D"/>
  <path d="M281.20 116.60L281.20 116.60Q281.20 123.60 276 127.55Q270.80 131.50 260.90 131.50L260.90 131.50Q252.90 131.50 247.80 129.10Q242.70 126.70 242.70 122.70L242.70 122.70Q242.70 121 243.50 119.55Q244.30 118.10 245.60 117.30L245.60 117.30Q248.40 119.10 252.10 120.50Q255.80 121.90 260.50 121.90L260.50 121.90Q269 121.90 269 116.70L269 116.70Q269 114.50 267.50 113.15Q266 111.80 262.90 111.20L262.90 111.20L257.20 109.70Q249.90 108.10 246.35 104.70Q242.80 101.30 242.80 95.60L242.80 95.60Q242.80 89.30 248 85.25Q253.20 81.20 262.40 81.20L262.40 81.20Q267.20 81.20 271 82.15Q274.80 83.10 276.95 84.90Q279.10 86.70 279.10 89.20L279.10 89.20Q279.10 90.90 278.35 92.25Q277.60 93.60 276.40 94.30L276.40 94.30Q275.20 93.60 273.15 92.75Q271.10 91.90 268.50 91.35Q265.90 90.80 263.30 90.80L263.30 90.80Q259.40 90.80 257.15 92.05Q254.90 93.30 254.90 95.60L254.90 95.60Q254.90 97.30 256.20 98.50Q257.50 99.70 260.60 100.40L260.60 100.40L265.70 101.60Q273.80 103.50 277.50 107.15Q281.20 110.80 281.20 116.60Z" fill="#33241D"/>
</svg>
