<svg xmlns="http://www.w3.org/2000/svg" viewBox="-8 23.7 299.6 144.99">
  <!-- P3 バイリンガル縦積み — buddis + バディス -->
  <path d="M30.10 51.30L30.10 51.30Q36.50 51.30 41.65 54.05Q46.80 56.80 49.80 62.35Q52.80 67.90 52.80 76.20L52.80 76.20Q52.80 84.60 49.65 90.20Q46.50 95.80 40.85 98.60Q35.20 101.40 27.70 101.40L27.70 101.40Q22 101.40 17.75 100.05Q13.50 98.70 10.60 96.90L10.60 96.90Q8.50 95.40 7.55 93.85Q6.60 92.30 6.60 90L6.60 90L6.60 57.70L18.90 57.70L18.90 89.20Q20.20 90.10 22.45 90.85Q24.70 91.60 27.60 91.60L27.60 91.60Q33.30 91.60 36.75 87.80Q40.20 84 40.20 76.20L40.20 76.20Q40.20 68.30 36.80 64.70Q33.40 61.10 27.90 61.10L27.90 61.10Q24.40 61.10 21.70 62.40Q19 63.70 17.10 65.40L17.10 65.40L16.30 55.40Q18.60 54 22.05 52.65Q25.50 51.30 30.10 51.30ZM18.90 39.90L18.90 60.50L6.60 60.50L6.60 35Q7.40 34.80 8.90 34.50Q10.40 34.20 12.20 34.20L12.20 34.20Q15.70 34.20 17.30 35.45Q18.90 36.70 18.90 39.90L18.90 39.90Z" fill="#33241D"/>
  <path d="M61.80 81.90L61.80 81.90L61.80 74L74.10 74L74.10 81.70Q74.10 87 76.85 89.30Q79.60 91.60 84.50 91.60L84.50 91.60Q87.70 91.60 89.90 91Q92.10 90.40 93.20 89.70L93.20 89.70L93.20 74L105.50 74L105.50 90.70Q105.50 93 104.75 94.55Q104 96.10 101.90 97.40L101.90 97.40Q99 99.10 94.55 100.25Q90.10 101.40 84.40 101.40L84.40 101.40Q77.50 101.40 72.40 99.40Q67.30 97.40 64.55 93.05Q61.80 88.70 61.80 81.90ZM105.50 57.80L105.50 78.80L93.20 78.80L93.20 52.80Q94 52.60 95.55 52.35Q97.10 52.10 98.80 52.10L98.80 52.10Q102.30 52.10 103.90 53.30Q105.50 54.50 105.50 57.80L105.50 57.80ZM74.10 57.80L74.10 78.80L61.80 78.80L61.80 52.80Q62.60 52.60 64.10 52.35Q65.60 52.10 67.40 52.10L67.40 52.10Q70.90 52.10 72.50 53.30Q74.10 54.50 74.10 57.80L74.10 57.80Z" fill="#33241D"/>
  <path d="M148.10 89.60L148.10 89.60L148.10 58.20L160.40 58.20L160.40 90.90Q160.40 93.10 159.45 94.55Q158.50 96 156.40 97.30L156.40 97.30Q154 98.90 149.85 100.15Q145.70 101.40 140.40 101.40L140.40 101.40Q132.50 101.40 126.65 98.75Q120.80 96.10 117.60 90.55Q114.40 85 114.40 76.50L114.40 76.50Q114.40 67.80 117.65 62.20Q120.90 56.60 126.40 53.95Q131.90 51.30 138.60 51.30L138.60 51.30Q142.30 51.30 145.35 52.20Q148.40 53.10 150.30 54.30L150.30 54.30L150.30 64.80Q148.70 63.30 146.10 62.20Q143.50 61.10 140.10 61.10L140.10 61.10Q136.40 61.10 133.40 62.65Q130.40 64.20 128.70 67.65Q127 71.10 127 76.60L127 76.60Q127 84.40 130.60 88Q134.20 91.60 140.30 91.60L140.30 91.60Q143 91.60 144.90 91Q146.80 90.40 148.10 89.60ZM160.40 39.90L160.40 60.70L148.10 60.80L148.10 35Q148.80 34.80 150.35 34.50Q151.90 34.20 153.60 34.20L153.60 34.20Q157.20 34.20 158.80 35.45Q160.40 36.70 160.40 39.90L160.40 39.90Z" fill="#B3492E"/>
  <path d="M196.20 89.60L196.20 89.60L196.20 58.20L208.50 58.20L208.50 90.90Q208.50 93.10 207.55 94.55Q206.60 96 204.50 97.30L204.50 97.30Q202.10 98.90 197.95 100.15Q193.80 101.40 188.50 101.40L188.50 101.40Q180.60 101.40 174.75 98.75Q168.90 96.10 165.70 90.55Q162.50 85 162.50 76.50L162.50 76.50Q162.50 67.80 165.75 62.20Q169 56.60 174.50 53.95Q180 51.30 186.70 51.30L186.70 51.30Q190.40 51.30 193.45 52.20Q196.50 53.10 198.40 54.30L198.40 54.30L198.40 64.80Q196.80 63.30 194.20 62.20Q191.60 61.10 188.20 61.10L188.20 61.10Q184.50 61.10 181.50 62.65Q178.50 64.20 176.80 67.65Q175.10 71.10 175.10 76.60L175.10 76.60Q175.10 84.40 178.70 88Q182.30 91.60 188.40 91.60L188.40 91.60Q191.10 91.60 193 91Q194.90 90.40 196.20 89.60ZM208.50 39.90L208.50 60.70L196.20 60.80L196.20 35Q196.90 34.80 198.45 34.50Q200 34.20 201.70 34.20L201.70 34.20Q205.30 34.20 206.90 35.45Q208.50 36.70 208.50 39.90L208.50 39.90Z" fill="#B3492E"/>
  <path d="M219.40 38.60L219.40 38.60Q219.40 35.70 221.45 33.70Q223.50 31.70 226.60 31.70L226.60 31.70Q229.80 31.70 231.75 33.70Q233.70 35.70 233.70 38.60L233.70 38.60Q233.70 41.40 231.75 43.45Q229.80 45.50 226.60 45.50L226.60 45.50Q223.50 45.50 221.45 43.45Q219.40 41.40 219.40 38.60ZM220.40 94.90L220.40 73.60L232.80 73.60L232.80 99.80Q232 100.10 230.50 100.35Q229 100.60 227.20 100.60L227.20 100.60Q223.80 100.60 222.10 99.35Q220.40 98.10 220.40 94.90L220.40 94.90ZM232.80 58.10L232.80 79.90L220.40 79.90L220.40 53.10Q221.20 52.80 222.75 52.55Q224.30 52.30 226.10 52.30L226.10 52.30Q229.60 52.30 231.20 53.55Q232.80 54.80 232.80 58.10L232.80 58.10Z" fill="#33241D"/>
  <path d="M281.20 86.60L281.20 86.60Q281.20 93.60 276 97.55Q270.80 101.50 260.90 101.50L260.90 101.50Q252.90 101.50 247.80 99.10Q242.70 96.70 242.70 92.70L242.70 92.70Q242.70 91 243.50 89.55Q244.30 88.10 245.60 87.30L245.60 87.30Q248.40 89.10 252.10 90.50Q255.80 91.90 260.50 91.90L260.50 91.90Q269 91.90 269 86.70L269 86.70Q269 84.50 267.50 83.15Q266 81.80 262.90 81.20L262.90 81.20L257.20 79.70Q249.90 78.10 246.35 74.70Q242.80 71.30 242.80 65.60L242.80 65.60Q242.80 59.30 248 55.25Q253.20 51.20 262.40 51.20L262.40 51.20Q267.20 51.20 271 52.15Q274.80 53.10 276.95 54.90Q279.10 56.70 279.10 59.20L279.10 59.20Q279.10 60.90 278.35 62.25Q277.60 63.60 276.40 64.30L276.40 64.30Q275.20 63.60 273.15 62.75Q271.10 61.90 268.50 61.35Q265.90 60.80 263.30 60.80L263.30 60.80Q259.40 60.80 257.15 62.05Q254.90 63.30 254.90 65.60L254.90 65.60Q254.90 67.30 256.20 68.50Q257.50 69.70 260.60 70.40L260.60 70.40L265.70 71.60Q273.80 73.50 277.50 77.15Q281.20 80.80 281.20 86.60Z" fill="#33241D"/>
  <path d="M93.18 143.32L93.18 143.32Q92.48 143.32 91.93 142.84Q91.38 142.35 91.24 141.60L91.24 141.60Q90.76 138.70 89.51 136.32Q88.25 133.95 86.62 131.97Q85.00 129.99 83.39 128.29Q81.78 126.60 80.55 125.02L80.55 125.02Q80.16 124.53 80.16 123.92L80.16 123.92Q80.16 122.86 81.08 122.29L81.08 122.29Q81.52 121.98 82.18 121.98L82.18 121.98Q82.66 121.98 83.13 122.18Q83.59 122.38 83.90 122.82L83.90 122.82Q85.04 124.31 86.71 126.07Q88.38 127.83 90.10 129.97Q91.82 132.10 93.20 134.81Q94.59 137.51 95.20 140.90L95.20 140.90Q95.34 141.78 94.72 142.55Q94.10 143.32 93.18 143.32ZM63.22 142.66L63.22 142.66Q62.64 143.10 61.94 143.10L61.94 143.10Q61.02 143.10 60.40 142.35L60.40 142.35Q60.00 141.82 60.00 141.12L60.00 141.12Q60.00 140.64 60.18 140.22Q60.36 139.80 60.75 139.49L60.75 139.49Q63.79 136.94 65.59 134.39Q67.40 131.84 68.43 129.39Q69.46 126.95 70.12 124.75L70.12 124.75Q70.34 124.09 70.87 123.70Q71.40 123.30 72.06 123.30L72.06 123.30Q72.94 123.30 73.51 123.92Q74.08 124.53 74.08 125.37L74.08 125.37Q74.08 125.59 74.00 125.94L74.00 125.94Q73.07 128.98 71.75 131.79Q70.43 134.61 68.39 137.29Q66.34 139.98 63.22 142.66Z" fill="#33241D"/>
  <path d="M110.65 121.76L110.65 121.76Q109.86 121.80 109.28 121.25Q108.71 120.70 108.71 119.91L108.71 119.91Q108.71 119.08 109.26 118.50Q109.81 117.93 110.65 117.89L110.65 117.89Q112.58 117.80 115.49 117.76Q118.39 117.71 121.38 117.71L121.38 117.71Q123.89 117.71 126.18 117.76Q128.47 117.80 130.05 117.89L130.05 117.89Q130.80 117.93 131.35 118.53Q131.90 119.12 131.90 119.91L131.90 119.91Q131.90 120.75 131.33 121.30Q130.76 121.85 129.92 121.80L129.92 121.80Q128.25 121.72 125.67 121.67Q123.10 121.63 120.37 121.63L120.37 121.63Q117.60 121.63 115.03 121.65Q112.45 121.67 110.65 121.76ZM134.89 127.00L134.89 127.00Q135.68 127.00 136.23 127.57Q136.78 128.14 136.78 128.89L136.78 128.89Q136.78 129.72 136.21 130.30Q135.64 130.87 134.85 130.87L134.85 130.87L124.07 130.87Q123.67 130.87 123.67 131.26L123.67 131.26Q123.67 135.66 122.66 138.74Q121.65 141.82 119.80 144.07Q117.95 146.31 115.49 148.20L115.49 148.20Q115.09 148.56 114.43 148.56L114.43 148.56Q113.38 148.56 112.85 147.63L112.85 147.63Q112.58 147.10 112.58 146.53L112.58 146.53Q112.58 145.48 113.42 144.82L113.42 144.82Q116.15 142.66 117.47 140.55Q118.79 138.44 119.21 136.17Q119.62 133.90 119.67 131.31L119.67 131.31Q119.67 130.91 119.27 130.91L119.27 130.91Q115.58 130.96 112.17 131.09Q108.76 131.22 106.42 131.44L106.42 131.44Q105.63 131.48 105.04 130.96Q104.44 130.43 104.44 129.64L104.44 129.64Q104.44 128.80 105.02 128.18Q105.59 127.57 106.38 127.52L106.38 127.52Q108.36 127.39 111 127.26Q113.64 127.13 116.63 127.06Q119.62 127.00 122.68 126.95Q125.74 126.91 128.51 126.91L128.51 126.91Q130.36 126.91 131.99 126.93Q133.62 126.95 134.89 127.00Z" fill="#33241D"/>
  <path d="M172.42 120.92L172.42 120.92Q173.48 121.54 173.48 122.77L173.48 122.77Q173.48 123.17 173.26 123.70L173.26 123.70Q172.34 125.46 171.19 127.17Q170.05 128.89 168.64 130.56L168.64 130.56Q168.42 130.74 168.51 131.09L168.51 131.09Q168.90 132.41 169.10 134.21Q169.30 136.02 169.30 138.61L169.30 138.61Q169.30 140.24 169.21 142.31Q169.12 144.38 168.95 146.93L168.95 146.93Q168.90 147.68 168.35 148.18Q167.80 148.69 167.06 148.69L167.06 148.69Q166.22 148.69 165.69 148.09Q165.16 147.50 165.21 146.66L165.21 146.66Q165.43 144.24 165.54 142.13Q165.65 140.02 165.65 138.26L165.65 138.26Q165.65 137.25 165.60 136.32Q165.56 135.40 165.47 134.61L165.47 134.61Q165.38 134.04 164.94 134.43L164.94 134.43Q163.05 136.19 160.94 137.71Q158.83 139.23 156.76 140.24L156.76 140.24Q156.41 140.42 155.97 140.42L155.97 140.42Q154.74 140.42 154.25 139.27L154.25 139.27Q154.12 138.92 154.12 138.52L154.12 138.52Q154.12 138.00 154.38 137.51Q154.65 137.03 155.18 136.76L155.18 136.76Q158.83 134.92 161.71 132.36Q164.59 129.81 166.66 127.02Q168.73 124.22 169.96 121.67L169.96 121.67Q170.44 120.66 171.50 120.66L171.50 120.66Q171.98 120.66 172.42 120.92Z" fill="#33241D"/>
  <path d="M223.33 145.04L223.33 145.04Q223.73 145.56 223.73 146.22L223.73 146.22Q223.73 147.28 222.89 147.98L222.89 147.98Q222.36 148.38 221.75 148.38L221.75 148.38Q220.78 148.38 220.16 147.59L220.16 147.59Q218.80 145.56 216.91 143.72Q215.02 141.87 212.93 140.42Q210.84 138.96 208.72 138.13L208.72 138.13Q208.42 138.00 208.20 138.22L208.20 138.22Q205.38 140.86 201.75 143.36Q198.12 145.87 193.54 147.94L193.54 147.94Q193.19 148.12 192.75 148.12L192.75 148.12Q192.05 148.12 191.48 147.59Q190.90 147.06 190.90 146.22L190.90 146.22Q190.90 145.56 191.28 144.99Q191.65 144.42 192.27 144.16L192.27 144.16Q196.54 142.26 199.95 139.87Q203.36 137.47 205.89 134.94Q208.42 132.41 210.09 130.10Q211.76 127.79 212.55 126.16L212.55 126.16Q213.43 124.27 213.43 123.26L213.43 123.26Q213.43 121.89 211.67 121.89L211.67 121.89Q211.41 121.89 211.12 121.89Q210.84 121.89 210.48 121.98L210.48 121.98Q208.99 122.20 206.48 122.42Q203.97 122.64 201.00 122.77Q198.03 122.90 195.17 122.90L195.17 122.90Q194.42 122.90 193.87 122.35Q193.32 121.80 193.32 121.01L193.32 121.01Q193.32 120.18 193.90 119.60Q194.47 119.03 195.30 119.03L195.30 119.03L197.28 119.03Q201.16 119.03 204.59 118.77Q208.02 118.50 209.91 118.15L209.91 118.15Q210.40 118.06 210.84 118.02Q211.28 117.98 211.72 117.98L211.72 117.98Q214.36 117.98 215.83 119.41Q217.30 120.84 217.30 123.21L217.30 123.21Q217.30 125.41 216.07 127.92L216.07 127.92Q215.37 129.37 214.27 131.04Q213.17 132.72 211.67 134.52L211.67 134.52Q211.58 134.61 211.58 134.78L211.58 134.78Q211.58 134.96 211.80 135.09L211.80 135.09Q214.00 136.19 216.16 137.84Q218.32 139.49 220.16 141.36Q222.01 143.23 223.33 145.04Z" fill="#33241D"/>
  <rect x="86.11" y="114.97" width="2.93" height="8.61" rx="1.46" fill="#B3492E" transform="rotate(35 87.57 119.27)"/>
  <rect x="89.5" y="113.56" width="2.87" height="7.77" rx="1.44" fill="#E58A64" transform="rotate(32 90.94 117.45)"/>
  <rect x="132.33" y="113.35" width="2.92" height="8.59" rx="1.46" fill="#B3492E" transform="rotate(35 133.79 117.65)"/>
  <rect x="135.73" y="111.94" width="2.86" height="7.75" rx="1.43" fill="#E58A64" transform="rotate(32 137.16 115.82)"/>
</svg>
