<svg xmlns="http://www.w3.org/2000/svg" viewBox="-8 16.49 455.6 124.21">
  <!-- F-B ルビ付きbuddis + 経費 -->
  <path d="M113.07 45.23L113.07 45.23Q112.65 45.23 112.33 44.94Q112.00 44.66 111.93 44.22L111.93 44.22Q111.64 42.50 110.90 41.10Q110.16 39.69 109.20 38.52Q108.23 37.35 107.28 36.35Q106.34 35.35 105.61 34.41L105.61 34.41Q105.37 34.13 105.37 33.76L105.37 33.76Q105.37 33.14 105.92 32.80L105.92 32.80Q106.18 32.62 106.57 32.62L106.57 32.62Q106.86 32.62 107.13 32.74Q107.40 32.85 107.58 33.11L107.58 33.11Q108.26 34.00 109.25 35.04Q110.24 36.08 111.25 37.34Q112.26 38.60 113.08 40.20Q113.90 41.80 114.27 43.80L114.27 43.80Q114.34 44.32 113.98 44.78Q113.62 45.23 113.07 45.23ZM95.36 44.84L95.36 44.84Q95.03 45.10 94.61 45.10L94.61 45.10Q94.06 45.10 93.70 44.66L93.70 44.66Q93.47 44.35 93.47 43.93L93.47 43.93Q93.47 43.64 93.57 43.40Q93.67 43.15 93.91 42.97L93.91 42.97Q95.70 41.46 96.77 39.95Q97.83 38.44 98.45 37.00Q99.06 35.56 99.45 34.26L99.45 34.26Q99.58 33.87 99.89 33.63Q100.20 33.40 100.59 33.40L100.59 33.40Q101.11 33.40 101.45 33.76Q101.79 34.13 101.79 34.62L101.79 34.62Q101.79 34.75 101.73 34.96L101.73 34.96Q101.19 36.75 100.41 38.42Q99.63 40.08 98.42 41.67Q97.21 43.25 95.36 44.84Z" fill="#33241D"/>
  <path d="M123.39 32.49L123.39 32.49Q122.92 32.52 122.59 32.19Q122.25 31.87 122.25 31.40L122.25 31.40Q122.25 30.90 122.57 30.57Q122.90 30.23 123.39 30.20L123.39 30.20Q124.54 30.15 126.25 30.12Q127.97 30.10 129.74 30.10L129.74 30.10Q131.22 30.10 132.57 30.12Q133.92 30.15 134.86 30.20L134.86 30.20Q135.30 30.23 135.63 30.58Q135.95 30.93 135.95 31.40L135.95 31.40Q135.95 31.89 135.61 32.22Q135.27 32.54 134.78 32.52L134.78 32.52Q133.79 32.46 132.27 32.44Q130.75 32.41 129.14 32.41L129.14 32.41Q127.50 32.41 125.98 32.42Q124.46 32.44 123.39 32.49ZM137.72 35.58L137.72 35.58Q138.19 35.58 138.51 35.92Q138.84 36.26 138.84 36.70L138.84 36.70Q138.84 37.20 138.50 37.53Q138.16 37.87 137.69 37.87L137.69 37.87L131.32 37.87Q131.09 37.87 131.09 38.11L131.09 38.11Q131.09 40.71 130.49 42.53Q129.89 44.35 128.80 45.67Q127.71 47.00 126.25 48.12L126.25 48.12Q126.02 48.32 125.63 48.32L125.63 48.32Q125.00 48.32 124.69 47.78L124.69 47.78Q124.54 47.47 124.54 47.13L124.54 47.13Q124.54 46.50 125.03 46.11L125.03 46.11Q126.64 44.84 127.42 43.59Q128.20 42.34 128.45 41.01Q128.70 39.67 128.72 38.13L128.72 38.13Q128.72 37.90 128.49 37.90L128.49 37.90Q126.30 37.92 124.29 38.00Q122.27 38.08 120.90 38.21L120.90 38.21Q120.43 38.24 120.08 37.92Q119.73 37.61 119.73 37.14L119.73 37.14Q119.73 36.65 120.06 36.29Q120.40 35.92 120.87 35.90L120.87 35.90Q122.04 35.82 123.60 35.74Q125.16 35.66 126.93 35.62Q128.70 35.58 130.50 35.56Q132.31 35.53 133.95 35.53L133.95 35.53Q135.04 35.53 136.00 35.55Q136.96 35.56 137.72 35.58Z" fill="#33241D"/>
  <path d="M159.90 32.00L159.90 32.00Q160.52 32.36 160.52 33.09L160.52 33.09Q160.52 33.32 160.39 33.63L160.39 33.63Q159.84 34.67 159.17 35.69Q158.49 36.70 157.66 37.69L157.66 37.69Q157.53 37.79 157.58 38.00L157.58 38.00Q157.82 38.78 157.93 39.85Q158.05 40.91 158.05 42.45L158.05 42.45Q158.05 43.41 158.00 44.63Q157.95 45.85 157.84 47.36L157.84 47.36Q157.82 47.80 157.49 48.10Q157.17 48.40 156.72 48.40L156.72 48.40Q156.23 48.40 155.92 48.05Q155.61 47.70 155.63 47.21L155.63 47.21Q155.76 45.78 155.83 44.53Q155.89 43.28 155.89 42.24L155.89 42.24Q155.89 41.64 155.87 41.10Q155.84 40.55 155.79 40.08L155.79 40.08Q155.74 39.74 155.48 39.98L155.48 39.98Q154.36 41.02 153.11 41.92Q151.86 42.81 150.64 43.41L150.64 43.41Q150.43 43.51 150.17 43.51L150.17 43.51Q149.44 43.51 149.16 42.84L149.16 42.84Q149.08 42.63 149.08 42.40L149.08 42.40Q149.08 42.08 149.24 41.80Q149.39 41.51 149.70 41.36L149.70 41.36Q151.86 40.26 153.56 38.76Q155.27 37.25 156.49 35.60Q157.71 33.95 158.44 32.44L158.44 32.44Q158.73 31.84 159.35 31.84L159.35 31.84Q159.64 31.84 159.90 32.00Z" fill="#33241D"/>
  <path d="M189.98 46.24L189.98 46.24Q190.21 46.56 190.21 46.95L190.21 46.95Q190.21 47.57 189.72 47.99L189.72 47.99Q189.41 48.22 189.04 48.22L189.04 48.22Q188.47 48.22 188.11 47.75L188.11 47.75Q187.30 46.56 186.18 45.46Q185.06 44.37 183.83 43.51Q182.59 42.66 181.35 42.16L181.35 42.16Q181.16 42.08 181.03 42.21L181.03 42.21Q179.37 43.77 177.22 45.26Q175.08 46.74 172.38 47.96L172.38 47.96Q172.17 48.06 171.91 48.06L171.91 48.06Q171.49 48.06 171.15 47.75Q170.82 47.44 170.82 46.95L170.82 46.95Q170.82 46.56 171.04 46.22Q171.26 45.88 171.62 45.72L171.62 45.72Q174.14 44.61 176.16 43.19Q178.17 41.77 179.67 40.28Q181.16 38.78 182.15 37.42Q183.14 36.05 183.61 35.09L183.61 35.09Q184.13 33.97 184.13 33.37L184.13 33.37Q184.13 32.57 183.09 32.57L183.09 32.57Q182.93 32.57 182.76 32.57Q182.59 32.57 182.39 32.62L182.39 32.62Q181.50 32.75 180.02 32.88Q178.54 33.01 176.78 33.09Q175.03 33.17 173.34 33.17L173.34 33.17Q172.90 33.17 172.57 32.84Q172.25 32.52 172.25 32.05L172.25 32.05Q172.25 31.55 172.58 31.22Q172.92 30.88 173.42 30.88L173.42 30.88L174.59 30.88Q176.87 30.88 178.90 30.72Q180.93 30.57 182.05 30.36L182.05 30.36Q182.33 30.31 182.59 30.28Q182.85 30.25 183.11 30.25L183.11 30.25Q184.67 30.25 185.55 31.10Q186.42 31.94 186.42 33.35L186.42 33.35Q186.42 34.65 185.69 36.13L185.69 36.13Q185.27 36.99 184.62 37.98Q183.97 38.96 183.09 40.03L183.09 40.03Q183.04 40.08 183.04 40.19L183.04 40.19Q183.04 40.29 183.17 40.37L183.17 40.37Q184.47 41.02 185.74 41.99Q187.01 42.97 188.11 44.07Q189.20 45.18 189.98 46.24Z" fill="#33241D"/>
  <rect x="108.89" y="28.48" width="1.73" height="5.09" rx="0.87" fill="#B3492E" transform="rotate(35 109.76 31.02)"/>
  <rect x="110.9" y="27.64" width="1.7" height="4.59" rx="0.85" fill="#E58A64" transform="rotate(32 111.74 29.94)"/>
  <rect x="136.21" y="27.52" width="1.73" height="5.08" rx="0.86" fill="#B3492E" transform="rotate(35 137.07 30.06)"/>
  <rect x="138.21" y="26.69" width="1.69" height="4.58" rx="0.85" fill="#E58A64" transform="rotate(32 139.06 28.98)"/>
  <path d="M30.10 81.30L30.10 81.30Q36.50 81.30 41.65 84.05Q46.80 86.80 49.80 92.35Q52.80 97.90 52.80 106.20L52.80 106.20Q52.80 114.60 49.65 120.20Q46.50 125.80 40.85 128.60Q35.20 131.40 27.70 131.40L27.70 131.40Q22 131.40 17.75 130.05Q13.50 128.70 10.60 126.90L10.60 126.90Q8.50 125.40 7.55 123.85Q6.60 122.30 6.60 120L6.60 120L6.60 87.70L18.90 87.70L18.90 119.20Q20.20 120.10 22.45 120.85Q24.70 121.60 27.60 121.60L27.60 121.60Q33.30 121.60 36.75 117.80Q40.20 114 40.20 106.20L40.20 106.20Q40.20 98.30 36.80 94.70Q33.40 91.10 27.90 91.10L27.90 91.10Q24.40 91.10 21.70 92.40Q19 93.70 17.10 95.40L17.10 95.40L16.30 85.40Q18.60 84 22.05 82.65Q25.50 81.30 30.10 81.30ZM18.90 69.90L18.90 90.50L6.60 90.50L6.60 65Q7.40 64.80 8.90 64.50Q10.40 64.20 12.20 64.20L12.20 64.20Q15.70 64.20 17.30 65.45Q18.90 66.70 18.90 69.90L18.90 69.90Z" fill="#33241D"/>
  <path d="M61.80 111.90L61.80 111.90L61.80 104L74.10 104L74.10 111.70Q74.10 117 76.85 119.30Q79.60 121.60 84.50 121.60L84.50 121.60Q87.70 121.60 89.90 121Q92.10 120.40 93.20 119.70L93.20 119.70L93.20 104L105.50 104L105.50 120.70Q105.50 123 104.75 124.55Q104 126.10 101.90 127.40L101.90 127.40Q99 129.10 94.55 130.25Q90.10 131.40 84.40 131.40L84.40 131.40Q77.50 131.40 72.40 129.40Q67.30 127.40 64.55 123.05Q61.80 118.70 61.80 111.90ZM105.50 87.80L105.50 108.80L93.20 108.80L93.20 82.80Q94 82.60 95.55 82.35Q97.10 82.10 98.80 82.10L98.80 82.10Q102.30 82.10 103.90 83.30Q105.50 84.50 105.50 87.80L105.50 87.80ZM74.10 87.80L74.10 108.80L61.80 108.80L61.80 82.80Q62.60 82.60 64.10 82.35Q65.60 82.10 67.40 82.10L67.40 82.10Q70.90 82.10 72.50 83.30Q74.10 84.50 74.10 87.80L74.10 87.80Z" fill="#33241D"/>
  <path d="M148.10 119.60L148.10 119.60L148.10 88.20L160.40 88.20L160.40 120.90Q160.40 123.10 159.45 124.55Q158.50 126 156.40 127.30L156.40 127.30Q154 128.90 149.85 130.15Q145.70 131.40 140.40 131.40L140.40 131.40Q132.50 131.40 126.65 128.75Q120.80 126.10 117.60 120.55Q114.40 115 114.40 106.50L114.40 106.50Q114.40 97.80 117.65 92.20Q120.90 86.60 126.40 83.95Q131.90 81.30 138.60 81.30L138.60 81.30Q142.30 81.30 145.35 82.20Q148.40 83.10 150.30 84.30L150.30 84.30L150.30 94.80Q148.70 93.30 146.10 92.20Q143.50 91.10 140.10 91.10L140.10 91.10Q136.40 91.10 133.40 92.65Q130.40 94.20 128.70 97.65Q127 101.10 127 106.60L127 106.60Q127 114.40 130.60 118Q134.20 121.60 140.30 121.60L140.30 121.60Q143 121.60 144.90 121Q146.80 120.40 148.10 119.60ZM160.40 69.90L160.40 90.70L148.10 90.80L148.10 65Q148.80 64.80 150.35 64.50Q151.90 64.20 153.60 64.20L153.60 64.20Q157.20 64.20 158.80 65.45Q160.40 66.70 160.40 69.90L160.40 69.90Z" fill="#B3492E"/>
  <path d="M196.20 119.60L196.20 119.60L196.20 88.20L208.50 88.20L208.50 120.90Q208.50 123.10 207.55 124.55Q206.60 126 204.50 127.30L204.50 127.30Q202.10 128.90 197.95 130.15Q193.80 131.40 188.50 131.40L188.50 131.40Q180.60 131.40 174.75 128.75Q168.90 126.10 165.70 120.55Q162.50 115 162.50 106.50L162.50 106.50Q162.50 97.80 165.75 92.20Q169 86.60 174.50 83.95Q180 81.30 186.70 81.30L186.70 81.30Q190.40 81.30 193.45 82.20Q196.50 83.10 198.40 84.30L198.40 84.30L198.40 94.80Q196.80 93.30 194.20 92.20Q191.60 91.10 188.20 91.10L188.20 91.10Q184.50 91.10 181.50 92.65Q178.50 94.20 176.80 97.65Q175.10 101.10 175.10 106.60L175.10 106.60Q175.10 114.40 178.70 118Q182.30 121.60 188.40 121.60L188.40 121.60Q191.10 121.60 193 121Q194.90 120.40 196.20 119.60ZM208.50 69.90L208.50 90.70L196.20 90.80L196.20 65Q196.90 64.80 198.45 64.50Q200 64.20 201.70 64.20L201.70 64.20Q205.30 64.20 206.90 65.45Q208.50 66.70 208.50 69.90L208.50 69.90Z" fill="#B3492E"/>
  <path d="M219.40 68.60L219.40 68.60Q219.40 65.70 221.45 63.70Q223.50 61.70 226.60 61.70L226.60 61.70Q229.80 61.70 231.75 63.70Q233.70 65.70 233.70 68.60L233.70 68.60Q233.70 71.40 231.75 73.45Q229.80 75.50 226.60 75.50L226.60 75.50Q223.50 75.50 221.45 73.45Q219.40 71.40 219.40 68.60ZM220.40 124.90L220.40 103.60L232.80 103.60L232.80 129.80Q232 130.10 230.50 130.35Q229 130.60 227.20 130.60L227.20 130.60Q223.80 130.60 222.10 129.35Q220.40 128.10 220.40 124.90L220.40 124.90ZM232.80 88.10L232.80 109.90L220.40 109.90L220.40 83.10Q221.20 82.80 222.75 82.55Q224.30 82.30 226.10 82.30L226.10 82.30Q229.60 82.30 231.20 83.55Q232.80 84.80 232.80 88.10L232.80 88.10Z" fill="#33241D"/>
  <path d="M281.20 116.60L281.20 116.60Q281.20 123.60 276 127.55Q270.80 131.50 260.90 131.50L260.90 131.50Q252.90 131.50 247.80 129.10Q242.70 126.70 242.70 122.70L242.70 122.70Q242.70 121 243.50 119.55Q244.30 118.10 245.60 117.30L245.60 117.30Q248.40 119.10 252.10 120.50Q255.80 121.90 260.50 121.90L260.50 121.90Q269 121.90 269 116.70L269 116.70Q269 114.50 267.50 113.15Q266 111.80 262.90 111.20L262.90 111.20L257.20 109.70Q249.90 108.10 246.35 104.70Q242.80 101.30 242.80 95.60L242.80 95.60Q242.80 89.30 248 85.25Q253.20 81.20 262.40 81.20L262.40 81.20Q267.20 81.20 271 82.15Q274.80 83.10 276.95 84.90Q279.10 86.70 279.10 89.20L279.10 89.20Q279.10 90.90 278.35 92.25Q277.60 93.60 276.40 94.30L276.40 94.30Q275.20 93.60 273.15 92.75Q271.10 91.90 268.50 91.35Q265.90 90.80 263.30 90.80L263.30 90.80Q259.40 90.80 257.15 92.05Q254.90 93.30 254.90 95.60L254.90 95.60Q254.90 97.30 256.20 98.50Q257.50 99.70 260.60 100.40L260.60 100.40L265.70 101.60Q273.80 103.50 277.50 107.15Q281.20 110.80 281.20 116.60Z" fill="#33241D"/>
  <path d="M323.30 105.75L322.94 104.46Q322.80 104.10 322.44 104.17L322.44 104.17Q321.79 104.38 321.11 104.53Q320.42 104.67 319.70 104.89L319.70 104.89Q319.34 105.03 319.34 105.32L319.34 105.32L319.34 129.51Q319.34 130.74 318.44 131.67Q317.54 132.61 316.25 132.61L316.25 132.61Q314.95 132.61 314.05 131.67Q313.15 130.74 313.15 129.51L313.15 129.51L313.15 106.54Q313.15 106.04 312.72 106.18L312.72 106.18Q310.92 106.40 309.16 106.54Q307.39 106.69 305.95 106.83L305.95 106.83Q304.51 106.98 303.65 106.00Q302.78 105.03 302.78 103.66L302.78 103.66Q302.78 102.87 303.14 102.08Q303.50 101.29 304.30 100.71L304.30 100.71Q305.81 99.70 307.21 98.34Q308.62 96.97 309.98 95.38L309.98 95.38Q310.20 95.10 309.98 94.81L309.98 94.81Q309.12 93.22 307.97 91.64Q306.82 90.06 305.52 88.62L305.52 88.62Q304.30 87.18 304.30 85.30L304.30 85.30Q304.30 83.50 305.45 81.92L305.45 81.92Q308.62 77.74 310.42 71.41L310.42 71.41Q310.70 70.40 311.53 69.79Q312.36 69.18 313.30 69.18L313.30 69.18Q314.66 69.18 315.49 70.00Q316.32 70.83 316.32 71.98L316.32 71.98Q316.32 72.20 316.28 72.38Q316.25 72.56 316.18 72.78L316.18 72.78Q315.24 76.52 313.84 79.54Q312.43 82.57 310.70 84.94L310.70 84.94Q310.49 85.23 310.70 85.52L310.70 85.52Q311.50 86.46 312.18 87.32Q312.86 88.18 313.58 89.19L313.58 89.19Q313.87 89.62 314.16 89.12L314.16 89.12Q317.62 83 319.34 75.80L319.34 75.80Q319.56 74.79 320.39 74.14Q321.22 73.50 322.22 73.50L322.22 73.50Q323.66 73.50 324.46 74.36Q325.25 75.22 325.25 76.45L325.25 76.45Q325.25 76.59 325.25 76.81Q325.25 77.02 325.18 77.17L325.18 77.17Q323.59 83.79 320.82 89.37Q318.05 94.95 314.30 99.42L314.30 99.42Q314.16 99.56 314.12 99.67Q314.09 99.78 314.09 99.78L314.09 99.78L314.16 99.85Q316.03 99.49 317.62 99.20Q319.20 98.91 320.50 98.55L320.50 98.55Q320.93 98.41 320.71 97.98L320.71 97.98Q320.57 97.62 320.39 97.18Q320.21 96.75 320.06 96.46L320.06 96.46Q319.78 95.89 319.78 95.17L319.78 95.17Q319.78 93.15 321.65 92.36L321.65 92.36Q322.22 92.14 322.87 92.14L322.87 92.14Q323.81 92.14 324.64 92.65Q325.46 93.15 325.90 94.09L325.90 94.09Q326.76 96.18 327.66 98.88Q328.56 101.58 329.21 104.38L329.21 104.38Q329.28 104.60 329.28 105.03L329.28 105.03Q329.28 106.18 328.42 107.16Q327.55 108.13 326.18 108.13L326.18 108.13Q325.25 108.13 324.38 107.44Q323.52 106.76 323.30 105.75L323.30 105.75ZM363.12 97.76L363.12 97.76Q364.13 98.12 364.67 98.95Q365.21 99.78 365.21 100.78L365.21 100.78Q365.21 102.15 364.31 103.02Q363.41 103.88 362.18 103.88L362.18 103.88Q361.97 103.88 361.75 103.84Q361.54 103.81 361.32 103.74L361.32 103.74Q353.47 101.29 346.13 95.82L346.13 95.82Q345.84 95.60 345.55 95.82L345.55 95.82Q341.95 98.48 338.64 100.42Q335.33 102.37 332.81 103.52L332.81 103.52Q332.30 103.74 331.66 103.74L331.66 103.74Q330.50 103.74 329.64 102.87Q328.78 102.01 328.78 100.64L328.78 100.64Q328.78 98.19 331.01 97.40L331.01 97.40Q333.67 96.32 336.05 94.88Q338.42 93.44 340.66 91.93L340.66 91.93Q341.02 91.57 340.66 91.28L340.66 91.28Q338.93 89.70 337.45 87.97Q335.98 86.24 334.75 84.58L334.75 84.58Q334.25 83.79 334.25 83.07L334.25 83.07Q334.25 81.42 335.83 80.62L335.83 80.62Q336.70 80.26 337.34 80.26L337.34 80.26Q339.14 80.26 340.30 81.78L340.30 81.78Q341.52 83.29 342.82 84.69Q344.11 86.10 345.55 87.39L345.55 87.39Q345.84 87.68 346.13 87.39L346.13 87.39Q348.43 85.30 350.20 83.40Q351.96 81.49 352.97 80.12L352.97 80.12Q353.33 79.62 352.68 79.62L352.68 79.62L332.59 79.62Q331.37 79.62 330.43 78.72Q329.50 77.82 329.50 76.59L329.50 76.59Q329.50 75.30 330.43 74.40Q331.37 73.50 332.59 73.50L332.59 73.50L359.09 73.50Q360.38 73.50 361.25 74.40Q362.11 75.30 362.11 76.45L362.11 76.45Q362.11 77.17 361.82 77.74L361.82 77.74Q359.88 81.49 357.07 84.87Q354.26 88.26 351.02 91.21L351.02 91.21Q350.74 91.50 351.02 91.86L351.02 91.86Q353.76 93.66 356.78 95.17Q359.81 96.68 363.12 97.76ZM348.94 115.26L348.94 125.12Q348.94 125.55 349.37 125.55L349.37 125.55L361.32 125.55Q362.54 125.55 363.48 126.45Q364.42 127.35 364.42 128.65L364.42 128.65Q364.42 129.94 363.48 130.84Q362.54 131.74 361.32 131.74L361.32 131.74L330.58 131.74Q329.35 131.74 328.45 130.84Q327.55 129.94 327.55 128.65L327.55 128.65Q327.55 127.35 328.45 126.45Q329.35 125.55 330.58 125.55L330.58 125.55L342.24 125.55Q342.67 125.55 342.67 125.12L342.67 125.12L342.67 115.26Q342.67 114.82 342.24 114.82L342.24 114.82L333.31 114.82Q332.02 114.82 331.12 113.89Q330.22 112.95 330.22 111.73L330.22 111.73Q330.22 110.43 331.15 109.53Q332.09 108.63 333.31 108.63L333.31 108.63L342.24 108.63Q342.67 108.63 342.67 108.20L342.67 108.20L342.67 101.22Q342.67 99.92 343.57 98.98Q344.47 98.05 345.77 98.05L345.77 98.05Q347.14 98.05 348.04 98.98Q348.94 99.92 348.94 101.22L348.94 101.22L348.94 108.20Q348.94 108.63 349.37 108.63L349.37 108.63L358.87 108.63Q360.17 108.63 361.07 109.57Q361.97 110.50 361.97 111.73L361.97 111.73Q361.97 112.95 361.07 113.89Q360.17 114.82 358.87 114.82L358.87 114.82L349.37 114.82Q348.94 114.82 348.94 115.26L348.94 115.26ZM309.48 107.84L309.48 107.84Q310.92 107.84 311.86 108.85Q312.79 109.86 312.65 111.22L312.65 111.22Q312.22 114.97 311.28 119.58Q310.34 124.18 309.05 128L309.05 128Q308.26 130.23 305.81 130.23L305.81 130.23Q304.44 130.23 303.65 129.40Q302.86 128.58 302.86 127.50L302.86 127.50Q302.86 126.85 303.07 126.34L303.07 126.34Q304.37 122.82 305.23 118.93Q306.10 115.04 306.60 110.43L306.60 110.43Q306.74 109.28 307.57 108.56Q308.40 107.84 309.48 107.84ZM328.92 120.08L328.92 120.08Q328.99 120.30 328.99 120.73L328.99 120.73Q328.99 121.81 328.16 122.67Q327.34 123.54 325.97 123.54L325.97 123.54Q325.03 123.54 324.24 122.89Q323.45 122.24 323.23 121.23L323.23 121.23Q322.22 116.77 320.14 113.10L320.14 113.10Q319.78 112.38 319.78 111.73L319.78 111.73Q319.78 109.93 321.43 109.28L321.43 109.28Q322.08 109.06 322.66 109.06L322.66 109.06Q323.66 109.06 324.53 109.57Q325.39 110.07 325.82 111.01L325.82 111.01Q326.69 112.95 327.52 115.26Q328.34 117.56 328.92 120.08Z" fill="#2E7D6E"/>
  <path d="M414.46 85.30L414.46 86.24Q414.46 86.67 414.90 86.67L414.90 86.67L430.74 86.67Q432.54 86.67 433.69 87.97Q434.84 89.26 434.62 90.99L434.62 90.99Q434.34 92.94 433.90 94.66L433.90 94.66Q432.54 99.63 425.98 99.70L425.98 99.70Q425.55 99.70 425.55 99.99L425.55 99.99Q425.55 100.28 425.59 100.46Q425.62 100.64 425.62 100.93L425.62 100.93L425.62 119.94Q425.62 121.74 424.33 123.03Q423.03 124.33 421.23 124.33L421.23 124.33L420.22 124.33Q420.01 124.33 419.94 124.54Q419.86 124.76 420.08 124.83L420.08 124.83Q422.38 125.34 424.90 125.77Q427.42 126.20 430.23 126.49L430.23 126.49Q431.46 126.56 432.21 127.42Q432.97 128.29 432.97 129.37L432.97 129.37Q432.97 130.81 431.82 131.82Q430.66 132.82 429.22 132.68L429.22 132.68Q425.77 132.32 422.17 131.60Q418.57 130.88 415.54 129.94L415.54 129.94Q414.54 129.58 413.89 128.72Q413.24 127.86 413.24 126.85L413.24 126.85Q413.24 126.56 413.28 126.34Q413.31 126.13 413.38 125.91L413.38 125.91Q413.60 125.34 413.96 124.83L413.96 124.83Q414.32 124.33 413.74 124.33L413.74 124.33L395.74 124.33Q395.17 124.33 395.53 124.83L395.53 124.83Q395.96 125.41 396.03 125.84L396.03 125.84Q396.18 126.42 396.18 126.78L396.18 126.78Q396.18 127.78 395.64 128.61Q395.10 129.44 394.09 129.80L394.09 129.80Q391.14 130.74 387.36 131.53Q383.58 132.32 380.12 132.68L380.12 132.68Q378.75 132.75 377.64 131.82Q376.52 130.88 376.52 129.37L376.52 129.37Q376.52 128.29 377.28 127.46Q378.03 126.63 379.18 126.49L379.18 126.49Q381.99 126.20 384.51 125.77Q387.03 125.34 389.26 124.83L389.26 124.83Q389.48 124.76 389.44 124.54Q389.41 124.33 389.19 124.33L389.19 124.33L387.97 124.33Q386.17 124.33 384.87 123.03Q383.58 121.74 383.58 119.94L383.58 119.94L383.58 101.65Q383.58 101.07 383.07 101.36L383.07 101.36Q380.55 102.30 377.31 103.09L377.31 103.09Q377.17 103.16 376.95 103.16Q376.74 103.16 376.59 103.16L376.59 103.16Q375.44 103.16 374.58 102.37Q373.71 101.58 373.71 100.28L373.71 100.28Q373.71 99.20 374.40 98.34Q375.08 97.47 376.23 97.26L376.23 97.26Q379.54 96.46 382.53 95.24Q385.52 94.02 387.97 92.29L387.97 92.29Q388.26 92.14 388.15 91.96Q388.04 91.78 387.75 91.78L387.75 91.78L381.20 91.78Q380.05 91.78 379.22 90.88Q378.39 89.98 378.39 88.83L378.39 88.83Q378.39 88.54 378.43 88.33Q378.46 88.11 378.54 87.82L378.54 87.82Q378.90 86.82 379.15 85.88Q379.40 84.94 379.62 83.94L379.62 83.94Q380.05 82.14 381.38 80.98Q382.71 79.83 384.44 79.83L384.44 79.83L394.16 79.83Q394.59 79.83 394.59 79.40L394.59 79.40L394.59 78.32Q394.59 77.89 394.16 77.89L394.16 77.89L380.62 77.89Q379.62 77.89 378.86 77.17Q378.10 76.45 378.10 75.37L378.10 75.37Q378.10 74.36 378.82 73.60Q379.54 72.85 380.62 72.85L380.62 72.85L394.16 72.85Q394.59 72.85 394.59 72.42L394.59 72.42L394.59 72.27Q394.59 71.05 395.49 70.18Q396.39 69.32 397.54 69.32L397.54 69.32Q398.77 69.32 399.63 70.18Q400.50 71.05 400.50 72.27L400.50 72.27L400.50 72.42Q400.50 72.85 400.93 72.85L400.93 72.85L407.91 72.85Q408.34 72.85 408.34 72.42L408.34 72.42L408.34 72.34Q408.34 71.12 409.24 70.22Q410.14 69.32 411.44 69.32L411.44 69.32Q412.66 69.32 413.56 70.22Q414.46 71.12 414.46 72.34L414.46 72.34L414.46 72.42Q414.46 72.85 414.90 72.85L414.90 72.85L425.26 72.85Q427.06 72.85 428.29 74.11Q429.51 75.37 429.51 77.10L429.51 77.10L429.51 80.62Q429.51 82.42 428.25 83.65Q426.99 84.87 425.26 84.87L425.26 84.87L414.90 84.87Q414.46 84.87 414.46 85.30L414.46 85.30ZM408.34 79.40L408.34 78.32Q408.34 77.89 407.91 77.89L407.91 77.89L400.93 77.89Q400.50 77.89 400.50 78.32L400.50 78.32L400.50 79.40Q400.50 79.83 400.93 79.83L400.93 79.83L407.91 79.83Q408.34 79.83 408.34 79.40L408.34 79.40ZM414.90 79.83L423.18 79.83Q423.61 79.83 423.61 79.40L423.61 79.40L423.61 78.32Q423.61 77.89 423.18 77.89L423.18 77.89L414.90 77.89Q414.46 77.89 414.46 78.32L414.46 78.32L414.46 79.40Q414.46 79.83 414.90 79.83L414.90 79.83ZM393.80 85.38L393.80 85.38Q394.09 84.87 393.51 84.87L393.51 84.87L385.74 84.87Q385.38 84.87 385.23 85.30L385.23 85.30Q385.16 85.52 385.12 85.74Q385.09 85.95 385.02 86.17L385.02 86.17Q384.87 86.67 385.38 86.67L385.38 86.67L392.86 86.67Q393.30 86.67 393.37 86.31L393.37 86.31Q393.51 86.10 393.62 85.84Q393.73 85.59 393.80 85.38ZM399.78 86.17L399.78 86.17Q399.63 86.67 400.14 86.67L400.14 86.67L407.91 86.67Q408.34 86.67 408.34 86.24L408.34 86.24L408.34 85.30Q408.34 84.87 407.91 84.87L407.91 84.87L400.50 84.87Q400.21 84.87 400.06 85.23L400.06 85.23Q399.99 85.45 399.92 85.70Q399.85 85.95 399.78 86.17ZM428.29 93.01L428.29 93.01L428.43 92.22Q428.58 91.78 428 91.78L428 91.78L414.90 91.78Q414.46 91.78 414.46 92.22L414.46 92.22L414.46 93.08Q414.46 94.30 413.56 95.24Q412.66 96.18 411.44 96.18L411.44 96.18Q410.14 96.18 409.24 95.24Q408.34 94.30 408.34 93.08L408.34 93.08L408.34 92.22Q408.34 91.78 407.91 91.78L407.91 91.78L397.33 91.78Q396.97 91.78 396.75 92.07L396.75 92.07Q395.38 93.94 392.86 96.03L392.86 96.03Q392.58 96.18 392.65 96.36Q392.72 96.54 393.01 96.54L393.01 96.54L421.59 96.54Q422.02 96.54 422.02 96.46L422.02 96.46Q422.10 95.24 423.03 94.52Q423.97 93.80 425.19 93.94L425.19 93.94Q425.48 94.02 425.70 94.02Q425.91 94.02 426.20 94.02L426.20 94.02Q428.07 94.02 428.29 93.01ZM389.77 102.51L389.77 103.66Q389.77 104.10 390.20 104.10L390.20 104.10L419 104.10Q419.43 104.10 419.43 103.66L419.43 103.66L419.43 102.51Q419.43 102.08 419 102.08L419 102.08L390.20 102.08Q389.77 102.08 389.77 102.51L389.77 102.51ZM419.43 111.08L419.43 109.78Q419.43 109.35 419 109.35L419 109.35L390.20 109.35Q389.77 109.35 389.77 109.78L389.77 109.78L389.77 111.08Q389.77 111.51 390.20 111.51L390.20 111.51L419 111.51Q419.43 111.51 419.43 111.08L419.43 111.08ZM419 116.77L390.20 116.77Q389.77 116.77 389.77 117.20L389.77 117.20L389.77 118.28Q389.77 118.71 390.20 118.71L390.20 118.71L419 118.71Q419.43 118.71 419.43 118.28L419.43 118.28L419.43 117.20Q419.43 116.77 419 116.77L419 116.77Z" fill="#2E7D6E"/>
</svg>
